<?xml version="1.0" encoding="utf-8"?>
<!-- Generator: Adobe Illustrator 23.0.3, SVG Export Plug-In . SVG Version: 6.00 Build 0)  -->
<svg version="1.1" id="Layer_4" xmlns="http://www.w3.org/2000/svg" xmlns:xlink="http://www.w3.org/1999/xlink" x="0px" y="0px"
	 viewBox="0 0 3128.3 1184.3" style="enable-background:new 0 0 3128.3 1184.3;" xml:space="preserve">
<style type="text/css">
	.st0{fill:#F2F2F2;}
	.st1{fill:#E6E6E6;}
	.st2{opacity:0.2;fill:#070707;}
	.st3{fill:#CCCCCC;}
</style>
<rect x="1928.9" y="469.6" transform="matrix(0.8933 -0.4495 0.4495 0.8933 -51.4942 1079.3521)" class="st0" width="636.6" height="357"/>
<polygon class="st1" points="2178.9,522.4 2043.1,950.6 2611.8,664.5 "/>
<polygon class="st2" points="2443.2,349.7 1882.7,631.7 2279.3,716.7 "/>
<polygon class="st3" points="2443.2,349.7 1882.7,631.7 2261.6,686.8 "/>
<rect x="2284.1" y="100" transform="matrix(0.9756 -0.2197 0.2197 0.9756 12.0644 555.8829)" class="st0" width="441.2" height="247.5"/>
<polygon class="st1" points="2479.9,127.7 2316.7,392.9 2747.2,295.9 "/>
<polygon class="st2" points="2686.6,55.9 2262.3,151.5 2514.8,275.2 "/>
<polygon class="st3" points="2686.6,55.9 2262.3,151.5 2507.9,252.1 "/>
<rect x="2514.9" y="713.4" transform="matrix(0.7516 -0.6596 0.6596 0.7516 121.518 2050.5552)" class="st0" width="536.8" height="301.1"/>
<polygon class="st1" points="2700.9,775.8 2680.9,1154.1 3084.3,800 "/>
<polygon class="st2" points="2880,578.8 2482.3,927.9 2824,913.1 "/>
<polygon class="st3" points="2880,578.8 2482.3,927.9 2803.2,892.4 "/>
<rect x="560.9" y="444.1" transform="matrix(-0.8933 -0.4495 0.4495 -0.8933 1384.6458 1573.9581)" class="st0" width="636.6" height="357"/>
<polygon class="st1" points="947.5,496.9 1083.3,925.1 514.6,639 "/>
<polygon class="st2" points="683.2,324.2 1243.7,606.2 847.1,691.2 "/>
<polygon class="st3" points="683.2,324.2 1243.7,606.2 864.8,661.3 "/>
<rect x="401" y="74.5" transform="matrix(-0.9756 -0.2197 0.2197 -0.9756 1184.5554 528.152)" class="st0" width="441.2" height="247.5"/>
<polygon class="st1" points="646.5,102.2 809.7,367.4 379.2,270.4 "/>
<polygon class="st2" points="439.8,30.4 864.1,126 611.6,249.7 "/>
<polygon class="st3" points="439.8,30.4 864.1,126 618.5,226.6 "/>
<rect x="74.7" y="687.9" transform="matrix(-0.7516 -0.6596 0.6596 -0.7516 47.9154 1694.8846)" class="st0" width="536.8" height="301.1"/>
<polygon class="st1" points="425.5,750.3 445.5,1128.6 42.1,774.5 "/>
<polygon class="st2" points="246.4,553.3 644.1,902.3 302.4,887.6 "/>
<polygon class="st3" points="246.4,553.3 644.1,902.3 323.2,866.9 "/>
</svg>
