<?xml version="1.0" encoding="utf-8"?>
<!-- Generator: Adobe Illustrator 23.0.3, SVG Export Plug-In . SVG Version: 6.00 Build 0)  -->
<svg version="1.1" id="Ñëîé_1" xmlns="http://www.w3.org/2000/svg" xmlns:xlink="http://www.w3.org/1999/xlink" x="0px" y="0px"
	 viewBox="0 0 366.5 234" style="enable-background:new 0 0 366.5 234;" xml:space="preserve">
<style type="text/css">
	.st0{display:none;fill:url(#SVGID_1_);}
	.st1{opacity:0.5;}
	.st2{clip-path:url(#SVGID_3_);fill:#FFFFFF;}
	.st3{clip-path:url(#SVGID_3_);fill:#FEFFFF;}
	.st4{clip-path:url(#SVGID_3_);fill:#FEFEFF;}
	.st5{clip-path:url(#SVGID_3_);fill:#FDFEFF;}
	.st6{clip-path:url(#SVGID_3_);fill:#FDFEFE;}
	.st7{clip-path:url(#SVGID_3_);fill:#FCFDFE;}
	.st8{clip-path:url(#SVGID_3_);fill:#FBFDFE;}
	.st9{clip-path:url(#SVGID_3_);fill:#FBFCFE;}
	.st10{clip-path:url(#SVGID_3_);fill:#FAFCFE;}
	.st11{clip-path:url(#SVGID_3_);fill:#FAFCFD;}
	.st12{clip-path:url(#SVGID_3_);fill:#F9FCFD;}
	.st13{clip-path:url(#SVGID_3_);fill:#F9FBFD;}
	.st14{clip-path:url(#SVGID_3_);fill:#F8FBFD;}
	.st15{clip-path:url(#SVGID_3_);fill:#F8FAFD;}
	.st16{clip-path:url(#SVGID_3_);fill:#F7FAFC;}
	.st17{clip-path:url(#SVGID_3_);fill:#F6FAFC;}
	.st18{clip-path:url(#SVGID_3_);fill:#F6F9FC;}
	.st19{clip-path:url(#SVGID_3_);fill:#F5F9FC;}
	.st20{clip-path:url(#SVGID_3_);fill:#F4F9FC;}
	.st21{clip-path:url(#SVGID_3_);fill:#F4F8FB;}
	.st22{clip-path:url(#SVGID_3_);fill:#F3F8FB;}
	.st23{clip-path:url(#SVGID_3_);fill:#F2F7FB;}
	.st24{clip-path:url(#SVGID_3_);fill:#F1F7FB;}
	.st25{clip-path:url(#SVGID_3_);fill:#F1F6FA;}
	.st26{clip-path:url(#SVGID_3_);fill:#F0F6FA;}
	.st27{clip-path:url(#SVGID_3_);fill:#EFF5FA;}
	.st28{clip-path:url(#SVGID_3_);fill:#EEF5FA;}
	.st29{clip-path:url(#SVGID_3_);fill:#EDF4F9;}
	.st30{clip-path:url(#SVGID_3_);fill:#ECF3F9;}
	.st31{clip-path:url(#SVGID_3_);fill:#EBF3F9;}
	.st32{clip-path:url(#SVGID_3_);fill:#EAF2F8;}
	.st33{clip-path:url(#SVGID_3_);fill:#E9F2F8;}
	.st34{clip-path:url(#SVGID_3_);fill:#E8F1F8;}
	.st35{clip-path:url(#SVGID_3_);fill:#E8F1F7;}
	.st36{clip-path:url(#SVGID_3_);fill:#E7F0F7;}
	.st37{clip-path:url(#SVGID_3_);fill:#E6F0F7;}
	.st38{clip-path:url(#SVGID_3_);fill:#E6EFF7;}
	.st39{clip-path:url(#SVGID_3_);fill:#E5EFF7;}
	.st40{clip-path:url(#SVGID_3_);fill:#E4EFF6;}
	.st41{clip-path:url(#SVGID_3_);fill:#E4EEF6;}
	.st42{clip-path:url(#SVGID_3_);fill:#E3EEF6;}
	.st43{clip-path:url(#SVGID_3_);fill:#E2EDF6;}
	.st44{clip-path:url(#SVGID_3_);fill:#E1EDF6;}
	.st45{clip-path:url(#SVGID_3_);fill:#E1ECF5;}
	.st46{clip-path:url(#SVGID_3_);fill:#E0ECF5;}
	.st47{clip-path:url(#SVGID_3_);fill:#DFECF5;}
	.st48{clip-path:url(#SVGID_3_);fill:#DFEBF5;}
	.st49{clip-path:url(#SVGID_3_);fill:#DEEBF4;}
	.st50{clip-path:url(#SVGID_3_);fill:#DDEAF4;}
	.st51{clip-path:url(#SVGID_3_);fill:#DCEAF4;}
	.st52{clip-path:url(#SVGID_3_);fill:#DCE9F4;}
	.st53{clip-path:url(#SVGID_3_);fill:#DBE9F3;}
	.st54{clip-path:url(#SVGID_3_);fill:#DAE8F3;}
	.st55{clip-path:url(#SVGID_3_);fill:#D9E8F3;}
	.st56{clip-path:url(#SVGID_3_);fill:#D8E7F3;}
	.st57{clip-path:url(#SVGID_3_);fill:#D8E7F2;}
	.st58{clip-path:url(#SVGID_3_);fill:#D7E6F2;}
	.st59{clip-path:url(#SVGID_3_);fill:#D6E6F2;}
	.st60{clip-path:url(#SVGID_3_);fill:#D5E5F2;}
	.st61{clip-path:url(#SVGID_3_);fill:#D4E5F1;}
	.st62{clip-path:url(#SVGID_3_);fill:#D4E4F1;}
	.st63{clip-path:url(#SVGID_3_);fill:#D3E4F1;}
	.st64{clip-path:url(#SVGID_3_);fill:#D2E3F0;}
	.st65{clip-path:url(#SVGID_3_);fill:#D1E3F0;}
	.st66{clip-path:url(#SVGID_3_);fill:#D0E2F0;}
	.st67{clip-path:url(#SVGID_3_);fill:#CFE2F0;}
	.st68{clip-path:url(#SVGID_3_);fill:#CEE1EF;}
	.st69{clip-path:url(#SVGID_3_);fill:#CDE0EF;}
	.st70{clip-path:url(#SVGID_3_);fill:#CCE0EF;}
	.st71{clip-path:url(#SVGID_3_);fill:#CBDFEE;}
	.st72{clip-path:url(#SVGID_3_);fill:#CADFEE;}
	.st73{clip-path:url(#SVGID_3_);fill:#C9DEEE;}
	.st74{clip-path:url(#SVGID_3_);fill:#C8DEED;}
	.st75{clip-path:url(#SVGID_3_);fill:#C7DDED;}
	.st76{clip-path:url(#SVGID_3_);fill:#C6DCED;}
	.st77{clip-path:url(#SVGID_3_);fill:#C5DBEC;}
	.st78{clip-path:url(#SVGID_3_);fill:#C4DBEC;}
	.st79{clip-path:url(#SVGID_3_);fill:#C3DAEC;}
	.st80{clip-path:url(#SVGID_3_);fill:#C2DAEB;}
	.st81{clip-path:url(#SVGID_3_);fill:#C1D9EB;}
	.st82{clip-path:url(#SVGID_3_);fill:#C0D8EB;}
	.st83{clip-path:url(#SVGID_3_);fill:#BFD8EA;}
	.st84{clip-path:url(#SVGID_3_);fill:#BED7EA;}
	.st85{clip-path:url(#SVGID_3_);fill:#BDD7EA;}
	.st86{clip-path:url(#SVGID_3_);fill:#BCD6E9;}
	.st87{clip-path:url(#SVGID_3_);fill:#BBD5E9;}
	.st88{clip-path:url(#SVGID_3_);fill:#BAD5E9;}
	.st89{clip-path:url(#SVGID_3_);fill:#B9D4E9;}
	.st90{clip-path:url(#SVGID_3_);fill:#B8D4E8;}
	.st91{clip-path:url(#SVGID_3_);fill:#B7D3E8;}
	.st92{clip-path:url(#SVGID_3_);fill:#B6D2E8;}
	.st93{clip-path:url(#SVGID_3_);fill:#B5D2E7;}
	.st94{clip-path:url(#SVGID_3_);fill:#B4D1E7;}
	.st95{clip-path:url(#SVGID_3_);fill:#B3D1E7;}
	.st96{clip-path:url(#SVGID_3_);fill:#B2D0E6;}
	.st97{clip-path:url(#SVGID_3_);fill:#B1CFE6;}
	.st98{clip-path:url(#SVGID_3_);fill:#B0CFE6;}
	.st99{clip-path:url(#SVGID_3_);fill:#AFCEE5;}
	.st100{clip-path:url(#SVGID_3_);fill:#AECDE5;}
	.st101{clip-path:url(#SVGID_3_);fill:#ADCDE5;}
	.st102{clip-path:url(#SVGID_3_);fill:#ACCCE4;}
	.st103{clip-path:url(#SVGID_3_);fill:#ABCCE4;}
	.st104{clip-path:url(#SVGID_3_);fill:#AACBE4;}
	.st105{clip-path:url(#SVGID_3_);fill:#A9CAE3;}
	.st106{clip-path:url(#SVGID_3_);fill:#A8CAE3;}
	.st107{clip-path:url(#SVGID_3_);fill:#A7C9E3;}
	.st108{clip-path:url(#SVGID_3_);fill:#A6C8E2;}
	.st109{clip-path:url(#SVGID_3_);fill:#A4C8E2;}
	.st110{clip-path:url(#SVGID_3_);fill:#A3C7E2;}
	.st111{clip-path:url(#SVGID_3_);fill:#A2C6E1;}
	.st112{clip-path:url(#SVGID_3_);fill:#A1C6E1;}
	.st113{clip-path:url(#SVGID_3_);fill:#A0C5E0;}
	.st114{clip-path:url(#SVGID_3_);fill:#9FC4E0;}
	.st115{clip-path:url(#SVGID_3_);fill:#9EC4E0;}
	.st116{clip-path:url(#SVGID_3_);fill:#9DC3DF;}
	.st117{clip-path:url(#SVGID_3_);fill:#9CC2DF;}
	.st118{clip-path:url(#SVGID_3_);fill:#9AC2DF;}
	.st119{clip-path:url(#SVGID_3_);fill:#99C1DE;}
	.st120{clip-path:url(#SVGID_3_);fill:#98C0DE;}
	.st121{clip-path:url(#SVGID_3_);fill:#97BFDE;}
	.st122{clip-path:url(#SVGID_3_);fill:#96BFDD;}
	.st123{clip-path:url(#SVGID_3_);fill:#95BEDD;}
	.st124{clip-path:url(#SVGID_3_);fill:#94BDDC;}
	.st125{clip-path:url(#SVGID_3_);fill:#92BDDC;}
	.st126{clip-path:url(#SVGID_3_);fill:#91BCDC;}
	.st127{clip-path:url(#SVGID_3_);fill:#90BBDB;}
	.st128{clip-path:url(#SVGID_3_);fill:#8FBADB;}
	.st129{clip-path:url(#SVGID_3_);fill:#8EBADB;}
	.st130{clip-path:url(#SVGID_3_);fill:#8DB9DA;}
	.st131{clip-path:url(#SVGID_3_);fill:#8BB8DA;}
	.st132{clip-path:url(#SVGID_3_);fill:#8AB8D9;}
	.st133{clip-path:url(#SVGID_3_);fill:#89B7D9;}
	.st134{clip-path:url(#SVGID_3_);fill:#88B6D9;}
	.st135{clip-path:url(#SVGID_3_);fill:#87B5D8;}
	.st136{clip-path:url(#SVGID_3_);fill:#85B5D8;}
	.st137{clip-path:url(#SVGID_3_);fill:#84B4D8;}
	.st138{clip-path:url(#SVGID_3_);fill:#83B3D7;}
	.st139{clip-path:url(#SVGID_3_);fill:#82B2D7;}
	.st140{clip-path:url(#SVGID_3_);fill:#81B2D6;}
	.st141{clip-path:url(#SVGID_3_);fill:#7FB1D6;}
	.st142{clip-path:url(#SVGID_3_);fill:#7EB0D6;}
	.st143{clip-path:url(#SVGID_3_);fill:#7DAFD5;}
	.st144{clip-path:url(#SVGID_3_);fill:#7CAFD5;}
	.st145{clip-path:url(#SVGID_3_);fill:#7AAED4;}
	.st146{clip-path:url(#SVGID_3_);fill:#79ADD4;}
	.st147{clip-path:url(#SVGID_3_);fill:#78ACD4;}
	.st148{clip-path:url(#SVGID_3_);fill:#77ACD3;}
	.st149{clip-path:url(#SVGID_3_);fill:#75ABD3;}
	.st150{clip-path:url(#SVGID_3_);fill:#74AAD2;}
	.st151{clip-path:url(#SVGID_3_);fill:#73A9D2;}
	.st152{clip-path:url(#SVGID_3_);fill:#72A8D2;}
	.st153{clip-path:url(#SVGID_3_);fill:#70A8D1;}
	.st154{clip-path:url(#SVGID_3_);fill:#6FA7D1;}
	.st155{clip-path:url(#SVGID_3_);fill:#6EA6D0;}
	.st156{clip-path:url(#SVGID_3_);fill:#6CA5D0;}
	.st157{clip-path:url(#SVGID_3_);fill:#6BA5CF;}
	.st158{clip-path:url(#SVGID_3_);fill:#6AA4CF;}
	.st159{clip-path:url(#SVGID_3_);fill:#68A3CF;}
	.st160{clip-path:url(#SVGID_3_);fill:#67A2CE;}
	.st161{clip-path:url(#SVGID_3_);fill:#66A1CE;}
	.st162{clip-path:url(#SVGID_3_);fill:#65A1CD;}
	.st163{clip-path:url(#SVGID_3_);fill:#63A0CD;}
	.st164{clip-path:url(#SVGID_3_);fill:#629FCC;}
	.st165{clip-path:url(#SVGID_3_);fill:#619ECC;}
	.st166{clip-path:url(#SVGID_3_);fill:#5F9DCC;}
	.st167{clip-path:url(#SVGID_3_);fill:#5E9CCB;}
	.st168{clip-path:url(#SVGID_3_);fill:#5D9CCB;}
	.st169{clip-path:url(#SVGID_3_);fill:#5B9BCA;}
	.st170{clip-path:url(#SVGID_3_);fill:#5A9ACA;}
	.st171{clip-path:url(#SVGID_3_);fill:#5899C9;}
	.st172{clip-path:url(#SVGID_3_);fill:#5798C9;}
	.st173{clip-path:url(#SVGID_3_);fill:#5697C9;}
	.st174{clip-path:url(#SVGID_3_);fill:#5497C8;}
	.st175{clip-path:url(#SVGID_3_);fill:#5396C8;}
	.st176{clip-path:url(#SVGID_3_);fill:#5295C7;}
	.st177{clip-path:url(#SVGID_3_);fill:#5094C7;}
	.st178{clip-path:url(#SVGID_3_);fill:#4F93C6;}
	.st179{clip-path:url(#SVGID_3_);fill:#4E92C6;}
	.st180{clip-path:url(#SVGID_3_);fill:#4C92C5;}
	.st181{clip-path:url(#SVGID_3_);fill:#4B91C5;}
	.st182{clip-path:url(#SVGID_3_);fill:#4990C5;}
	.st183{clip-path:url(#SVGID_3_);fill:#488FC4;}
	.st184{clip-path:url(#SVGID_3_);fill:#478EC4;}
	.st185{clip-path:url(#SVGID_3_);fill:#458DC3;}
	.st186{clip-path:url(#SVGID_3_);fill:#448CC3;}
	.st187{clip-path:url(#SVGID_3_);fill:#428CC2;}
	.st188{clip-path:url(#SVGID_3_);fill:#418BC2;}
	.st189{clip-path:url(#SVGID_3_);fill:#3F8AC1;}
	.st190{clip-path:url(#SVGID_3_);fill:#3E89C1;}
	.st191{clip-path:url(#SVGID_3_);fill:#3D88C0;}
	.st192{clip-path:url(#SVGID_3_);fill:#3B87C0;}
	.st193{clip-path:url(#SVGID_3_);fill:#3A86C0;}
	.st194{clip-path:url(#SVGID_3_);fill:#3885BF;}
	.st195{clip-path:url(#SVGID_3_);fill:#3784BF;}
	.st196{clip-path:url(#SVGID_3_);fill:#3584BE;}
	.st197{clip-path:url(#SVGID_3_);fill:#3483BE;}
	.st198{clip-path:url(#SVGID_3_);fill:#3282BD;}
	.st199{clip-path:url(#SVGID_3_);fill:#3181BD;}
	.st200{clip-path:url(#SVGID_3_);fill:#2F80BC;}
	.st201{clip-path:url(#SVGID_3_);fill:#2E7FBC;}
	.st202{clip-path:url(#SVGID_3_);fill:#2C7EBB;}
	.st203{clip-path:url(#SVGID_3_);fill:#2B7DBB;}
	.st204{clip-path:url(#SVGID_3_);fill:#2A7CBA;}
	.st205{clip-path:url(#SVGID_3_);fill:#287BBA;}
	.st206{clip-path:url(#SVGID_3_);fill:#277BB9;}
	.st207{clip-path:url(#SVGID_3_);fill:#257AB9;}
	.st208{clip-path:url(#SVGID_3_);fill:#2479B8;}
	.st209{clip-path:url(#SVGID_3_);fill:#2278B8;}
	.st210{clip-path:url(#SVGID_3_);fill:#2177B7;}
	.st211{clip-path:url(#SVGID_3_);fill:#1F76B7;}
	.st212{clip-path:url(#SVGID_3_);fill:#1E75B6;}
	.st213{clip-path:url(#SVGID_3_);fill:#1C74B6;}
	.st214{clip-path:url(#SVGID_3_);fill:#1A73B6;}
	.st215{clip-path:url(#SVGID_3_);fill:#1972B5;}
	.st216{clip-path:url(#SVGID_3_);fill:#1771B5;}
	.st217{clip-path:url(#SVGID_3_);fill:#1670B4;}
	.st218{clip-path:url(#SVGID_3_);fill:#146FB4;}
	.st219{clip-path:url(#SVGID_3_);fill:#136EB3;}
	.st220{clip-path:url(#SVGID_3_);fill:#116EB3;}
	.st221{clip-path:url(#SVGID_3_);fill:#106DB2;}
	.st222{clip-path:url(#SVGID_3_);fill:#0E6CB2;}
	.st223{clip-path:url(#SVGID_3_);fill:#0D6BB1;}
	.st224{clip-path:url(#SVGID_3_);fill:#0B6AB1;}
	.st225{clip-path:url(#SVGID_3_);fill:#0969B0;}
	.st226{clip-path:url(#SVGID_3_);fill:#0868B0;}
	.st227{clip-path:url(#SVGID_3_);fill:#0667AF;}
	.st228{clip-path:url(#SVGID_3_);fill:#0566AF;}
	.st229{clip-path:url(#SVGID_3_);fill:#0365AE;}
	.st230{clip-path:url(#SVGID_3_);fill:#0264AE;}
	.st231{clip-path:url(#SVGID_3_);fill:#0063AD;}
	.st232{fill:#FFFFFF;}
	.st233{fill:url(#SVGID_4_);}
	.st234{fill:url(#SVGID_5_);}
	.st235{fill:url(#SVGID_6_);}
	.st236{fill:url(#SVGID_7_);}
	.st237{fill:url(#SVGID_8_);}
	.st238{fill:url(#SVGID_9_);}
	.st239{fill:url(#SVGID_10_);}
	.st240{fill:url(#SVGID_11_);}
	.st241{fill:url(#SVGID_12_);}
	.st242{fill:url(#SVGID_13_);}
	.st243{fill:url(#SVGID_14_);}
	.st244{fill:url(#SVGID_15_);}
	.st245{fill:url(#SVGID_16_);}
	.st246{fill:url(#SVGID_17_);}
	.st247{fill:url(#SVGID_18_);}
</style>
<radialGradient id="SVGID_1_" cx="27.2892" cy="53.2832" r="442.9742" gradientUnits="userSpaceOnUse">
	<stop  offset="0" style="stop-color:#3A9BD5"/>
	<stop  offset="1" style="stop-color:#0063AD"/>
</radialGradient>
<rect x="-135.4" y="-129.7" class="st0" width="600" height="450"/>
<g class="st1">
	<g>
		<defs>
			<ellipse id="SVGID_2_" cx="228.6" cy="207.9" rx="122.9" ry="18.1"/>
		</defs>
		<clipPath id="SVGID_3_">
			<use xlink:href="#SVGID_2_"  style="overflow:visible;"/>
		</clipPath>
		<rect x="105.7" y="189.9" class="st2" width="245.8" height="36.2"/>
		
			<ellipse transform="matrix(1 -5.641115e-03 5.641115e-03 1 -1.1736 1.2915)" class="st2" cx="228.4" cy="208.7" rx="110.1" ry="14.8"/>
		
			<ellipse transform="matrix(1 -5.640788e-03 5.640788e-03 1 -1.1736 1.2893)" class="st2" cx="228" cy="208.7" rx="109.6" ry="14.7"/>
		
			<ellipse transform="matrix(1 -5.641387e-03 5.641387e-03 1 -1.1737 1.2873)" class="st2" cx="227.6" cy="208.7" rx="109.2" ry="14.7"/>
		
			<ellipse transform="matrix(1 -5.640704e-03 5.640704e-03 1 -1.1736 1.285)" class="st2" cx="227.2" cy="208.7" rx="108.8" ry="14.6"/>
		
			<ellipse transform="matrix(1 -5.641308e-03 5.641308e-03 1 -1.1737 1.283)" class="st2" cx="226.8" cy="208.7" rx="108.3" ry="14.5"/>
		
			<ellipse transform="matrix(1 -5.640971e-03 5.640971e-03 1 -1.1737 1.2808)" class="st3" cx="226.5" cy="208.7" rx="107.9" ry="14.5"/>
		
			<ellipse transform="matrix(1 -5.641228e-03 5.641228e-03 1 -1.1737 1.2788)" class="st3" cx="226.1" cy="208.7" rx="107.5" ry="14.4"/>
		
			<ellipse transform="matrix(1 -5.640535e-03 5.640535e-03 1 -1.1736 1.2765)" class="st4" cx="225.7" cy="208.7" rx="107" ry="14.4"/>
		
			<ellipse transform="matrix(1 -5.641147e-03 5.641147e-03 1 -1.1738 1.2745)" class="st4" cx="225.3" cy="208.7" rx="106.6" ry="14.3"/>
		
			<ellipse transform="matrix(1 -5.641043e-03 5.641043e-03 1 -1.1738 1.2723)" class="st4" cx="225" cy="208.7" rx="106.2" ry="14.3"/>
		
			<ellipse transform="matrix(1 -5.641306e-03 5.641306e-03 1 -1.1738 1.2703)" class="st5" cx="224.6" cy="208.7" rx="105.7" ry="14.2"/>
		
			<ellipse transform="matrix(1 -5.641206e-03 5.641206e-03 1 -1.1738 1.2681)" class="st6" cx="224.2" cy="208.7" rx="105.3" ry="14.1"/>
		
			<ellipse transform="matrix(1 -5.641103e-03 5.641103e-03 1 -1.1738 1.266)" class="st6" cx="223.8" cy="208.7" rx="104.9" ry="14.1"/>
		
			<ellipse transform="matrix(1 -5.640881e-03 5.640881e-03 1 -1.1738 1.2638)" class="st6" cx="223.5" cy="208.7" rx="104.4" ry="14"/>
		
			<ellipse transform="matrix(1 -5.641263e-03 5.641263e-03 1 -1.1739 1.2618)" class="st7" cx="223.1" cy="208.7" rx="104" ry="14"/>
		
			<ellipse transform="matrix(1 -5.641159e-03 5.641159e-03 1 -1.1739 1.2596)" class="st7" cx="222.7" cy="208.7" rx="103.6" ry="13.9"/>
		
			<ellipse transform="matrix(1 -5.641547e-03 5.641547e-03 1 -1.174 1.2576)" class="st7" cx="222.3" cy="208.7" rx="103.1" ry="13.8"/>
		
			<ellipse transform="matrix(1 -5.640826e-03 5.640826e-03 1 -1.1738 1.2553)" class="st8" cx="221.9" cy="208.7" rx="102.7" ry="13.8"/>
		
			<ellipse transform="matrix(1 -5.641343e-03 5.641343e-03 1 -1.174 1.2533)" class="st8" cx="221.6" cy="208.7" rx="102.3" ry="13.7"/>
		
			<ellipse transform="matrix(1 -5.640988e-03 5.640988e-03 1 -1.1739 1.2511)" class="st9" cx="221.2" cy="208.7" rx="101.9" ry="13.7"/>
		
			<ellipse transform="matrix(1 -5.641510e-03 5.641510e-03 1 -1.174 1.2491)" class="st10" cx="220.8" cy="208.7" rx="101.4" ry="13.6"/>
		
			<ellipse transform="matrix(1 -5.640904e-03 5.640904e-03 1 -1.1739 1.2468)" class="st11" cx="220.4" cy="208.7" rx="101" ry="13.6"/>
		
			<ellipse transform="matrix(1 -5.641554e-03 5.641554e-03 1 -1.1741 1.2448)" class="st11" cx="220.1" cy="208.7" rx="100.6" ry="13.5"/>
		
			<ellipse transform="matrix(1 -5.641192e-03 5.641192e-03 1 -1.174 1.2426)" class="st12" cx="219.7" cy="208.7" rx="100.1" ry="13.4"/>
		
			<ellipse transform="matrix(1 -5.641470e-03 5.641470e-03 1 -1.1741 1.2406)" class="st13" cx="219.3" cy="208.7" rx="99.7" ry="13.4"/>
		
			<ellipse transform="matrix(1 -5.641106e-03 5.641106e-03 1 -1.174 1.2384)" class="st14" cx="218.9" cy="208.7" rx="99.3" ry="13.3"/>
		
			<ellipse transform="matrix(1 -5.641511e-03 5.641511e-03 1 -1.1741 1.2363)" class="st14" cx="218.6" cy="208.7" rx="98.8" ry="13.3"/>
		
			<ellipse transform="matrix(1 -5.641277e-03 5.641277e-03 1 -1.1741 1.2341)" class="st15" cx="218.2" cy="208.7" rx="98.4" ry="13.2"/>
		
			<ellipse transform="matrix(1 -5.640777e-03 5.640777e-03 1 -1.174 1.2319)" class="st16" cx="217.8" cy="208.7" rx="98" ry="13.2"/>
		
			<ellipse transform="matrix(1 -5.640926e-03 5.640926e-03 1 -1.1741 1.2298)" class="st16" cx="217.4" cy="208.7" rx="97.5" ry="13.1"/>
		<path class="st17" d="M314.2,208.2c0,7.2-43.4,13.3-97,13.6c-53.6,0.3-97.1-5.3-97.2-12.5c0-7.2,43.4-13.3,97-13.6
			C270.6,195.4,314.1,201,314.2,208.2z"/>
		
			<ellipse transform="matrix(1 -5.641097e-03 5.641097e-03 1 -1.1741 1.2256)" class="st18" cx="216.7" cy="208.7" rx="96.7" ry="13"/>
		
			<ellipse transform="matrix(1 -5.640988e-03 5.640988e-03 1 -1.1741 1.2234)" class="st19" cx="216.3" cy="208.8" rx="96.2" ry="12.9"/>
		
			<ellipse transform="matrix(1 -5.641406e-03 5.641406e-03 1 -1.1742 1.2214)" class="st19" cx="215.9" cy="208.8" rx="95.8" ry="12.9"/>
		
			<ellipse transform="matrix(1 -5.640628e-03 5.640628e-03 1 -1.1741 1.2191)" class="st20" cx="215.5" cy="208.8" rx="95.4" ry="12.8"/>
		
			<ellipse transform="matrix(1 -5.641048e-03 5.641048e-03 1 -1.1742 1.2171)" class="st21" cx="215.2" cy="208.8" rx="94.9" ry="12.7"/>
		
			<ellipse transform="matrix(1 -5.640933e-03 5.640933e-03 1 -1.1742 1.2149)" class="st22" cx="214.8" cy="208.8" rx="94.5" ry="12.7"/>
		
			<ellipse transform="matrix(1 -5.641225e-03 5.641225e-03 1 -1.1743 1.2129)" class="st22" cx="214.4" cy="208.8" rx="94.1" ry="12.6"/>
		
			<ellipse transform="matrix(1 -5.640704e-03 5.640704e-03 1 -1.1742 1.2106)" class="st23" cx="214" cy="208.8" rx="93.7" ry="12.6"/>
		
			<ellipse transform="matrix(1 -5.641405e-03 5.641405e-03 1 -1.1743 1.2087)" class="st23" cx="213.7" cy="208.8" rx="93.2" ry="12.5"/>
		
			<ellipse transform="matrix(1 -5.640740e-03 5.640740e-03 1 -1.1742 1.2064)" class="st24" cx="213.3" cy="208.8" rx="92.8" ry="12.5"/>
		
			<ellipse transform="matrix(1 -5.641312e-03 5.641312e-03 1 -1.1743 1.2044)" class="st25" cx="212.9" cy="208.8" rx="92.4" ry="12.4"/>
		
			<ellipse transform="matrix(1 -5.640923e-03 5.640923e-03 1 -1.1743 1.2022)" class="st26" cx="212.5" cy="208.8" rx="91.9" ry="12.3"/>
		
			<ellipse transform="matrix(1 -5.641360e-03 5.641360e-03 1 -1.1744 1.2001)" class="st26" cx="212.2" cy="208.8" rx="91.5" ry="12.3"/>
		
			<ellipse transform="matrix(1 -5.640826e-03 5.640826e-03 1 -1.1743 1.1979)" class="st27" cx="211.8" cy="208.8" rx="91.1" ry="12.2"/>
		
			<ellipse transform="matrix(1 -5.641546e-03 5.641546e-03 1 -1.1745 1.1959)" class="st28" cx="211.4" cy="208.8" rx="90.6" ry="12.2"/>
		
			<ellipse transform="matrix(1 -5.641146e-03 5.641146e-03 1 -1.1744 1.1937)" class="st28" cx="211" cy="208.8" rx="90.2" ry="12.1"/>
		
			<ellipse transform="matrix(1 -5.641307e-03 5.641307e-03 1 -1.1744 1.1916)" class="st29" cx="210.6" cy="208.8" rx="89.8" ry="12.1"/>
		
			<ellipse transform="matrix(1 -5.640908e-03 5.640908e-03 1 -1.1744 1.1894)" class="st29" cx="210.3" cy="208.8" rx="89.3" ry="12"/>
		
			<ellipse transform="matrix(1 -5.641358e-03 5.641358e-03 1 -1.1745 1.1874)" class="st30" cx="209.9" cy="208.8" rx="88.9" ry="11.9"/>
		
			<ellipse transform="matrix(1 -5.641236e-03 5.641236e-03 1 -1.1745 1.1852)" class="st31" cx="209.5" cy="208.8" rx="88.5" ry="11.9"/>
		
			<ellipse transform="matrix(1 -5.641551e-03 5.641551e-03 1 -1.1746 1.1832)" class="st31" cx="209.1" cy="208.8" rx="88" ry="11.8"/>
		
			<ellipse transform="matrix(1 -5.640851e-03 5.640851e-03 1 -1.1744 1.1809)" class="st32" cx="208.8" cy="208.8" rx="87.6" ry="11.8"/>
		
			<ellipse transform="matrix(1 -5.641602e-03 5.641602e-03 1 -1.1746 1.1789)" class="st32" cx="208.4" cy="208.8" rx="87.2" ry="11.7"/>
		
			<ellipse transform="matrix(1 -5.641042e-03 5.641042e-03 1 -1.1745 1.1767)" class="st33" cx="208" cy="208.8" rx="86.7" ry="11.6"/>
		
			<ellipse transform="matrix(1 -5.641800e-03 5.641800e-03 1 -1.1747 1.1747)" class="st34" cx="207.6" cy="208.8" rx="86.3" ry="11.6"/>
		
			<ellipse transform="matrix(1 -5.641082e-03 5.641082e-03 1 -1.1745 1.1724)" class="st35" cx="207.3" cy="208.8" rx="85.9" ry="11.5"/>
		
			<ellipse transform="matrix(1 -5.640658e-03 5.640658e-03 1 -1.1745 1.1702)" class="st36" cx="206.9" cy="208.8" rx="85.5" ry="11.5"/>
		
			<ellipse transform="matrix(1 -5.640833e-03 5.640833e-03 1 -1.1745 1.1681)" class="st37" cx="206.5" cy="208.8" rx="85" ry="11.4"/>
		
			<ellipse transform="matrix(1 -5.640704e-03 5.640704e-03 1 -1.1745 1.166)" class="st38" cx="206.1" cy="208.8" rx="84.6" ry="11.4"/>
		<path class="st39" d="M289.9,208.3c0,6.2-37.6,11.5-84.1,11.8c-46.5,0.3-84.2-4.6-84.2-10.8c0-6.2,37.6-11.5,84.1-11.8
			C252.2,197.2,289.9,202.1,289.9,208.3z"/>
		
			<ellipse transform="matrix(1 -5.640596e-03 5.640596e-03 1 -1.1745 1.1617)" class="st40" cx="205.4" cy="208.8" rx="83.7" ry="11.2"/>
		
			<ellipse transform="matrix(1 -5.641379e-03 5.641379e-03 1 -1.1747 1.1598)" class="st41" cx="205" cy="208.8" rx="83.3" ry="11.2"/>
		
			<ellipse transform="matrix(1 -5.640639e-03 5.640639e-03 1 -1.1746 1.1575)" class="st42" cx="204.6" cy="208.8" rx="82.9" ry="11.1"/>
		
			<ellipse transform="matrix(1 -5.641431e-03 5.641431e-03 1 -1.1748 1.1555)" class="st43" cx="204.2" cy="208.8" rx="82.4" ry="11.1"/>
		
			<ellipse transform="matrix(1 -5.640529e-03 5.640529e-03 1 -1.1746 1.1532)" class="st44" cx="203.9" cy="208.8" rx="82" ry="11"/>
		
			<ellipse transform="matrix(1 -5.641325e-03 5.641325e-03 1 -1.1748 1.1512)" class="st45" cx="203.5" cy="208.8" rx="81.6" ry="11"/>
		
			<ellipse transform="matrix(1 -5.640879e-03 5.640879e-03 1 -1.1747 1.149)" class="st46" cx="203.1" cy="208.8" rx="81.1" ry="10.9"/>
		<path class="st47" d="M283.4,208.4c0,6-36.1,11-80.6,11.3c-44.6,0.3-80.7-4.4-80.8-10.4c0-6,36.1-11,80.6-11.3
			S283.4,202.4,283.4,208.4z"/>
		
			<ellipse transform="matrix(1 -5.640930e-03 5.640930e-03 1 -1.1747 1.1448)" class="st48" cx="202.4" cy="208.8" rx="80.3" ry="10.8"/>
		
			<ellipse transform="matrix(1 -5.641113e-03 5.641113e-03 1 -1.1748 1.1427)" class="st49" cx="202" cy="208.8" rx="79.8" ry="10.7"/>
		
			<ellipse transform="matrix(1 -5.640820e-03 5.640820e-03 1 -1.1747 1.1405)" class="st50" cx="201.6" cy="208.8" rx="79.4" ry="10.7"/>
		
			<ellipse transform="matrix(1 -5.641324e-03 5.641324e-03 1 -1.1749 1.1385)" class="st51" cx="201.2" cy="208.8" rx="79" ry="10.6"/>
		
			<ellipse transform="matrix(1 -5.641192e-03 5.641192e-03 1 -1.1749 1.1363)" class="st52" cx="200.8" cy="208.8" rx="78.5" ry="10.5"/>
		
			<ellipse transform="matrix(1 -5.641053e-03 5.641053e-03 1 -1.1748 1.1342)" class="st53" cx="200.5" cy="208.8" rx="78.1" ry="10.5"/>
		
			<ellipse transform="matrix(1 -5.640752e-03 5.640752e-03 1 -1.1748 1.132)" class="st54" cx="200.1" cy="208.8" rx="77.7" ry="10.4"/>
		<path class="st55" d="M277,208.4c0,5.7-34.5,10.6-77.2,10.8c-42.7,0.2-77.3-4.2-77.3-9.9c0-5.7,34.5-10.6,77.2-10.8
			C242.3,198.2,276.9,202.7,277,208.4z"/>
		
			<ellipse transform="matrix(1 -5.641127e-03 5.641127e-03 1 -1.1749 1.1278)" class="st56" cx="199.3" cy="208.8" rx="76.8" ry="10.3"/>
		<path class="st57" d="M275.3,208.4c0,5.7-34.1,10.4-76.3,10.7c-42.2,0.2-76.4-4.2-76.4-9.8c0-5.7,34.1-10.4,76.3-10.7
			C241.1,198.3,275.3,202.7,275.3,208.4z"/>
		
			<ellipse transform="matrix(1 -5.640850e-03 5.640850e-03 1 -1.1749 1.1235)" class="st58" cx="198.6" cy="208.8" rx="76" ry="10.2"/>
		
			<ellipse transform="matrix(1 -5.641377e-03 5.641377e-03 1 -1.175 1.1215)" class="st59" cx="198.2" cy="208.8" rx="75.5" ry="10.1"/>
		
			<ellipse transform="matrix(1 -5.640895e-03 5.640895e-03 1 -1.1749 1.1193)" class="st60" cx="197.8" cy="208.8" rx="75.1" ry="10.1"/>
		
			<ellipse transform="matrix(1 -5.641605e-03 5.641605e-03 1 -1.1751 1.1173)" class="st61" cx="197.5" cy="208.8" rx="74.7" ry="10"/>
		
			<ellipse transform="matrix(1 -5.640780e-03 5.640780e-03 1 -1.1749 1.115)" class="st62" cx="197.1" cy="208.8" rx="74.2" ry="10"/>
		<path class="st63" d="M270.5,208.4c0,5.5-33,10.1-73.7,10.3s-73.8-4-73.9-9.5c0-5.5,33-10.1,73.7-10.3
			C237.4,198.7,270.5,203,270.5,208.4z"/>
		<path class="st64" d="M269.7,208.4c0,5.4-32.8,10-73.3,10.3c-40.5,0.2-73.4-4-73.4-9.4c0-5.4,32.8-10,73.3-10.3
			C236.8,198.8,269.7,203,269.7,208.4z"/>
		
			<ellipse transform="matrix(1 -5.641550e-03 5.641550e-03 1 -1.1751 1.1088)" class="st65" cx="195.9" cy="208.9" rx="72.9" ry="9.8"/>
		
			<ellipse transform="matrix(1 -5.641052e-03 5.641052e-03 1 -1.1751 1.1065)" class="st66" cx="195.6" cy="208.9" rx="72.5" ry="9.7"/>
		
			<ellipse transform="matrix(1 -5.640547e-03 5.640547e-03 1 -1.175 1.1043)" class="st67" cx="195.2" cy="208.9" rx="72.1" ry="9.7"/>
		
			<ellipse transform="matrix(1 -5.641111e-03 5.641111e-03 1 -1.1751 1.1023)" class="st68" cx="194.8" cy="208.9" rx="71.6" ry="9.6"/>
		
			<ellipse transform="matrix(1 -5.640603e-03 5.640603e-03 1 -1.175 1.1001)" class="st68" cx="194.4" cy="208.9" rx="71.2" ry="9.6"/>
		
			<ellipse transform="matrix(1 -5.641523e-03 5.641523e-03 1 -1.1752 1.0981)" class="st69" cx="194.1" cy="208.9" rx="70.8" ry="9.5"/>
		
			<ellipse transform="matrix(1 -5.640470e-03 5.640470e-03 1 -1.175 1.0958)" class="st70" cx="193.7" cy="208.9" rx="70.3" ry="9.4"/>
		
			<ellipse transform="matrix(1 -5.641041e-03 5.641041e-03 1 -1.1752 1.0938)" class="st71" cx="193.3" cy="208.9" rx="69.9" ry="9.4"/>
		
			<ellipse transform="matrix(1 -5.640889e-03 5.640889e-03 1 -1.1751 1.0916)" class="st72" cx="192.9" cy="208.9" rx="69.5" ry="9.3"/>
		
			<ellipse transform="matrix(1 -5.641284e-03 5.641284e-03 1 -1.1752 1.0896)" class="st73" cx="192.6" cy="208.9" rx="69.1" ry="9.3"/>
		
			<ellipse transform="matrix(1 -5.640758e-03 5.640758e-03 1 -1.1752 1.0874)" class="st74" cx="192.2" cy="208.9" rx="68.6" ry="9.2"/>
		
			<ellipse transform="matrix(1 -5.640967e-03 5.640967e-03 1 -1.1752 1.0853)" class="st75" cx="191.8" cy="208.9" rx="68.2" ry="9.2"/>
		
			<ellipse transform="matrix(1 -5.640806e-03 5.640806e-03 1 -1.1752 1.0831)" class="st76" cx="191.4" cy="208.9" rx="67.8" ry="9.1"/>
		<ellipse transform="matrix(1 -5.641410e-03 5.641410e-03 1 -1.1753 1.0811)" class="st76" cx="191" cy="208.9" rx="67.3" ry="9"/>
		<path class="st77" d="M257.6,208.5c0,5-29.9,9.1-66.8,9.4c-36.9,0.2-66.9-3.6-66.9-8.6s29.9-9.1,66.8-9.4
			C227.6,199.7,257.5,203.5,257.6,208.5z"/>
		
			<ellipse transform="matrix(1 -5.641470e-03 5.641470e-03 1 -1.1754 1.0769)" class="st78" cx="190.3" cy="208.9" rx="66.5" ry="8.9"/>
		<path class="st79" d="M255.9,208.5c0,4.9-29.5,9-66,9.2c-36.5,0.2-66.1-3.6-66.1-8.5c0-4.9,29.5-9,66-9.2S255.9,203.6,255.9,208.5
			z"/>
		
			<ellipse transform="matrix(1 -5.641338e-03 5.641338e-03 1 -1.1754 1.0726)" class="st80" cx="189.5" cy="208.9" rx="65.6" ry="8.8"/>
		
			<ellipse transform="matrix(1 -5.640792e-03 5.640792e-03 1 -1.1753 1.0704)" class="st81" cx="189.2" cy="208.9" rx="65.2" ry="8.7"/>
		<path class="st82" d="M253.5,208.5c0,4.8-28.9,8.9-64.7,9.1c-35.8,0.2-64.8-3.5-64.8-8.3s28.9-8.9,64.7-9.1
			C224.5,200,253.5,203.7,253.5,208.5z"/>
		
			<ellipse transform="matrix(1 -5.640646e-03 5.640646e-03 1 -1.1753 1.0661)" class="st83" cx="188.4" cy="208.9" rx="64.3" ry="8.6"/>
		
			<ellipse transform="matrix(1 -5.641671e-03 5.641671e-03 1 -1.1755 1.0641)" class="st84" cx="188" cy="208.9" rx="63.9" ry="8.6"/>
		
			<ellipse transform="matrix(1 -5.641503e-03 5.641503e-03 1 -1.1755 1.062)" class="st85" cx="187.7" cy="208.9" rx="63.4" ry="8.5"/>
		<path class="st86" d="M250.3,208.5c0,4.7-28.2,8.6-63,8.8c-34.8,0.2-63-3.4-63.1-8.1c0-4.7,28.2-8.6,63-8.8
			C222,200.2,250.3,203.9,250.3,208.5z"/>
		
			<ellipse transform="matrix(1 -5.640766e-03 5.640766e-03 1 -1.1754 1.0576)" class="st87" cx="186.9" cy="208.9" rx="62.6" ry="8.4"/>
		
			<ellipse transform="matrix(1 -5.641404e-03 5.641404e-03 1 -1.1755 1.0556)" class="st88" cx="186.5" cy="208.9" rx="62.1" ry="8.3"/>
		
			<ellipse transform="matrix(1 -5.641229e-03 5.641229e-03 1 -1.1755 1.0534)" class="st89" cx="186.1" cy="208.9" rx="61.7" ry="8.3"/>
		
			<ellipse transform="matrix(1 -5.641683e-03 5.641683e-03 1 -1.1756 1.0514)" class="st90" cx="185.8" cy="208.9" rx="61.3" ry="8.2"/>
		
			<ellipse transform="matrix(1 -5.640675e-03 5.640675e-03 1 -1.1754 1.0491)" class="st91" cx="185.4" cy="208.9" rx="60.9" ry="8.2"/>
		
			<ellipse transform="matrix(1 -5.641758e-03 5.641758e-03 1 -1.1757 1.0472)" class="st92" cx="185" cy="208.9" rx="60.4" ry="8.1"/>
		
			<ellipse transform="matrix(1 -5.640950e-03 5.640950e-03 1 -1.1755 1.0449)" class="st93" cx="184.6" cy="208.9" rx="60" ry="8.1"/>
		
			<ellipse transform="matrix(1 -5.640762e-03 5.640762e-03 1 -1.1755 1.0427)" class="st94" cx="184.3" cy="208.9" rx="59.6" ry="8"/>
		
			<ellipse transform="matrix(1 -5.641441e-03 5.641441e-03 1 -1.1757 1.0407)" class="st95" cx="183.9" cy="208.9" rx="59.1" ry="7.9"/>
		
			<ellipse transform="matrix(1 -5.640610e-03 5.640610e-03 1 -1.1755 1.0384)" class="st96" cx="183.5" cy="208.9" rx="58.7" ry="7.9"/>
		<path class="st97" d="M241.4,208.6c0,4.3-26,8-58.2,8.2c-32.2,0.2-58.3-3.2-58.3-7.5c0-4.3,26-8,58.2-8.2
			C215.3,200.9,241.4,204.3,241.4,208.6z"/>
		<path class="st98" d="M240.6,208.6c0,4.3-25.8,7.9-57.8,8.1c-31.9,0.2-57.9-3.1-57.9-7.4s25.8-7.9,57.8-8.1
			C214.7,201,240.6,204.3,240.6,208.6z"/>
		
			<ellipse transform="matrix(1 -5.641588e-03 5.641588e-03 1 -1.1758 1.0322)" class="st99" cx="182.4" cy="208.9" rx="57.4" ry="7.7"/>
		<path class="st100" d="M239,208.6c0,4.2-25.5,7.8-56.9,8c-31.5,0.2-57-3.1-57-7.3c0-4.2,25.5-7.8,56.9-8
			C213.4,201.1,238.9,204.4,239,208.6z"/>
		
			<ellipse transform="matrix(1 -5.641440e-03 5.641440e-03 1 -1.1758 1.028)" class="st101" cx="181.6" cy="208.9" rx="56.5" ry="7.6"/>
		
			<ellipse transform="matrix(1 -5.640800e-03 5.640800e-03 1 -1.1756 1.0257)" class="st102" cx="181.3" cy="208.9" rx="56.1" ry="7.5"/>
		
			<ellipse transform="matrix(1 -5.641293e-03 5.641293e-03 1 -1.1758 1.0237)" class="st103" cx="180.9" cy="208.9" rx="55.7" ry="7.5"/>
		<path class="st104" d="M235.7,208.6c0,4.1-24.7,7.6-55.2,7.7c-30.5,0.2-55.3-3-55.3-7.1s24.7-7.6,55.2-7.7
			S235.7,204.5,235.7,208.6z"/>
		<path class="st105" d="M234.9,208.6c0,4.1-24.5,7.5-54.8,7.7c-30.3,0.2-54.8-3-54.9-7c0-4.1,24.5-7.5,54.8-7.7
			C210.3,201.4,234.9,204.6,234.9,208.6z"/>
		<path class="st106" d="M234.1,208.6c0,4-24.3,7.4-54.3,7.6c-30,0.2-54.4-3-54.4-7c0-4,24.3-7.4,54.3-7.6
			C209.7,201.5,234.1,204.6,234.1,208.6z"/>
		
			<ellipse transform="matrix(1 -5.641451e-03 5.641451e-03 1 -1.1759 1.0152)" class="st107" cx="179.4" cy="208.9" rx="53.9" ry="7.2"/>
		
			<ellipse transform="matrix(1 -5.641248e-03 5.641248e-03 1 -1.1758 1.013)" class="st108" cx="179" cy="208.9" rx="53.5" ry="7.2"/>
		<path class="st109" d="M231.7,208.6c0,3.9-23.7,7.3-53,7.4c-29.3,0.2-53.1-2.9-53.1-6.8c0-3.9,23.7-7.3,53-7.4
			C207.9,201.7,231.7,204.7,231.7,208.6z"/>
		
			<ellipse transform="matrix(1 -5.640600e-03 5.640600e-03 1 -1.1757 1.0087)" class="st110" cx="178.2" cy="208.9" rx="52.7" ry="7.1"/>
		
			<ellipse transform="matrix(1 -5.641360e-03 5.641360e-03 1 -1.1759 1.0067)" class="st111" cx="177.9" cy="208.9" rx="52.2" ry="7"/>
		
			<ellipse transform="matrix(1 -5.641163e-03 5.641163e-03 1 -1.1759 1.0045)" class="st112" cx="177.5" cy="208.9" rx="51.8" ry="7"/>
		<path class="st113" d="M228.5,208.7c0,3.8-23,7-51.3,7.2c-28.4,0.2-51.4-2.8-51.4-6.6c0-3.8,23-7,51.3-7.2
			C205.4,201.9,228.4,204.9,228.5,208.7z"/>
		<path class="st114" d="M227.7,208.7c0,3.8-22.8,7-50.9,7.1c-28.1,0.2-50.9-2.8-51-6.5c0-3.8,22.8-7,50.9-7.1
			C204.8,202,227.6,204.9,227.7,208.7z"/>
		<path class="st115" d="M226.8,208.7c0,3.7-22.6,6.9-50.5,7.1c-27.9,0.2-50.5-2.8-50.5-6.5c0-3.7,22.6-6.9,50.5-7.1
			C204.2,202,226.8,204.9,226.8,208.7z"/>
		<path class="st116" d="M226,208.7c0,3.7-22.4,6.8-50,7c-27.6,0.2-50.1-2.7-50.1-6.4c0-3.7,22.4-6.8,50-7
			C203.6,202.1,226,205,226,208.7z"/>
		
			<ellipse transform="matrix(1 -5.641882e-03 5.641882e-03 1 -1.1761 0.994)" class="st117" cx="175.6" cy="209" rx="49.6" ry="6.7"/>
		<path class="st118" d="M224.4,208.7c0,3.6-22,6.7-49.2,6.9c-27.2,0.2-49.2-2.7-49.2-6.3c0-3.6,22-6.7,49.2-6.9
			C202.4,202.2,224.4,205,224.4,208.7z"/>
		
			<ellipse transform="matrix(1 -5.641970e-03 5.641970e-03 1 -1.1762 0.9898)" class="st119" cx="174.8" cy="209" rx="48.8" ry="6.5"/>
		
			<ellipse transform="matrix(1 -5.640441e-03 5.640441e-03 1 -1.1759 0.9874)" class="st120" cx="174.5" cy="209" rx="48.3" ry="6.5"/>
		<path class="st121" d="M222,208.7c0,3.6-21.4,6.6-47.9,6.7c-26.5,0.1-47.9-2.6-47.9-6.2c0-3.6,21.4-6.6,47.9-6.7
			C200.5,202.4,222,205.1,222,208.7z"/>
		<path class="st122" d="M221.2,208.7c0,3.5-21.2,6.5-47.4,6.6c-26.2,0.1-47.5-2.6-47.5-6.1c0-3.5,21.2-6.5,47.4-6.6
			S221.2,205.2,221.2,208.7z"/>
		<path class="st123" d="M220.4,208.7c0,3.5-21,6.4-47,6.6c-26,0.1-47.1-2.6-47.1-6c0-3.5,21-6.4,47-6.6
			C199.3,202.5,220.4,205.2,220.4,208.7z"/>
		
			<ellipse transform="matrix(1 -5.641409e-03 5.641409e-03 1 -1.1761 0.9791)" class="st124" cx="173" cy="209" rx="46.6" ry="6.3"/>
		<path class="st125" d="M218.8,208.7c0,3.4-20.6,6.3-46.1,6.5c-25.5,0.1-46.2-2.5-46.2-5.9c0-3.4,20.6-6.3,46.1-6.5
			C198.1,202.6,218.7,205.3,218.8,208.7z"/>
		<path class="st126" d="M218,208.7c0,3.4-20.4,6.3-45.7,6.4c-25.3,0.1-45.8-2.5-45.8-5.9c0-3.4,20.4-6.3,45.7-6.4
			C197.4,202.7,217.9,205.3,218,208.7z"/>
		<path class="st127" d="M217.1,208.7c0,3.4-20.3,6.2-45.3,6.3c-25,0.1-45.3-2.5-45.3-5.8c0-3.4,20.3-6.2,45.3-6.3
			C196.8,202.8,217.1,205.4,217.1,208.7z"/>
		<path class="st128" d="M216.3,208.7c0,3.3-20.1,6.1-44.8,6.3c-24.8,0.1-44.9-2.4-44.9-5.8s20.1-6.1,44.8-6.3
			S216.3,205.4,216.3,208.7z"/>
		<path class="st129" d="M215.5,208.7c0,3.3-19.9,6.1-44.4,6.2c-24.6,0.1-44.5-2.4-44.5-5.7c0-3.3,19.9-6.1,44.4-6.2
			C195.6,202.9,215.5,205.4,215.5,208.7z"/>
		
			<ellipse transform="matrix(1 -5.641688e-03 5.641688e-03 1 -1.1763 0.9664)" class="st130" cx="170.7" cy="209" rx="44" ry="5.9"/>
		
			<ellipse transform="matrix(1 -5.639993e-03 5.639993e-03 1 -1.176 0.9639)" class="st131" cx="170.3" cy="209" rx="43.6" ry="5.9"/>
		
			<ellipse transform="matrix(1 -5.640919e-03 5.640919e-03 1 -1.1762 0.962)" class="st132" cx="169.9" cy="209" rx="43.2" ry="5.8"/>
		
			<ellipse transform="matrix(1 -5.640660e-03 5.640660e-03 1 -1.1761 0.9598)" class="st133" cx="169.6" cy="209" rx="42.7" ry="5.7"/>
		<path class="st134" d="M211.5,208.8c0,3.1-18.9,5.8-42.3,5.9c-23.4,0.1-42.3-2.3-42.3-5.4s18.9-5.8,42.3-5.9
			C192.5,203.2,211.5,205.6,211.5,208.8z"/>
		<path class="st135" d="M210.7,208.8c0,3.1-18.7,5.7-41.8,5.9c-23.1,0.1-41.9-2.3-41.9-5.4s18.7-5.7,41.8-5.9
			S210.7,205.7,210.7,208.8z"/>
		<path class="st136" d="M209.9,208.8c0,3.1-18.5,5.7-41.4,5.8c-22.9,0.1-41.4-2.3-41.5-5.3c0-3.1,18.5-5.7,41.4-5.8
			C191.3,203.3,209.9,205.7,209.9,208.8z"/>
		<path class="st137" d="M209.1,208.8c0,3-18.3,5.6-41,5.7c-22.6,0.1-41-2.2-41-5.3c0-3,18.3-5.6,41-5.7
			C190.7,203.4,209,205.7,209.1,208.8z"/>
		<path class="st138" d="M208.3,208.8c0,3-18.1,5.5-40.5,5.7c-22.4,0.1-40.6-2.2-40.6-5.2c0-3,18.1-5.5,40.5-5.7
			C190.1,203.4,208.2,205.8,208.3,208.8z"/>
		
			<ellipse transform="matrix(1 -5.640609e-03 5.640609e-03 1 -1.1762 0.947)" class="st139" cx="167.3" cy="209" rx="40.1" ry="5.4"/>
		
			<ellipse transform="matrix(1 -5.641612e-03 5.641612e-03 1 -1.1765 0.9451)" class="st140" cx="166.9" cy="209" rx="39.7" ry="5.3"/>
		<path class="st141" d="M205.8,208.8c0,2.9-17.6,5.4-39.2,5.5c-21.7,0.1-39.3-2.1-39.3-5.1c0-2.9,17.6-5.4,39.2-5.5
			C188.2,203.6,205.8,205.9,205.8,208.8z"/>
		<path class="st142" d="M205,208.8c0,2.9-17.4,5.3-38.8,5.4c-21.5,0.1-38.9-2.1-38.9-5c0-2.9,17.4-5.3,38.8-5.4
			C187.6,203.7,205,205.9,205,208.8z"/>
		
			<ellipse transform="matrix(1 -5.640466e-03 5.640466e-03 1 -1.1763 0.9385)" class="st143" cx="165.8" cy="209" rx="38.4" ry="5.2"/>
		<path class="st144" d="M203.4,208.8c0,2.8-17,5.2-37.9,5.3c-21,0.1-38-2.1-38-4.9s17-5.2,37.9-5.3S203.4,206,203.4,208.8z"/>
		<path class="st145" d="M202.6,208.8c0,2.8-16.8,5.1-37.5,5.3c-20.7,0.1-37.6-2-37.6-4.8c0-2.8,16.8-5.1,37.5-5.3
			C185.8,203.9,202.6,206,202.6,208.8z"/>
		<path class="st146" d="M201.8,208.8c0,2.8-16.6,5.1-37.1,5.2s-37.1-2-37.1-4.8c0-2.8,16.6-5.1,37.1-5.2
			C185.1,203.9,201.8,206.1,201.8,208.8z"/>
		
			<ellipse transform="matrix(1 -5.641687e-03 5.641687e-03 1 -1.1766 0.9302)" class="st147" cx="164.3" cy="209" rx="36.7" ry="4.9"/>
		
			<ellipse transform="matrix(1 -5.642117e-03 5.642117e-03 1 -1.1767 0.9282)" class="st148" cx="163.9" cy="209" rx="36.3" ry="4.9"/>
		
			<ellipse transform="matrix(1 -5.640399e-03 5.640399e-03 1 -1.1764 0.9257)" class="st149" cx="163.5" cy="209" rx="35.8" ry="4.8"/>
		
			<ellipse transform="matrix(1 -5.641520e-03 5.641520e-03 1 -1.1766 0.9238)" class="st150" cx="163.2" cy="209" rx="35.4" ry="4.8"/>
		
			<ellipse transform="matrix(1 -5.640859e-03 5.640859e-03 1 -1.1765 0.9216)" class="st151" cx="162.8" cy="209" rx="35" ry="4.7"/>
		<path class="st152" d="M196.9,208.8c0,2.6-15.4,4.7-34.5,4.8c-19.1,0.1-34.5-1.9-34.6-4.4c0-2.6,15.4-4.7,34.5-4.8
			C181.5,204.3,196.9,206.3,196.9,208.8z"/>
		<path class="st153" d="M196.1,208.8c0,2.5-15.2,4.7-34.1,4.8c-18.8,0.1-34.1-1.9-34.1-4.4c0-2.5,15.2-4.7,34.1-4.8
			S196.1,206.3,196.1,208.8z"/>
		
			<ellipse transform="matrix(1 -5.639892e-03 5.639892e-03 1 -1.1763 0.915)" class="st154" cx="161.7" cy="209" rx="33.7" ry="4.5"/>
		<path class="st155" d="M194.5,208.8c0,2.5-14.9,4.5-33.2,4.6s-33.2-1.8-33.3-4.3c0-2.5,14.9-4.5,33.2-4.6
			C179.6,204.5,194.5,206.4,194.5,208.8z"/>
		<path class="st156" d="M193.7,208.8c0,2.4-14.7,4.5-32.8,4.6c-18.1,0.1-32.8-1.8-32.8-4.2s14.7-4.5,32.8-4.6
			C179,204.5,193.7,206.4,193.7,208.8z"/>
		
			<ellipse transform="matrix(1 -5.641594e-03 5.641594e-03 1 -1.1767 0.9089)" class="st157" cx="160.5" cy="209" rx="32.4" ry="4.3"/>
		<path class="st158" d="M192.1,208.9c0,2.4-14.3,4.4-31.9,4.5c-17.6,0.1-31.9-1.7-32-4.1c0-2.4,14.3-4.4,31.9-4.5
			C177.8,204.7,192.1,206.5,192.1,208.9z"/>
		<path class="st159" d="M191.3,208.9c0,2.3-14.1,4.3-31.5,4.4c-17.4,0.1-31.5-1.7-31.5-4.1c0-2.3,14.1-4.3,31.5-4.4
			C177.1,204.7,191.3,206.5,191.3,208.9z"/>
		
			<ellipse transform="matrix(1 -5.639762e-03 5.639762e-03 1 -1.1764 0.9023)" class="st160" cx="159.4" cy="209" rx="31.1" ry="4.2"/>
		<path class="st161" d="M189.7,208.9c0,2.3-13.7,4.2-30.6,4.3c-16.9,0.1-30.7-1.7-30.7-3.9c0-2.3,13.7-4.2,30.6-4.3
			C175.9,204.8,189.6,206.6,189.7,208.9z"/>
		<path class="st162" d="M188.9,208.9c0,2.2-13.5,4.1-30.2,4.2c-16.7,0.1-30.2-1.6-30.2-3.9c0-2.2,13.5-4.1,30.2-4.2
			C175.3,204.9,188.8,206.6,188.9,208.9z"/>
		<path class="st163" d="M188,208.9c0,2.2-13.3,4.1-29.8,4.2c-16.4,0.1-29.8-1.6-29.8-3.8c0-2.2,13.3-4.1,29.8-4.2
			S188,206.7,188,208.9z"/>
		<path class="st164" d="M187.2,208.9c0,2.2-13.1,4-29.3,4.1c-16.2,0.1-29.4-1.6-29.4-3.8c0-2.2,13.1-4,29.3-4.1
			C174.1,205,187.2,206.7,187.2,208.9z"/>
		
			<ellipse transform="matrix(1 -5.642220e-03 5.642220e-03 1 -1.177 0.892)" class="st165" cx="157.5" cy="209.1" rx="28.9" ry="3.9"/>
		<path class="st166" d="M185.6,208.9c0,2.1-12.7,3.9-28.5,4c-15.7,0.1-28.5-1.6-28.5-3.7c0-2.1,12.7-3.9,28.5-4
			C172.8,205.1,185.6,206.8,185.6,208.9z"/>
		
			<ellipse transform="matrix(1 -5.641475e-03 5.641475e-03 1 -1.1769 0.8877)" class="st167" cx="156.8" cy="209.1" rx="28.1" ry="3.8"/>
		
			<ellipse transform="matrix(1 -5.640186e-03 5.640186e-03 1 -1.1766 0.8853)" class="st168" cx="156.4" cy="209.1" rx="27.6" ry="3.7"/>
		<path class="st169" d="M183.2,208.9c0,2-12.2,3.7-27.2,3.8s-27.2-1.5-27.2-3.5c0-2,12.2-3.7,27.2-3.8S183.2,206.9,183.2,208.9z"/>
		<path class="st170" d="M182.4,208.9c0,2-12,3.7-26.7,3.7c-14.8,0.1-26.8-1.5-26.8-3.4c0-2,12-3.7,26.7-3.7
			C170.4,205.4,182.4,206.9,182.4,208.9z"/>
		<path class="st171" d="M181.6,208.9c0,2-11.8,3.6-26.3,3.7c-14.5,0.1-26.3-1.4-26.3-3.4c0-2,11.8-3.6,26.3-3.7
			S181.6,207,181.6,208.9z"/>
		<path class="st172" d="M180.8,208.9c0,1.9-11.6,3.5-25.9,3.6c-14.3,0.1-25.9-1.4-25.9-3.3c0-1.9,11.6-3.5,25.9-3.6
			C169.2,205.5,180.8,207,180.8,208.9z"/>
		<path class="st173" d="M180,208.9c0,1.9-11.4,3.5-25.4,3.6s-25.5-1.4-25.5-3.3c0-1.9,11.4-3.5,25.4-3.6
			C168.5,205.6,179.9,207,180,208.9z"/>
		<path class="st174" d="M179.1,208.9c0,1.9-11.2,3.4-25,3.5c-13.8,0.1-25-1.4-25.1-3.2c0-1.9,11.2-3.4,25-3.5
			C167.9,205.6,179.1,207.1,179.1,208.9z"/>
		<path class="st175" d="M178.3,208.9c0,1.8-11,3.4-24.6,3.4c-13.6,0.1-24.6-1.3-24.6-3.2c0-1.8,11-3.4,24.6-3.4
			C167.3,205.7,178.3,207.1,178.3,208.9z"/>
		<path class="st176" d="M177.5,208.9c0,1.8-10.8,3.3-24.1,3.4c-13.3,0.1-24.2-1.3-24.2-3.1c0-1.8,10.8-3.3,24.1-3.4
			C166.7,205.8,177.5,207.1,177.5,208.9z"/>
		<path class="st177" d="M176.7,208.9c0,1.8-10.6,3.2-23.7,3.3c-13.1,0.1-23.7-1.3-23.8-3.1c0-1.8,10.6-3.2,23.7-3.3
			C166.1,205.8,176.7,207.2,176.7,208.9z"/>
		
			<ellipse transform="matrix(1 -5.640311e-03 5.640311e-03 1 -1.1768 0.8641)" class="st178" cx="152.6" cy="209.1" rx="23.3" ry="3.1"/>
		<path class="st179" d="M175.1,208.9c0,1.7-10.2,3.1-22.9,3.2c-12.6,0.1-22.9-1.2-22.9-2.9c0-1.7,10.2-3.1,22.9-3.2
			C164.8,205.9,175.1,207.3,175.1,208.9z"/>
		<path class="st180" d="M174.3,209c0,1.7-10,3.1-22.4,3.1c-12.4,0.1-22.4-1.2-22.5-2.9c0-1.7,10-3.1,22.4-3.1
			C164.2,206,174.3,207.3,174.3,209z"/>
		<path class="st181" d="M173.5,209c0,1.6-9.8,3-22,3.1c-12.2,0.1-22-1.2-22-2.8c0-1.6,9.8-3,22-3.1
			C163.6,206.1,173.5,207.3,173.5,209z"/>
		<path class="st182" d="M172.7,209c0,1.6-9.6,3-21.6,3c-11.9,0.1-21.6-1.2-21.6-2.8c0-1.6,9.6-3,21.6-3
			C163,206.1,172.7,207.4,172.7,209z"/>
		<path class="st183" d="M171.9,209c0,1.6-9.5,2.9-21.1,3s-21.2-1.2-21.2-2.7c0-1.6,9.5-2.9,21.1-3S171.9,207.4,171.9,209z"/>
		<path class="st184" d="M171.1,209c0,1.5-9.3,2.8-20.7,2.9c-11.4,0.1-20.7-1.1-20.7-2.7c0-1.5,9.3-2.8,20.7-2.9
			C161.8,206.2,171.1,207.4,171.1,209z"/>
		<path class="st185" d="M170.3,209c0,1.5-9.1,2.8-20.3,2.8s-20.3-1.1-20.3-2.6s9.1-2.8,20.3-2.8S170.2,207.5,170.3,209z"/>
		
			<ellipse transform="matrix(1 -5.641630e-03 5.641630e-03 1 -1.1772 0.8473)" class="st186" cx="149.6" cy="209.1" rx="19.9" ry="2.7"/>
		<path class="st187" d="M168.6,209c0,1.4-8.7,2.7-19.4,2.7c-10.7,0.1-19.4-1.1-19.4-2.5c0-1.4,8.7-2.7,19.4-2.7
			C159.9,206.4,168.6,207.5,168.6,209z"/>
		<path class="st188" d="M167.8,209c0,1.4-8.5,2.6-19,2.7c-10.5,0.1-19-1-19-2.4c0-1.4,8.5-2.6,19-2.7
			C159.3,206.5,167.8,207.6,167.8,209z"/>
		<path class="st189" d="M167,209c0,1.4-8.3,2.5-18.5,2.6c-10.2,0.1-18.6-1-18.6-2.4c0-1.4,8.3-2.5,18.5-2.6
			C158.7,206.5,167,207.6,167,209z"/>
		<path class="st190" d="M166.2,209c0,1.3-8.1,2.5-18.1,2.5c-10,0.1-18.1-1-18.1-2.3c0-1.3,8.1-2.5,18.1-2.5
			C158.1,206.6,166.2,207.7,166.2,209z"/>
		<path class="st191" d="M165.4,209c0,1.3-7.9,2.4-17.7,2.5s-17.7-1-17.7-2.3s7.9-2.4,17.7-2.5C157.5,206.7,165.4,207.7,165.4,209z"
			/>
		<path class="st192" d="M164.6,209c0,1.3-7.7,2.4-17.2,2.4c-9.5,0.1-17.3-0.9-17.3-2.2c0-1.3,7.7-2.4,17.2-2.4
			C156.9,206.7,164.6,207.7,164.6,209z"/>
		<path class="st193" d="M163.8,209c0,1.2-7.5,2.3-16.8,2.4c-9.3,0.1-16.8-0.9-16.8-2.2c0-1.2,7.5-2.3,16.8-2.4
			C156.2,206.8,163.8,207.8,163.8,209z"/>
		<path class="st194" d="M163,209c0,1.2-7.3,2.2-16.4,2.3c-9.1,0.1-16.4-0.9-16.4-2.1c0-1.2,7.3-2.2,16.4-2.3
			C155.6,206.9,163,207.8,163,209z"/>
		<path class="st195" d="M162.2,209c0,1.2-7.1,2.2-16,2.2c-8.8,0-16-0.9-16-2.1c0-1.2,7.1-2.2,16-2.2
			C155,206.9,162.2,207.8,162.2,209z"/>
		<path class="st196" d="M161.4,209c0,1.2-6.9,2.1-15.5,2.2c-8.6,0-15.5-0.8-15.5-2c0-1.2,6.9-2.1,15.5-2.2
			C154.4,207,161.4,207.9,161.4,209z"/>
		<path class="st197" d="M160.6,209c0,1.1-6.8,2.1-15.1,2.1c-8.3,0-15.1-0.8-15.1-1.9c0-1.1,6.8-2.1,15.1-2.1
			C153.8,207,160.5,207.9,160.6,209z"/>
		<path class="st198" d="M159.7,209c0,1.1-6.6,2-14.7,2.1c-8.1,0-14.7-0.8-14.7-1.9c0-1.1,6.6-2,14.7-2.1
			C153.2,207.1,159.7,207.9,159.7,209z"/>
		<path class="st199" d="M158.9,209c0,1.1-6.4,1.9-14.2,2s-14.2-0.8-14.3-1.8c0-1.1,6.4-1.9,14.2-2S158.9,208,158.9,209z"/>
		<path class="st200" d="M158.1,209c0,1-6.2,1.9-13.8,1.9c-7.6,0-13.8-0.8-13.8-1.8c0-1,6.2-1.9,13.8-1.9
			C151.9,207.2,158.1,208,158.1,209z"/>
		<path class="st201" d="M157.3,209c0,1-6,1.8-13.4,1.9c-7.4,0-13.4-0.7-13.4-1.7c0-1,6-1.8,13.4-1.9S157.3,208.1,157.3,209z"/>
		<path class="st202" d="M156.5,209c0,1-5.8,1.8-12.9,1.8c-7.2,0-13-0.7-13-1.7c0-1,5.8-1.8,12.9-1.8
			C150.7,207.3,156.5,208.1,156.5,209z"/>
		<path class="st203" d="M155.7,209.1c0,0.9-5.6,1.7-12.5,1.8c-6.9,0-12.5-0.7-12.5-1.6c0-0.9,5.6-1.7,12.5-1.8
			C150.1,207.4,155.7,208.1,155.7,209.1z"/>
		<path class="st204" d="M154.9,209.1c0,0.9-5.4,1.7-12.1,1.7c-6.7,0-12.1-0.7-12.1-1.6c0-0.9,5.4-1.7,12.1-1.7
			C149.5,207.5,154.9,208.2,154.9,209.1z"/>
		<path class="st205" d="M154.1,209.1c0,0.9-5.2,1.6-11.6,1.6s-11.7-0.6-11.7-1.5c0-0.9,5.2-1.6,11.6-1.6
			C148.9,207.5,154.1,208.2,154.1,209.1z"/>
		<path class="st206" d="M153.3,209.1c0,0.8-5,1.5-11.2,1.6c-6.2,0-11.2-0.6-11.2-1.4c0-0.8,5-1.5,11.2-1.6
			C148.2,207.6,153.3,208.2,153.3,209.1z"/>
		<path class="st207" d="M152.5,209.1c0,0.8-4.8,1.5-10.8,1.5c-6,0-10.8-0.6-10.8-1.4s4.8-1.5,10.8-1.5
			C147.6,207.6,152.5,208.3,152.5,209.1z"/>
		<path class="st208" d="M151.7,209.1c0,0.8-4.6,1.4-10.3,1.4c-5.7,0-10.4-0.6-10.4-1.3c0-0.8,4.6-1.4,10.3-1.4
			C147,207.7,151.7,208.3,151.7,209.1z"/>
		<path class="st209" d="M150.9,209.1c0,0.7-4.4,1.4-9.9,1.4c-5.5,0-9.9-0.5-9.9-1.3c0-0.7,4.4-1.4,9.9-1.4S150.9,208.3,150.9,209.1
			z"/>
		<path class="st210" d="M150,209.1c0,0.7-4.2,1.3-9.5,1.3c-5.2,0-9.5-0.5-9.5-1.2c0-0.7,4.2-1.3,9.5-1.3
			C145.8,207.8,150,208.4,150,209.1z"/>
		<path class="st211" d="M149.2,209.1c0,0.7-4.1,1.2-9.1,1.3c-5,0-9.1-0.5-9.1-1.2c0-0.7,4.1-1.2,9.1-1.3S149.2,208.4,149.2,209.1z"
			/>
		<path class="st212" d="M148.4,209.1c0,0.6-3.9,1.2-8.6,1.2c-4.8,0-8.6-0.5-8.6-1.1s3.9-1.2,8.6-1.2
			C144.6,208,148.4,208.5,148.4,209.1z"/>
		<path class="st213" d="M147.6,209.1c0,0.6-3.7,1.1-8.2,1.1c-4.5,0-8.2-0.4-8.2-1.1s3.7-1.1,8.2-1.1
			C143.9,208,147.6,208.5,147.6,209.1z"/>
		<path class="st214" d="M146.8,209.1c0,0.6-3.5,1.1-7.8,1.1s-7.8-0.4-7.8-1c0-0.6,3.5-1.1,7.8-1.1S146.8,208.5,146.8,209.1z"/>
		<path class="st215" d="M146,209.1c0,0.5-3.3,1-7.3,1c-4.1,0-7.3-0.4-7.3-0.9c0-0.5,3.3-1,7.3-1C142.7,208.1,146,208.6,146,209.1z"
			/>
		<path class="st216" d="M145.2,209.1c0,0.5-3.1,0.9-6.9,1c-3.8,0-6.9-0.4-6.9-0.9c0-0.5,3.1-0.9,6.9-1
			C142.1,208.2,145.2,208.6,145.2,209.1z"/>
		<path class="st217" d="M144.4,209.1c0,0.5-2.9,0.9-6.5,0.9c-3.6,0-6.5-0.4-6.5-0.8c0-0.5,2.9-0.9,6.5-0.9
			C141.5,208.3,144.4,208.6,144.4,209.1z"/>
		<path class="st218" d="M143.6,209.1c0,0.4-2.7,0.8-6,0.8s-6-0.3-6-0.8s2.7-0.8,6-0.8S143.6,208.7,143.6,209.1z"/>
		<path class="st219" d="M142.8,209.1c0,0.4-2.5,0.8-5.6,0.8c-3.1,0-5.6-0.3-5.6-0.7c0-0.4,2.5-0.8,5.6-0.8
			C140.3,208.4,142.8,208.7,142.8,209.1z"/>
		<path class="st220" d="M142,209.1c0,0.4-2.3,0.7-5.2,0.7c-2.9,0-5.2-0.3-5.2-0.7c0-0.4,2.3-0.7,5.2-0.7
			C139.6,208.4,142,208.7,142,209.1z"/>
		<path class="st221" d="M141.2,209.1c0,0.4-2.1,0.6-4.7,0.7c-2.6,0-4.7-0.3-4.8-0.6s2.1-0.6,4.7-0.7
			C139,208.5,141.2,208.8,141.2,209.1z"/>
		<path class="st222" d="M140.3,209.1c0,0.3-1.9,0.6-4.3,0.6c-2.4,0-4.3-0.2-4.3-0.6c0-0.3,1.9-0.6,4.3-0.6
			C138.4,208.6,140.3,208.8,140.3,209.1z"/>
		<path class="st223" d="M139.5,209.1c0,0.3-1.7,0.5-3.9,0.5c-2.1,0-3.9-0.2-3.9-0.5c0-0.3,1.7-0.5,3.9-0.5
			C137.8,208.6,139.5,208.9,139.5,209.1z"/>
		<path class="st224" d="M138.7,209.1c0,0.3-1.5,0.5-3.4,0.5c-1.9,0-3.5-0.2-3.5-0.4s1.5-0.5,3.4-0.5
			C137.2,208.7,138.7,208.9,138.7,209.1z"/>
		<path class="st225" d="M137.9,209.1c0,0.2-1.4,0.4-3,0.4c-1.7,0-3-0.2-3-0.4c0-0.2,1.4-0.4,3-0.4
			C136.6,208.8,137.9,208.9,137.9,209.1z"/>
		<path class="st226" d="M137.1,209.2c0,0.2-1.2,0.4-2.6,0.4s-2.6-0.1-2.6-0.3c0-0.2,1.2-0.4,2.6-0.4
			C136,208.8,137.1,209,137.1,209.2z"/>
		<path class="st227" d="M136.3,209.2c0,0.2-1,0.3-2.2,0.3s-2.2-0.1-2.2-0.3s1-0.3,2.2-0.3C135.3,208.9,136.3,209,136.3,209.2z"/>
		<path class="st228" d="M135.5,209.2c0,0.1-0.8,0.2-1.7,0.2c-1,0-1.7-0.1-1.7-0.2c0-0.1,0.8-0.2,1.7-0.2
			C134.7,208.9,135.5,209,135.5,209.2z"/>
		<path class="st229" d="M134.7,209.2c0,0.1-0.6,0.2-1.3,0.2c-0.7,0-1.3-0.1-1.3-0.2c0-0.1,0.6-0.2,1.3-0.2
			C134.1,209,134.7,209.1,134.7,209.2z"/>
		<path class="st230" d="M133.9,209.2c0,0.1-0.4,0.1-0.9,0.1s-0.9,0-0.9-0.1s0.4-0.1,0.9-0.1S133.9,209.1,133.9,209.2z"/>
		<path class="st231" d="M133.1,209.2c0,0-0.2,0.1-0.4,0.1c-0.2,0-0.4,0-0.4-0.1c0,0,0.2-0.1,0.4-0.1
			C132.9,209.1,133.1,209.1,133.1,209.2z"/>
	</g>
</g>
<g class="st1">
	<g>
		<path class="st232" d="M30.8,80.5L30.8,80.5L30.8,80.5c0-0.1,0.1-0.1,0.1-0.2c0-0.1,0.1-0.1,0.1-0.2c0-0.1,0.1-0.1,0.1-0.2
			c1.1-2,2.7-3.6,4.4-4.3l0.5-0.2l0,0l61.4-26.8l61.4-26.8l0,0l0.5-0.2c1.8-0.8,3.5-0.6,4.8,0.3c0,0,0.1,0,0.1,0.1
			c0,0,0.1,0,0.1,0.1l7.1,5.2l-4.6,1.4l6.1,82.4c0.2,2.1-0.4,4.4-1.6,6.4c0,0.1-0.1,0.1-0.1,0.2c0,0.1-0.1,0.1-0.1,0.2
			c-1.1,2-2.7,3.6-4.4,4.4L44.3,175.5l0.5,5.2l-6.7-5c0,0-0.1,0-0.1-0.1c-1.3-0.9-2.2-2.5-2.4-4.6l-6.2-84.4
			C29.2,84.6,29.8,82.4,30.8,80.5z"/>
		<g>
			
				<linearGradient id="SVGID_4_" gradientUnits="userSpaceOnUse" x1="-2644.0168" y1="-162.939" x2="-2477.8464" y2="-162.939" gradientTransform="matrix(-0.8267 0.3605 7.820000e-02 1.0571 -1996.2192 1199.4803)">
				<stop  offset="0" style="stop-color:#7BDAFF"/>
				<stop  offset="1" style="stop-color:#59BDEF"/>
			</linearGradient>
			<path class="st233" d="M50,181.3l123.8-54c3.7-1.6,6.5-6.8,6.1-11.6l-6.2-83.2c-0.4-4.8-3.7-7.3-7.4-5.7l-123.8,54
				c-3.7,1.6-6.5,6.8-6.1,11.6l6.2,83.2C42.9,180.4,46.2,182.9,50,181.3z"/>
			
				<linearGradient id="SVGID_5_" gradientUnits="userSpaceOnUse" x1="-2439.0964" y1="-74.6829" x2="-2529.5596" y2="-172.7818" gradientTransform="matrix(-0.8267 0.3605 7.820000e-02 1.0571 -1996.2192 1199.4803)">
				<stop  offset="0.7677" style="stop-color:#59BDEF"/>
				<stop  offset="0.8452" style="stop-color:#55B8EB"/>
				<stop  offset="0.9318" style="stop-color:#49ABE1"/>
				<stop  offset="1" style="stop-color:#3A9BD5"/>
			</linearGradient>
			<path class="st234" d="M43,80.5l61.4-26.8l7.2,97.8l-61.2,29.5c-4,1.8-7.6-0.4-7.9-4.9l-6.2-84.4C36,87.3,39,82.3,43,80.5z"/>
			
				<linearGradient id="SVGID_6_" gradientUnits="userSpaceOnUse" x1="-5199.0518" y1="-74.7742" x2="-5289.5186" y2="-172.8765" gradientTransform="matrix(0.8267 -0.3605 7.820000e-02 1.0571 4519.7993 -1642.0094)">
				<stop  offset="0.7677" style="stop-color:#59BDEF"/>
				<stop  offset="0.8452" style="stop-color:#55B8EB"/>
				<stop  offset="0.9318" style="stop-color:#49ABE1"/>
				<stop  offset="1" style="stop-color:#3A9BD5"/>
			</linearGradient>
			<path class="st235" d="M165.8,27l-61.4,26.8l7.2,97.2l61.6-23.4c4-1.8,7-6.8,6.7-11.2l-6.2-84.4C173.4,27.4,169.9,25.2,165.8,27z
				"/>
			
				<linearGradient id="SVGID_7_" gradientUnits="userSpaceOnUse" x1="-2560.9329" y1="-20.9719" x2="-2560.9329" y2="-161.0528" gradientTransform="matrix(-0.8267 0.3605 7.820000e-02 1.0571 -1996.2192 1199.4803)">
				<stop  offset="0.7677" style="stop-color:#3A9BD5"/>
				<stop  offset="0.8386" style="stop-color:#3896D2"/>
				<stop  offset="0.9179" style="stop-color:#3189C9"/>
				<stop  offset="1" style="stop-color:#2573BA"/>
			</linearGradient>
			<path class="st236" d="M178.5,122.4c-1.2,2.3-3.1,4.2-5.3,5.1L50.5,181.1c-2.2,0.9-4.2,0.7-5.7-0.4l62.4-89.3L178.5,122.4z"/>
			
				<linearGradient id="SVGID_8_" gradientUnits="userSpaceOnUse" x1="-2616.437" y1="-230.4981" x2="-2473.5276" y2="-154.751" gradientTransform="matrix(-0.8267 0.3605 7.820000e-02 1.0571 -1996.2192 1199.4803)">
				<stop  offset="0" style="stop-color:#7BDAFF"/>
				<stop  offset="1" style="stop-color:#59BDEF"/>
			</linearGradient>
			<path class="st237" d="M37.8,85.6c1.2-2.3,3.1-4.2,5.3-5.1L165.8,27c2.2-0.9,4.2-0.7,5.7,0.4l-62.4,89.3L37.8,85.6z"/>
		</g>
	</g>
	<g>
		<path class="st232" d="M64.2,96.5L64.2,96.5L64.2,96.5c0-0.1,0.1-0.2,0.1-0.2c0-0.1,0.1-0.1,0.1-0.2c0-0.1,0.1-0.1,0.1-0.2
			c1-2.2,2.6-4.1,4.4-5l0.5-0.3l0,0l63.9-33.8L197.2,23l0,0l0.5-0.3c1.9-1,3.7-0.9,5.2,0c0,0,0.1,0,0.1,0.1c0,0,0.1,0,0.1,0.1
			l8.1,5.1l-4.8,1.8l13.3,88.2c0.3,2.3-0.1,4.8-1.2,7c0,0.1-0.1,0.1-0.1,0.2c0,0.1-0.1,0.1-0.1,0.2c-1,2.2-2.6,4.1-4.4,5L86.5,197.7
			l0.9,5.5l-7.7-4.8c0,0-0.1,0-0.1-0.1c-1.5-0.9-2.6-2.5-2.9-4.8l-13.6-90.3C62.8,101,63.2,98.7,64.2,96.5z"/>
		<g>
			
				<linearGradient id="SVGID_9_" gradientUnits="userSpaceOnUse" x1="-2903.488" y1="-258.7784" x2="-2724.1895" y2="-258.7784" gradientTransform="matrix(-0.7971 0.4219 0.1578 1.0482 -2052.7549 1573.9642)">
				<stop  offset="0" style="stop-color:#7BDAFF"/>
				<stop  offset="1" style="stop-color:#59BDEF"/>
			</linearGradient>
			<path class="st238" d="M93,203.4l128.8-68.2c3.9-2.1,6.4-7.9,5.7-13l-13.4-89c-0.8-5.1-4.6-7.6-8.4-5.5L76.8,95.9
				c-3.9,2.1-6.4,7.9-5.7,13l13.4,89C85.3,203,89.1,205.5,93,203.4z"/>
			
				<linearGradient id="SVGID_10_" gradientUnits="userSpaceOnUse" x1="-2682.3813" y1="-163.5532" x2="-2779.988" y2="-269.3986" gradientTransform="matrix(-0.7971 0.4219 0.1578 1.0482 -2052.7549 1573.9642)">
				<stop  offset="0.7677" style="stop-color:#59BDEF"/>
				<stop  offset="0.8452" style="stop-color:#55B8EB"/>
				<stop  offset="0.9318" style="stop-color:#49ABE1"/>
				<stop  offset="1" style="stop-color:#3A9BD5"/>
			</linearGradient>
			<path class="st239" d="M77.3,95.6l63.9-33.8L157,166.4l-63.4,36.7c-4.2,2.2-8.2,0.1-8.9-4.6l-13.6-90.3
				C70.3,103.5,73.2,97.8,77.3,95.6z"/>
			
				<linearGradient id="SVGID_11_" gradientUnits="userSpaceOnUse" x1="-4936.3667" y1="-163.61" x2="-5033.9785" y2="-269.461" gradientTransform="matrix(0.7971 -0.4219 0.1578 1.0482 4229.834 -1751.4624)">
				<stop  offset="0.7677" style="stop-color:#59BDEF"/>
				<stop  offset="0.8452" style="stop-color:#55B8EB"/>
				<stop  offset="0.9318" style="stop-color:#49ABE1"/>
				<stop  offset="1" style="stop-color:#3A9BD5"/>
			</linearGradient>
			<path class="st240" d="M205.1,28l-63.9,33.8l15.7,104l64.4-30.2c4.2-2.2,7-7.9,6.3-12.6L214,32.6C213.3,27.8,209.3,25.8,205.1,28
				z"/>
			
				<linearGradient id="SVGID_12_" gradientUnits="userSpaceOnUse" x1="-2813.8408" y1="-105.6004" x2="-2813.8408" y2="-256.7431" gradientTransform="matrix(-0.7971 0.4219 0.1578 1.0482 -2052.7549 1573.9642)">
				<stop  offset="0.7677" style="stop-color:#3A9BD5"/>
				<stop  offset="0.8386" style="stop-color:#3896D2"/>
				<stop  offset="0.9179" style="stop-color:#3189C9"/>
				<stop  offset="1" style="stop-color:#2573BA"/>
			</linearGradient>
			<path class="st241" d="M226.5,129.6c-1.1,2.5-3,4.7-5.2,5.9L93.5,203.1c-2.3,1.2-4.5,1.1-6.1,0.1L147.3,102L226.5,129.6z"/>
			
				<linearGradient id="SVGID_13_" gradientUnits="userSpaceOnUse" x1="-2873.7275" y1="-331.6735" x2="-2719.5293" y2="-249.9428" gradientTransform="matrix(-0.7971 0.4219 0.1578 1.0482 -2052.7549 1573.9642)">
				<stop  offset="0" style="stop-color:#7BDAFF"/>
				<stop  offset="1" style="stop-color:#59BDEF"/>
			</linearGradient>
			<path class="st242" d="M72.1,101.5c1.1-2.5,3-4.7,5.2-5.9L205.1,28c2.3-1.2,4.5-1.1,6.1-0.1l-59.9,101.2L72.1,101.5z"/>
		</g>
	</g>
</g>
<g>
	<path class="st232" d="M99.5,96.1L99.5,96.1L99.5,96.1c0-0.1,0.1-0.2,0.1-0.3c0-0.1,0.1-0.1,0.1-0.2c0-0.1,0.1-0.1,0.1-0.2
		c1-2.4,2.6-4.4,4.5-5.5l0.5-0.3l0,0l66.7-38.5l66.7-38.5l0,0l0.5-0.3c1.9-1.1,3.9-1.1,5.5-0.3c0,0,0.1,0,0.1,0.1c0,0,0.1,0,0.1,0.1
		l8.8,5.1l-5.1,2.2l17.6,93.4c0.5,2.4,0.1,5.1-1,7.5c0,0.1-0.1,0.1-0.1,0.2c0,0.1-0.1,0.1-0.1,0.2c-1,2.4-2.6,4.4-4.5,5.5L127.2,203
		l1.2,5.9l-8.3-4.8c0,0-0.1,0-0.1-0.1c-1.6-0.9-2.9-2.6-3.3-5l-18-95.7C98.2,101,98.6,98.5,99.5,96.1z"/>
	<g>
		
			<linearGradient id="SVGID_14_" gradientUnits="userSpaceOnUse" x1="-3065.5918" y1="-295.9886" x2="-2874.4587" y2="-295.9886" gradientTransform="matrix(-0.781 0.4511 0.1965 1.0417 -2070.4756 1761.17)">
			<stop  offset="0" style="stop-color:#7BDAFF"/>
			<stop  offset="1" style="stop-color:#59BDEF"/>
		</linearGradient>
		<path class="st243" d="M134.4,208.9L269,131.2c4.1-2.3,6.5-8.7,5.5-14.1l-17.8-94.3c-1-5.4-5.2-7.9-9.2-5.6L112.9,94.9
			c-4.1,2.3-6.5,8.7-5.5,14.1l17.8,94.3C126.2,208.7,130.4,211.2,134.4,208.9z"/>
		
			<linearGradient id="SVGID_15_" gradientUnits="userSpaceOnUse" x1="-2829.8882" y1="-194.4757" x2="-2933.9399" y2="-307.3103" gradientTransform="matrix(-0.781 0.4511 0.1965 1.0417 -2070.4756 1761.17)">
			<stop  offset="0.7677" style="stop-color:#59BDEF"/>
			<stop  offset="0.8452" style="stop-color:#55B8EB"/>
			<stop  offset="0.9318" style="stop-color:#49ABE1"/>
			<stop  offset="1" style="stop-color:#3A9BD5"/>
		</linearGradient>
		<path class="st244" d="M113.5,94.6l66.7-38.5l20.9,110.8L135,208.6c-4.4,2.5-8.7,0.5-9.6-4.6l-18-95.7
			C106.3,103.3,109.1,97.1,113.5,94.6z"/>
		
			<linearGradient id="SVGID_16_" gradientUnits="userSpaceOnUse" x1="-4771.8989" y1="-194.4969" x2="-4875.9497" y2="-307.3304" gradientTransform="matrix(0.781 -0.4511 0.1965 1.0417 4085.5176 -1794.6398)">
			<stop  offset="0.7677" style="stop-color:#59BDEF"/>
			<stop  offset="0.8452" style="stop-color:#55B8EB"/>
			<stop  offset="0.9318" style="stop-color:#49ABE1"/>
			<stop  offset="1" style="stop-color:#3A9BD5"/>
		</linearGradient>
		<path class="st245" d="M246.9,17.6l-66.7,38.5L201,166.2l67.4-34.7c4.4-2.5,7.1-8.7,6.2-13.7l-18-95.7
			C255.6,17.1,251.3,15,246.9,17.6z"/>
		
			<linearGradient id="SVGID_17_" gradientUnits="userSpaceOnUse" x1="-2970.0239" y1="-132.7015" x2="-2970.0239" y2="-293.8188" gradientTransform="matrix(-0.781 0.4511 0.1965 1.0417 -2070.4756 1761.17)">
			<stop  offset="0.7677" style="stop-color:#3A9BD5"/>
			<stop  offset="0.8386" style="stop-color:#3896D2"/>
			<stop  offset="0.9179" style="stop-color:#3189C9"/>
			<stop  offset="1" style="stop-color:#2573BA"/>
		</linearGradient>
		<path class="st246" d="M273.8,125c-1.1,2.7-3,5.2-5.3,6.5L135,208.6c-2.4,1.4-4.7,1.4-6.5,0.3l59.8-110.2L273.8,125z"/>
		
			<linearGradient id="SVGID_18_" gradientUnits="userSpaceOnUse" x1="-3033.8701" y1="-373.6961" x2="-2869.4929" y2="-286.5703" gradientTransform="matrix(-0.781 0.4511 0.1965 1.0417 -2070.4756 1761.17)">
			<stop  offset="0" style="stop-color:#7BDAFF"/>
			<stop  offset="1" style="stop-color:#59BDEF"/>
		</linearGradient>
		<path class="st247" d="M108.1,101.1c1.1-2.7,3-5.2,5.3-6.5l133.4-77.1c2.4-1.4,4.7-1.4,6.5-0.3l-59.8,110.2L108.1,101.1z"/>
	</g>
</g>
</svg>
