<?xml version="1.0" encoding="utf-8"?>
<!-- Generator: Adobe Illustrator 23.0.3, SVG Export Plug-In . SVG Version: 6.00 Build 0)  -->
<svg version="1.1" id="Layer_1" xmlns="http://www.w3.org/2000/svg" xmlns:xlink="http://www.w3.org/1999/xlink" x="0px" y="0px"
	 viewBox="0 0 10.4 15.6" style="enable-background:new 0 0 10.4 15.6;" xml:space="preserve">
<style type="text/css">
	.st0{fill:#FFF200;}
</style>
<g>
	<path class="st0" d="M3,14.8C2.9,14.9,2.7,15,2.5,15S2.1,14.9,2,14.8l-0.7-0.7c-0.1-0.2-0.2-0.3-0.2-0.6s0.1-0.4,0.2-0.6l4.8-5.1
		L1.2,2.6C1.1,2.5,1,2.3,1,2.1s0.1-0.4,0.2-0.6L2,0.8c0.1-0.2,0.3-0.2,0.5-0.2S2.9,0.6,3,0.8l6.1,6.4c0.2,0.2,0.3,0.3,0.3,0.6
		S9.3,8.2,9.1,8.3L3,14.8z"/>
</g>
</svg>
