<?xml version="1.0" encoding="utf-8"?>
<!-- Generator: Adobe Illustrator 23.0.3, SVG Export Plug-In . SVG Version: 6.00 Build 0)  -->
<svg version="1.1" id="Layer_1" xmlns="http://www.w3.org/2000/svg" xmlns:xlink="http://www.w3.org/1999/xlink" x="0px" y="0px"
	 viewBox="0 0 100 100" style="enable-background:new 0 0 100 100;" xml:space="preserve">
<style type="text/css">
	.st0{opacity:0.5;}
	.st1{clip-path:url(#SVGID_2_);fill:#FFFFFF;}
	.st2{clip-path:url(#SVGID_2_);fill:#FDFEFF;}
	.st3{clip-path:url(#SVGID_2_);fill:#FBFEFF;}
	.st4{clip-path:url(#SVGID_2_);fill:#FAFDFF;}
	.st5{clip-path:url(#SVGID_2_);fill:#F8FCFF;}
	.st6{clip-path:url(#SVGID_2_);fill:#F8FBFE;}
	.st7{clip-path:url(#SVGID_2_);fill:#F7FCFE;}
	.st8{clip-path:url(#SVGID_2_);fill:#F7FBFE;}
	.st9{clip-path:url(#SVGID_2_);fill:#F7FAFC;}
	.st10{clip-path:url(#SVGID_2_);fill:#F6FAFC;}
	.st11{clip-path:url(#SVGID_2_);fill:#F6F9FD;}
	.st12{clip-path:url(#SVGID_2_);fill:#F5FAFD;}
	.st13{clip-path:url(#SVGID_2_);fill:#F4F9FC;}
	.st14{clip-path:url(#SVGID_2_);fill:#F4F8FB;}
	.st15{clip-path:url(#SVGID_2_);fill:#F3F9FC;}
	.st16{clip-path:url(#SVGID_2_);fill:#F2F7FC;}
	.st17{clip-path:url(#SVGID_2_);fill:#F2F8FC;}
	.st18{clip-path:url(#SVGID_2_);fill:#F1F6FA;}
	.st19{clip-path:url(#SVGID_2_);fill:#F1F7FB;}
	.st20{clip-path:url(#SVGID_2_);fill:#EFF5FA;}
	.st21{clip-path:url(#SVGID_2_);fill:#EEF5FA;}
	.st22{clip-path:url(#SVGID_2_);fill:#EDF4FA;}
	.st23{clip-path:url(#SVGID_2_);fill:#EDF3F9;}
	.st24{clip-path:url(#SVGID_2_);fill:#EBF2F9;}
	.st25{clip-path:url(#SVGID_2_);fill:#EAF2F8;}
	.st26{clip-path:url(#SVGID_2_);fill:#E9F2F8;}
	.st27{clip-path:url(#SVGID_2_);fill:#E9F2F9;}
	.st28{clip-path:url(#SVGID_2_);fill:#E8F1F6;}
	.st29{clip-path:url(#SVGID_2_);fill:#E8F0F7;}
	.st30{clip-path:url(#SVGID_2_);fill:#E6EFF6;}
	.st31{clip-path:url(#SVGID_2_);fill:#E5EFF7;}
	.st32{clip-path:url(#SVGID_2_);fill:#E4EFF4;}
	.st33{clip-path:url(#SVGID_2_);fill:#E4EEF5;}
	.st34{clip-path:url(#SVGID_2_);fill:#E3EDF5;}
	.st35{clip-path:url(#SVGID_2_);fill:#E2ECF5;}
	.st36{clip-path:url(#SVGID_2_);fill:#E1EDF5;}
	.st37{clip-path:url(#SVGID_2_);fill:#E1EBF4;}
	.st38{clip-path:url(#SVGID_2_);fill:#E0EBF4;}
	.st39{clip-path:url(#SVGID_2_);fill:#DFECF5;}
	.st40{clip-path:url(#SVGID_2_);fill:#DFEAF4;}
	.st41{clip-path:url(#SVGID_2_);fill:#DEEBF3;}
	.st42{clip-path:url(#SVGID_2_);fill:#DDEAF4;}
	.st43{clip-path:url(#SVGID_2_);fill:#DCE9F2;}
	.st44{clip-path:url(#SVGID_2_);fill:#DCE8F3;}
	.st45{clip-path:url(#SVGID_2_);fill:#DBE9F2;}
	.st46{clip-path:url(#SVGID_2_);fill:#DAE8F2;}
	.st47{clip-path:url(#SVGID_2_);fill:#D9E7F2;}
	.st48{clip-path:url(#SVGID_2_);fill:#D8E7F2;}
	.st49{clip-path:url(#SVGID_2_);fill:#D7E6F1;}
	.st50{clip-path:url(#SVGID_2_);fill:#D6E6F2;}
	.st51{clip-path:url(#SVGID_2_);fill:#D5E5F1;}
	.st52{clip-path:url(#SVGID_2_);fill:#D4E5F0;}
	.st53{clip-path:url(#SVGID_2_);fill:#D4E4F1;}
	.st54{clip-path:url(#SVGID_2_);fill:#D3E4F1;}
	.st55{clip-path:url(#SVGID_2_);fill:#D2E3F0;}
	.st56{clip-path:url(#SVGID_2_);fill:#D1E3EF;}
	.st57{clip-path:url(#SVGID_2_);fill:#D0E2EF;}
	.st58{clip-path:url(#SVGID_2_);fill:#CFE2EF;}
	.st59{clip-path:url(#SVGID_2_);fill:#CEE1EF;}
	.st60{clip-path:url(#SVGID_2_);fill:#CDE0EE;}
	.st61{clip-path:url(#SVGID_2_);fill:#CCE0EE;}
	.st62{clip-path:url(#SVGID_2_);fill:#CBDFEE;}
	.st63{clip-path:url(#SVGID_2_);fill:#CADFEE;}
	.st64{clip-path:url(#SVGID_2_);fill:#C9DEEE;}
	.st65{clip-path:url(#SVGID_2_);fill:#C8DEED;}
	.st66{clip-path:url(#SVGID_2_);fill:#C7DDED;}
	.st67{clip-path:url(#SVGID_2_);fill:#C6DCED;}
	.st68{clip-path:url(#SVGID_2_);fill:#C5DBEC;}
	.st69{clip-path:url(#SVGID_2_);fill:#C4DCEC;}
	.st70{clip-path:url(#SVGID_2_);fill:#C4DAEB;}
	.st71{clip-path:url(#SVGID_2_);fill:#C3DAEB;}
	.st72{clip-path:url(#SVGID_2_);fill:#C2D9EB;}
	.st73{clip-path:url(#SVGID_2_);fill:#C1D8EB;}
	.st74{clip-path:url(#SVGID_2_);fill:#BFD8EA;}
	.st75{clip-path:url(#SVGID_2_);fill:#BED7EA;}
	.st76{clip-path:url(#SVGID_2_);fill:#BDD7E9;}
	.st77{clip-path:url(#SVGID_2_);fill:#BCD6E9;}
	.st78{clip-path:url(#SVGID_2_);fill:#BBD6E9;}
	.st79{clip-path:url(#SVGID_2_);fill:#BAD5E9;}
	.st80{clip-path:url(#SVGID_2_);fill:#B9D5E8;}
	.st81{clip-path:url(#SVGID_2_);fill:#B8D4E8;}
	.st82{clip-path:url(#SVGID_2_);fill:#B7D2E7;}
	.st83{clip-path:url(#SVGID_2_);fill:#B6D3E6;}
	.st84{clip-path:url(#SVGID_2_);fill:#B4D1E5;}
	.st85{clip-path:url(#SVGID_2_);fill:#B3D1E6;}
	.st86{clip-path:url(#SVGID_2_);fill:#B2D0E5;}
	.st87{clip-path:url(#SVGID_2_);fill:#B1CFE5;}
	.st88{clip-path:url(#SVGID_2_);fill:#B0CFE5;}
	.st89{clip-path:url(#SVGID_2_);fill:#B0CEE4;}
	.st90{clip-path:url(#SVGID_2_);fill:#AECDE4;}
	.st91{clip-path:url(#SVGID_2_);fill:#ADCCE4;}
	.st92{clip-path:url(#SVGID_2_);fill:#ADCBE2;}
	.st93{clip-path:url(#SVGID_2_);fill:#ABCCE3;}
	.st94{clip-path:url(#SVGID_2_);fill:#AACBE3;}
	.st95{clip-path:url(#SVGID_2_);fill:#A9CAE3;}
	.st96{clip-path:url(#SVGID_2_);fill:#A9C9E2;}
	.st97{clip-path:url(#SVGID_2_);fill:#A7C9E2;}
	.st98{clip-path:url(#SVGID_2_);fill:#A6C8E2;}
	.st99{clip-path:url(#SVGID_2_);fill:#A4C8E2;}
	.st100{clip-path:url(#SVGID_2_);fill:#A3C7E2;}
	.st101{clip-path:url(#SVGID_2_);fill:#A2C6E1;}
	.st102{clip-path:url(#SVGID_2_);fill:#A1C6E1;}
	.st103{clip-path:url(#SVGID_2_);fill:#A1C5E0;}
	.st104{clip-path:url(#SVGID_2_);fill:#9FC4E0;}
	.st105{clip-path:url(#SVGID_2_);fill:#9EC3DF;}
	.st106{clip-path:url(#SVGID_2_);fill:#9DC2DF;}
	.st107{clip-path:url(#SVGID_2_);fill:#9BC2DE;}
	.st108{clip-path:url(#SVGID_2_);fill:#9AC2DE;}
	.st109{clip-path:url(#SVGID_2_);fill:#99C0DD;}
	.st110{clip-path:url(#SVGID_2_);fill:#98BFDE;}
	.st111{clip-path:url(#SVGID_2_);fill:#97C0DD;}
	.st112{clip-path:url(#SVGID_2_);fill:#96BEDD;}
	.st113{clip-path:url(#SVGID_2_);fill:#95BDDC;}
	.st114{clip-path:url(#SVGID_2_);fill:#92BDDC;}
	.st115{clip-path:url(#SVGID_2_);fill:#92BCDC;}
	.st116{clip-path:url(#SVGID_2_);fill:#91BBDB;}
	.st117{clip-path:url(#SVGID_2_);fill:#90BBDB;}
	.st118{clip-path:url(#SVGID_2_);fill:#8EBADB;}
	.st119{clip-path:url(#SVGID_2_);fill:#8DB9DA;}
	.st120{clip-path:url(#SVGID_2_);fill:#8CB9DB;}
	.st121{clip-path:url(#SVGID_2_);fill:#8AB8D9;}
	.st122{clip-path:url(#SVGID_2_);fill:#89B7DA;}
	.st123{clip-path:url(#SVGID_2_);fill:#88B7DA;}
	.st124{clip-path:url(#SVGID_2_);fill:#88B6D9;}
	.st125{clip-path:url(#SVGID_2_);fill:#86B6D8;}
	.st126{clip-path:url(#SVGID_2_);fill:#85B4D8;}
	.st127{clip-path:url(#SVGID_2_);fill:#84B3D7;}
	.st128{clip-path:url(#SVGID_2_);fill:#83B3D7;}
	.st129{clip-path:url(#SVGID_2_);fill:#82B2D6;}
	.st130{clip-path:url(#SVGID_2_);fill:#80B2D7;}
	.st131{clip-path:url(#SVGID_2_);fill:#7FB0D6;}
	.st132{clip-path:url(#SVGID_2_);fill:#7DAFD5;}
	.st133{clip-path:url(#SVGID_2_);fill:#7BAED3;}
	.st134{clip-path:url(#SVGID_2_);fill:#79ACD3;}
	.st135{clip-path:url(#SVGID_2_);fill:#78ACD3;}
	.st136{clip-path:url(#SVGID_2_);fill:#77ABD2;}
	.st137{clip-path:url(#SVGID_2_);fill:#76AAD2;}
	.st138{clip-path:url(#SVGID_2_);fill:#74AAD2;}
	.st139{clip-path:url(#SVGID_2_);fill:#73A9D2;}
	.st140{clip-path:url(#SVGID_2_);fill:#72A8D2;}
	.st141{clip-path:url(#SVGID_2_);fill:#70A8D1;}
	.st142{clip-path:url(#SVGID_2_);fill:#6FA7D1;}
	.st143{clip-path:url(#SVGID_2_);fill:#6EA6D0;}
	.st144{clip-path:url(#SVGID_2_);fill:#6CA5D0;}
	.st145{clip-path:url(#SVGID_2_);fill:#6BA5CF;}
	.st146{clip-path:url(#SVGID_2_);fill:#6AA4CF;}
	.st147{clip-path:url(#SVGID_2_);fill:#69A3CF;}
	.st148{clip-path:url(#SVGID_2_);fill:#68A2CE;}
	.st149{clip-path:url(#SVGID_2_);fill:#67A1CE;}
	.st150{clip-path:url(#SVGID_2_);fill:#66A1CD;}
	.st151{clip-path:url(#SVGID_2_);fill:#64A0CC;}
	.st152{clip-path:url(#SVGID_2_);fill:#639FCC;}
	.st153{clip-path:url(#SVGID_2_);fill:#629ECC;}
	.st154{clip-path:url(#SVGID_2_);fill:#609DCC;}
	.st155{clip-path:url(#SVGID_2_);fill:#5F9DCB;}
	.st156{clip-path:url(#SVGID_2_);fill:#5E9CCB;}
	.st157{clip-path:url(#SVGID_2_);fill:#5C9BCA;}
	.st158{clip-path:url(#SVGID_2_);fill:#5B9ACA;}
	.st159{clip-path:url(#SVGID_2_);fill:#5999C9;}
	.st160{clip-path:url(#SVGID_2_);fill:#5898C9;}
	.st161{clip-path:url(#SVGID_2_);fill:#5798C9;}
	.st162{clip-path:url(#SVGID_2_);fill:#5597C8;}
	.st163{clip-path:url(#SVGID_2_);fill:#5497C8;}
	.st164{clip-path:url(#SVGID_2_);fill:#5396C7;}
	.st165{clip-path:url(#SVGID_2_);fill:#5195C7;}
	.st166{clip-path:url(#SVGID_2_);fill:#5094C6;}
	.st167{clip-path:url(#SVGID_2_);fill:#5092C6;}
	.st168{clip-path:url(#SVGID_2_);fill:#4D92C5;}
	.st169{clip-path:url(#SVGID_2_);fill:#4C92C5;}
	.st170{clip-path:url(#SVGID_2_);fill:#4A91C5;}
	.st171{clip-path:url(#SVGID_2_);fill:#4A90C4;}
	.st172{clip-path:url(#SVGID_2_);fill:#498FC4;}
	.st173{clip-path:url(#SVGID_2_);fill:#458EC3;}
	.st174{clip-path:url(#SVGID_2_);fill:#448DC4;}
	.st175{clip-path:url(#SVGID_2_);fill:#438DC3;}
	.st176{clip-path:url(#SVGID_2_);fill:#428BC3;}
	.st177{clip-path:url(#SVGID_2_);fill:#3F8BC2;}
	.st178{clip-path:url(#SVGID_2_);fill:#3E8AC2;}
	.st179{clip-path:url(#SVGID_2_);fill:#3C89C1;}
	.st180{clip-path:url(#SVGID_2_);fill:#3A88C1;}
	.st181{clip-path:url(#SVGID_2_);fill:#3A87C1;}
	.st182{clip-path:url(#SVGID_2_);fill:#3786C0;}
	.st183{clip-path:url(#SVGID_2_);fill:#3685C0;}
	.st184{clip-path:url(#SVGID_2_);fill:#3585BF;}
	.st185{clip-path:url(#SVGID_2_);fill:#3384BF;}
	.st186{clip-path:url(#SVGID_2_);fill:#3383BE;}
	.st187{clip-path:url(#SVGID_2_);fill:#3282BD;}
	.st188{clip-path:url(#SVGID_2_);fill:#2F81BD;}
	.st189{clip-path:url(#SVGID_2_);fill:#3180BC;}
	.st190{clip-path:url(#SVGID_2_);fill:#2E7EBB;}
	.st191{clip-path:url(#SVGID_2_);fill:#2C7EBB;}
	.st192{clip-path:url(#SVGID_2_);fill:#2C7DBA;}
	.st193{clip-path:url(#SVGID_2_);fill:#2B7CBA;}
	.st194{clip-path:url(#SVGID_2_);fill:#297CB9;}
	.st195{clip-path:url(#SVGID_2_);fill:#287BB9;}
	.st196{clip-path:url(#SVGID_2_);fill:#257AB8;}
	.st197{clip-path:url(#SVGID_2_);fill:#2479B8;}
	.st198{clip-path:url(#SVGID_2_);fill:#2477B7;}
	.st199{clip-path:url(#SVGID_2_);fill:#2277B7;}
	.st200{clip-path:url(#SVGID_2_);fill:#2176B6;}
	.st201{clip-path:url(#SVGID_2_);fill:#1E75B6;}
	.st202{clip-path:url(#SVGID_2_);fill:#1B74B6;}
	.st203{clip-path:url(#SVGID_2_);fill:#1B73B5;}
	.st204{clip-path:url(#SVGID_2_);fill:#1972B5;}
	.st205{clip-path:url(#SVGID_2_);fill:#1971B4;}
	.st206{clip-path:url(#SVGID_2_);fill:#1770B5;}
	.st207{clip-path:url(#SVGID_2_);fill:#176FB3;}
	.st208{clip-path:url(#SVGID_2_);fill:#136FB3;}
	.st209{clip-path:url(#SVGID_2_);fill:#136EB2;}
	.st210{clip-path:url(#SVGID_2_);fill:#116DB3;}
	.st211{clip-path:url(#SVGID_2_);fill:#0F6CB2;}
	.st212{clip-path:url(#SVGID_2_);fill:#0D6BB1;}
	.st213{clip-path:url(#SVGID_2_);fill:#0C6AB1;}
	.st214{clip-path:url(#SVGID_2_);fill:#0A69B1;}
	.st215{clip-path:url(#SVGID_2_);fill:#0A68AF;}
	.st216{clip-path:url(#SVGID_2_);fill:#0A67AF;}
	.st217{clip-path:url(#SVGID_2_);fill:#0766AF;}
	.st218{clip-path:url(#SVGID_2_);fill:#0565AE;}
	.st219{clip-path:url(#SVGID_2_);fill:#0664AD;}
	.st220{fill:#FFFFFF;}
	.st221{fill:url(#SVGID_3_);}
	.st222{fill:url(#SVGID_4_);}
	.st223{fill:url(#SVGID_5_);}
	.st224{fill:url(#SVGID_6_);}
	.st225{fill:url(#SVGID_7_);}
	.st226{fill:url(#SVGID_8_);}
	.st227{fill:url(#SVGID_9_);}
	.st228{fill:url(#SVGID_10_);}
	.st229{fill:url(#SVGID_11_);}
	.st230{fill:url(#SVGID_12_);}
</style>
<g class="st0">
	<g>
		<defs>
			<ellipse id="SVGID_1_" cx="42.7" cy="87.3" rx="35.2" ry="5.2"/>
		</defs>
		<clipPath id="SVGID_2_">
			<use xlink:href="#SVGID_1_"  style="overflow:visible;"/>
		</clipPath>
		<rect x="7.6" y="82.2" class="st1" width="70.3" height="10.3"/>
		<ellipse transform="matrix(1 -5.640809e-03 5.640809e-03 1 -0.4931 0.242)" class="st1" cx="42.6" cy="87.5" rx="31.5" ry="4.2"/>
		
			<ellipse transform="matrix(1 -5.641109e-03 5.641109e-03 1 -0.4932 0.2414)" class="st1" cx="42.5" cy="87.5" rx="31.4" ry="4.2"/>
		
			<ellipse transform="matrix(1 -5.640927e-03 5.640927e-03 1 -0.4932 0.2407)" class="st1" cx="42.4" cy="87.5" rx="31.2" ry="4.2"/>
		
			<ellipse transform="matrix(1 -5.641229e-03 5.641229e-03 1 -0.4932 0.2402)" class="st1" cx="42.3" cy="87.5" rx="31.1" ry="4.2"/>
		<ellipse transform="matrix(1 -5.641046e-03 5.641046e-03 1 -0.4932 0.2395)" class="st1" cx="42.2" cy="87.5" rx="31" ry="4.2"/>
		<ellipse transform="matrix(1 -5.641676e-03 5.641676e-03 1 -0.4932 0.239)" class="st1" cx="42.1" cy="87.5" rx="30.9" ry="4.1"/>
		<ellipse transform="matrix(1 -5.640503e-03 5.640503e-03 1 -0.4931 0.2383)" class="st1" cx="42" cy="87.5" rx="30.8" ry="4.1"/>
		
			<ellipse transform="matrix(1 -5.640806e-03 5.640806e-03 1 -0.4932 0.2377)" class="st1" cx="41.9" cy="87.5" rx="30.6" ry="4.1"/>
		
			<ellipse transform="matrix(1 -5.640950e-03 5.640950e-03 1 -0.4932 0.2371)" class="st1" cx="41.8" cy="87.5" rx="30.5" ry="4.1"/>
		
			<ellipse transform="matrix(1 -5.641425e-03 5.641425e-03 1 -0.4932 0.2365)" class="st1" cx="41.7" cy="87.5" rx="30.4" ry="4.1"/>
		
			<ellipse transform="matrix(1 -5.641568e-03 5.641568e-03 1 -0.4932 0.2359)" class="st1" cx="41.6" cy="87.5" rx="30.3" ry="4.1"/>
		<ellipse transform="matrix(1 -5.641543e-03 5.641543e-03 1 -0.4932 0.2353)" class="st1" cx="41.5" cy="87.5" rx="30.1" ry="4"/>
		<ellipse transform="matrix(1 -5.641019e-03 5.641019e-03 1 -0.4932 0.2347)" class="st1" cx="41.4" cy="87.5" rx="30" ry="4"/>
		<ellipse transform="matrix(1 -5.640653e-03 5.640653e-03 1 -0.4932 0.234)" class="st1" cx="41.2" cy="87.5" rx="29.9" ry="4"/>
		<ellipse transform="matrix(1 -5.640798e-03 5.640798e-03 1 -0.4932 0.2334)" class="st2" cx="41.1" cy="87.5" rx="29.8" ry="4"/>
		<ellipse transform="matrix(1 -5.641111e-03 5.641111e-03 1 -0.4932 0.2328)" class="st2" cx="41" cy="87.6" rx="29.6" ry="4"/>
		<ellipse transform="matrix(1 -5.641263e-03 5.641263e-03 1 -0.4932 0.2322)" class="st2" cx="40.9" cy="87.6" rx="29.5" ry="4"/>
		
			<ellipse transform="matrix(1 -5.641240e-03 5.641240e-03 1 -0.4932 0.2316)" class="st3" cx="40.8" cy="87.6" rx="29.4" ry="3.9"/>
		<path class="st3" d="M70,87.4c0,2.2-13.1,4-29.2,4.1c-16.2,0.1-29.3-1.6-29.3-3.8c0-2.2,13.1-4,29.2-4.1
			C56.8,83.5,70,85.2,70,87.4z"/>
		
			<ellipse transform="matrix(1 -5.640665e-03 5.640665e-03 1 -0.4932 0.2304)" class="st3" cx="40.6" cy="87.6" rx="29.1" ry="3.9"/>
		<ellipse transform="matrix(1 -5.640990e-03 5.640990e-03 1 -0.4932 0.2298)" class="st4" cx="40.5" cy="87.6" rx="29" ry="3.9"/>
		
			<ellipse transform="matrix(1 -5.641314e-03 5.641314e-03 1 -0.4933 0.2292)" class="st4" cx="40.4" cy="87.6" rx="28.9" ry="3.9"/>
		
			<ellipse transform="matrix(1 -5.641472e-03 5.641472e-03 1 -0.4933 0.2286)" class="st4" cx="40.3" cy="87.6" rx="28.8" ry="3.9"/>
		<ellipse transform="matrix(1 -5.641801e-03 5.641801e-03 1 -0.4933 0.228)" class="st5" cx="40.2" cy="87.6" rx="28.7" ry="3.8"/>
		
			<ellipse transform="matrix(1 -5.641242e-03 5.641242e-03 1 -0.4933 0.2274)" class="st6" cx="40.1" cy="87.6" rx="28.5" ry="3.8"/>
		<ellipse transform="matrix(1 -5.640858e-03 5.640858e-03 1 -0.4933 0.2268)" class="st7" cx="40" cy="87.6" rx="28.4" ry="3.8"/>
		
			<ellipse transform="matrix(1 -5.640655e-03 5.640655e-03 1 -0.4932 0.2261)" class="st7" cx="39.8" cy="87.6" rx="28.3" ry="3.8"/>
		
			<ellipse transform="matrix(1 -5.640990e-03 5.640990e-03 1 -0.4933 0.2255)" class="st8" cx="39.7" cy="87.6" rx="28.2" ry="3.8"/>
		<path class="st9" d="M67.7,87.4c0,2.1-12.5,3.8-28,3.9c-15.5,0.1-28-1.5-28.1-3.6c0-2.1,12.5-3.8,28-3.9
			C55.1,83.7,67.6,85.3,67.7,87.4z"/>
		
			<ellipse transform="matrix(1 -5.641480e-03 5.641480e-03 1 -0.4933 0.2243)" class="st9" cx="39.5" cy="87.6" rx="27.9" ry="3.7"/>
		
			<ellipse transform="matrix(1 -5.641278e-03 5.641278e-03 1 -0.4933 0.2237)" class="st10" cx="39.4" cy="87.6" rx="27.8" ry="3.7"/>
		<path class="st11" d="M67,87.4c0,2.1-12.4,3.8-27.6,3.9c-15.3,0.1-27.7-1.5-27.7-3.6c0-2.1,12.4-3.8,27.6-3.9S67,85.4,67,87.4z"/>
		
			<ellipse transform="matrix(1 -5.641222e-03 5.641222e-03 1 -0.4933 0.2225)" class="st12" cx="39.2" cy="87.6" rx="27.5" ry="3.7"/>
		
			<ellipse transform="matrix(1 -5.641198e-03 5.641198e-03 1 -0.4933 0.2219)" class="st12" cx="39.1" cy="87.6" rx="27.4" ry="3.7"/>
		<ellipse transform="matrix(1 -5.641356e-03 5.641356e-03 1 -0.4933 0.2213)" class="st13" cx="39" cy="87.6" rx="27.3" ry="3.7"/>
		
			<ellipse transform="matrix(1 -5.640955e-03 5.640955e-03 1 -0.4933 0.2207)" class="st14" cx="38.9" cy="87.6" rx="27.2" ry="3.6"/>
		<ellipse transform="matrix(1 -5.641497e-03 5.641497e-03 1 -0.4934 0.2201)" class="st15" cx="38.8" cy="87.6" rx="27" ry="3.6"/>
		
			<ellipse transform="matrix(1 -5.641472e-03 5.641472e-03 1 -0.4934 0.2195)" class="st15" cx="38.7" cy="87.6" rx="26.9" ry="3.6"/>
		
			<ellipse transform="matrix(1 -5.640495e-03 5.640495e-03 1 -0.4933 0.2188)" class="st16" cx="38.5" cy="87.6" rx="26.8" ry="3.6"/>
		
			<ellipse transform="matrix(1 -5.640844e-03 5.640844e-03 1 -0.4933 0.2182)" class="st16" cx="38.4" cy="87.6" rx="26.7" ry="3.6"/>
		<path class="st17" d="M64.9,87.4c0,2-11.9,3.6-26.5,3.7c-14.7,0.1-26.6-1.4-26.6-3.4s11.9-3.6,26.5-3.7
			C53,83.9,64.9,85.4,64.9,87.4z"/>
		
			<ellipse transform="matrix(1 -5.640984e-03 5.640984e-03 1 -0.4933 0.217)" class="st18" cx="38.2" cy="87.6" rx="26.4" ry="3.5"/>
		
			<ellipse transform="matrix(1 -5.641539e-03 5.641539e-03 1 -0.4934 0.2164)" class="st19" cx="38.1" cy="87.6" rx="26.3" ry="3.5"/>
		<path class="st19" d="M64.2,87.4c0,1.9-11.7,3.6-26.2,3.7s-26.2-1.4-26.2-3.4c0-1.9,11.7-3.6,26.2-3.7
			C52.4,84,64.2,85.5,64.2,87.4z"/>
		<path class="st20" d="M64,87.4c0,1.9-11.6,3.6-26,3.6c-14.4,0.1-26.1-1.4-26.1-3.4c0-1.9,11.6-3.6,26-3.6S63.9,85.5,64,87.4z"/>
		<path class="st21" d="M63.7,87.4c0,1.9-11.6,3.5-25.9,3.6c-14.3,0.1-25.9-1.4-26-3.3c0-1.9,11.6-3.5,25.9-3.6
			C52.1,84,63.7,85.5,63.7,87.4z"/>
		<path class="st21" d="M63.5,87.4c0,1.9-11.5,3.5-25.8,3.6c-14.3,0.1-25.8-1.4-25.8-3.3c0-1.9,11.5-3.5,25.8-3.6
			C51.9,84,63.5,85.5,63.5,87.4z"/>
		
			<ellipse transform="matrix(1 -5.641206e-03 5.641206e-03 1 -0.4934 0.2134)" class="st22" cx="37.6" cy="87.6" rx="25.7" ry="3.4"/>
		<path class="st22" d="M63,87.4c0,1.9-11.4,3.5-25.5,3.6c-14.1,0.1-25.6-1.4-25.6-3.3c0-1.9,11.4-3.5,25.5-3.6
			C51.6,84.1,63,85.5,63,87.4z"/>
		
			<ellipse transform="matrix(1 -5.641748e-03 5.641748e-03 1 -0.4934 0.2122)" class="st23" cx="37.4" cy="87.6" rx="25.4" ry="3.4"/>
		
			<ellipse transform="matrix(1 -5.641525e-03 5.641525e-03 1 -0.4934 0.2116)" class="st24" cx="37.3" cy="87.6" rx="25.3" ry="3.4"/>
		<path class="st24" d="M62.3,87.4c0,1.9-11.3,3.4-25.2,3.5C23.3,91,12,89.6,12,87.7c0-1.9,11.3-3.4,25.2-3.5
			C51,84.1,62.3,85.6,62.3,87.4z"/>
		<path class="st25" d="M62.1,87.4c0,1.9-11.2,3.4-25.1,3.5S12,89.6,12,87.7c0-1.9,11.2-3.4,25.1-3.5C50.9,84.1,62.1,85.6,62.1,87.4
			z"/>
		
			<ellipse transform="matrix(1 -5.641238e-03 5.641238e-03 1 -0.4934 0.2097)" class="st25" cx="36.9" cy="87.6" rx="24.9" ry="3.3"/>
		
			<ellipse transform="matrix(1 -5.641012e-03 5.641012e-03 1 -0.4934 0.2091)" class="st26" cx="36.8" cy="87.6" rx="24.8" ry="3.3"/>
		<path class="st27" d="M61.4,87.4c0,1.8-11,3.4-24.7,3.5C23.1,91,12,89.5,12,87.7c0-1.8,11-3.4,24.7-3.5
			C50.3,84.2,61.4,85.6,61.4,87.4z"/>
		<path class="st28" d="M61.2,87.4c0,1.8-11,3.4-24.6,3.4C23.1,90.9,12,89.5,12,87.7c0-1.8,11-3.4,24.6-3.4
			C50.2,84.2,61.2,85.6,61.2,87.4z"/>
		
			<ellipse transform="matrix(1 -5.640501e-03 5.640501e-03 1 -0.4934 0.2073)" class="st29" cx="36.5" cy="87.6" rx="24.5" ry="3.3"/>
		
			<ellipse transform="matrix(1 -5.640673e-03 5.640673e-03 1 -0.4934 0.2067)" class="st30" cx="36.4" cy="87.6" rx="24.3" ry="3.3"/>
		
			<ellipse transform="matrix(1 -5.641062e-03 5.641062e-03 1 -0.4934 0.2061)" class="st30" cx="36.3" cy="87.6" rx="24.2" ry="3.2"/>
		
			<ellipse transform="matrix(1 -5.641249e-03 5.641249e-03 1 -0.4935 0.2055)" class="st31" cx="36.2" cy="87.6" rx="24.1" ry="3.2"/>
		<ellipse transform="matrix(1 -5.641219e-03 5.641219e-03 1 -0.4935 0.2049)" class="st32" cx="36.1" cy="87.6" rx="24" ry="3.2"/>
		<ellipse transform="matrix(1 -5.641406e-03 5.641406e-03 1 -0.4935 0.2043)" class="st33" cx="36" cy="87.6" rx="23.8" ry="3.2"/>
		<path class="st34" d="M59.6,87.4c0,1.8-10.6,3.2-23.7,3.3c-13.1,0.1-23.7-1.3-23.7-3c0-1.8,10.6-3.2,23.7-3.3
			C48.9,84.3,59.6,85.7,59.6,87.4z"/>
		<path class="st35" d="M59.3,87.4c0,1.7-10.5,3.2-23.6,3.3c-13,0.1-23.6-1.3-23.6-3c0-1.7,10.5-3.2,23.6-3.3
			C48.8,84.3,59.3,85.7,59.3,87.4z"/>
		
			<ellipse transform="matrix(1 -5.640663e-03 5.640663e-03 1 -0.4934 0.2024)" class="st36" cx="35.6" cy="87.6" rx="23.5" ry="3.2"/>
		<path class="st37" d="M58.9,87.4c0,1.7-10.4,3.2-23.3,3.3c-12.9,0.1-23.3-1.3-23.4-3c0-1.7,10.4-3.2,23.3-3.3
			C48.4,84.4,58.9,85.7,58.9,87.4z"/>
		<path class="st38" d="M58.6,87.4c0,1.7-10.4,3.2-23.2,3.2c-12.8,0.1-23.2-1.3-23.2-3s10.4-3.2,23.2-3.2
			C48.2,84.4,58.6,85.7,58.6,87.4z"/>
		<path class="st39" d="M58.4,87.4c0,1.7-10.3,3.2-23.1,3.2c-12.8,0.1-23.1-1.3-23.1-3s10.3-3.2,23.1-3.2
			C48.1,84.4,58.4,85.7,58.4,87.4z"/>
		<path class="st40" d="M58.2,87.5c0,1.7-10.3,3.1-23,3.2c-12.7,0.1-23-1.3-23-3c0-1.7,10.3-3.1,23-3.2
			C47.9,84.4,58.2,85.7,58.2,87.5z"/>
		
			<ellipse transform="matrix(1 -5.640495e-03 5.640495e-03 1 -0.4934 0.1994)" class="st41" cx="35.1" cy="87.6" rx="22.8" ry="3.1"/>
		<ellipse transform="matrix(1 -5.640903e-03 5.640903e-03 1 -0.4935 0.1988)" class="st42" cx="35" cy="87.6" rx="22.7" ry="3.1"/>
		<path class="st43" d="M57.5,87.5c0,1.7-10.1,3.1-22.6,3.2c-12.5,0.1-22.6-1.2-22.6-2.9c0-1.7,10.1-3.1,22.6-3.2
			C47.3,84.5,57.5,85.8,57.5,87.5z"/>
		<ellipse transform="matrix(1 -5.641515e-03 5.641515e-03 1 -0.4935 0.1976)" class="st44" cx="34.8" cy="87.6" rx="22.5" ry="3"/>
		<ellipse transform="matrix(1 -5.641264e-03 5.641264e-03 1 -0.4935 0.197)" class="st45" cx="34.7" cy="87.6" rx="22.4" ry="3"/>
		<path class="st46" d="M56.8,87.5c0,1.6-9.9,3-22.2,3.1c-12.3,0.1-22.2-1.2-22.2-2.9c0-1.6,9.9-3,22.2-3.1
			C46.8,84.5,56.8,85.8,56.8,87.5z"/>
		<path class="st47" d="M56.6,87.5c0,1.6-9.9,3-22.1,3.1c-12.2,0.1-22.1-1.2-22.1-2.8c0-1.6,9.9-3,22.1-3.1S56.5,85.8,56.6,87.5z"/>
		<ellipse transform="matrix(1 -5.640934e-03 5.640934e-03 1 -0.4935 0.1951)" class="st48" cx="34.3" cy="87.6" rx="22" ry="3"/>
		
			<ellipse transform="matrix(1 -5.640669e-03 5.640669e-03 1 -0.4935 0.1945)" class="st48" cx="34.2" cy="87.6" rx="21.9" ry="2.9"/>
		<path class="st49" d="M55.9,87.5c0,1.6-9.7,3-21.7,3c-12,0.1-21.7-1.2-21.8-2.8c0-1.6,9.7-3,21.7-3C46.1,84.6,55.9,85.9,55.9,87.5
			z"/>
		<path class="st50" d="M55.6,87.5c0,1.6-9.7,3-21.6,3c-11.9,0.1-21.6-1.2-21.6-2.8c0-1.6,9.7-3,21.6-3
			C45.9,84.6,55.6,85.9,55.6,87.5z"/>
		
			<ellipse transform="matrix(1 -5.641506e-03 5.641506e-03 1 -0.4936 0.1927)" class="st51" cx="33.9" cy="87.6" rx="21.5" ry="2.9"/>
		<path class="st52" d="M55.2,87.5c0,1.6-9.5,2.9-21.3,3c-11.8,0.1-21.4-1.2-21.4-2.7c0-1.6,9.5-2.9,21.3-3
			C45.6,84.7,55.2,85.9,55.2,87.5z"/>
		<path class="st53" d="M54.9,87.5c0,1.6-9.5,2.9-21.2,3c-11.7,0.1-21.2-1.2-21.3-2.7c0-1.6,9.5-2.9,21.2-3
			C45.4,84.7,54.9,85.9,54.9,87.5z"/>
		
			<ellipse transform="matrix(1 -5.640930e-03 5.640930e-03 1 -0.4935 0.1909)" class="st54" cx="33.6" cy="87.6" rx="21.1" ry="2.8"/>
		<ellipse transform="matrix(1 -5.640894e-03 5.640894e-03 1 -0.4935 0.1903)" class="st55" cx="33.5" cy="87.6" rx="21" ry="2.8"/>
		
			<ellipse transform="matrix(1 -5.641594e-03 5.641594e-03 1 -0.4936 0.1897)" class="st56" cx="33.4" cy="87.6" rx="20.9" ry="2.8"/>
		
			<ellipse transform="matrix(1 -5.641550e-03 5.641550e-03 1 -0.4936 0.1891)" class="st57" cx="33.3" cy="87.6" rx="20.7" ry="2.8"/>
		<path class="st58" d="M53.8,87.5c0,1.5-9.2,2.8-20.6,2.9c-11.4,0.1-20.6-1.1-20.6-2.7c0-1.5,9.2-2.8,20.6-2.9
			C44.5,84.8,53.8,85.9,53.8,87.5z"/>
		
			<ellipse transform="matrix(1 -5.640251e-03 5.640251e-03 1 -0.4935 0.1878)" class="st59" cx="33.1" cy="87.6" rx="20.5" ry="2.8"/>
		<path class="st59" d="M53.3,87.5c0,1.5-9.1,2.8-20.4,2.9c-11.3,0.1-20.4-1.1-20.4-2.6s9.1-2.8,20.4-2.9
			C44.2,84.8,53.3,86,53.3,87.5z"/>
		
			<ellipse transform="matrix(1 -5.640663e-03 5.640663e-03 1 -0.4936 0.1866)" class="st60" cx="32.8" cy="87.6" rx="20.3" ry="2.7"/>
		
			<ellipse transform="matrix(1 -5.640881e-03 5.640881e-03 1 -0.4936 0.186)" class="st61" cx="32.7" cy="87.6" rx="20.1" ry="2.7"/>
		<ellipse transform="matrix(1 -5.641862e-03 5.641862e-03 1 -0.4937 0.1854)" class="st62" cx="32.6" cy="87.6" rx="20" ry="2.7"/>
		
			<ellipse transform="matrix(1 -5.641580e-03 5.641580e-03 1 -0.4937 0.1848)" class="st63" cx="32.5" cy="87.6" rx="19.9" ry="2.7"/>
		<path class="st64" d="M52.2,87.5c0,1.5-8.8,2.7-19.7,2.8c-10.9,0.1-19.8-1.1-19.8-2.5c0-1.5,8.8-2.7,19.7-2.8
			C43.3,84.9,52.2,86,52.2,87.5z"/>
		<path class="st65" d="M51.9,87.5c0,1.5-8.8,2.7-19.6,2.7c-10.8,0.1-19.6-1.1-19.7-2.5c0-1.5,8.8-2.7,19.6-2.7
			C43.1,84.9,51.9,86,51.9,87.5z"/>
		
			<ellipse transform="matrix(1 -5.641210e-03 5.641210e-03 1 -0.4936 0.183)" class="st66" cx="32.2" cy="87.6" rx="19.5" ry="2.6"/>
		
			<ellipse transform="matrix(1 -5.640917e-03 5.640917e-03 1 -0.4936 0.1824)" class="st67" cx="32.1" cy="87.6" rx="19.4" ry="2.6"/>
		<path class="st67" d="M51.2,87.5c0,1.4-8.6,2.6-19.3,2.7c-10.6,0.1-19.3-1-19.3-2.5c0-1.4,8.6-2.6,19.3-2.7
			C42.6,85,51.2,86.1,51.2,87.5z"/>
		<path class="st68" d="M51,87.5c0,1.4-8.6,2.6-19.1,2.7c-10.6,0.1-19.1-1-19.2-2.5s8.6-2.6,19.1-2.7C42.4,85,51,86.1,51,87.5z"/>
		<ellipse transform="matrix(1 -5.641601e-03 5.641601e-03 1 -0.4937 0.1805)" class="st69" cx="31.8" cy="87.6" rx="19" ry="2.6"/>
		<path class="st70" d="M50.5,87.5c0,1.4-8.4,2.6-18.9,2.6c-10.4,0.1-18.9-1-18.9-2.4c0-1.4,8.4-2.6,18.9-2.6
			C42.1,85,50.5,86.1,50.5,87.5z"/>
		<path class="st71" d="M50.3,87.5c0,1.4-8.4,2.6-18.8,2.6c-10.4,0.1-18.8-1-18.8-2.4c0-1.4,8.4-2.6,18.8-2.6
			C41.9,85,50.3,86.1,50.3,87.5z"/>
		
			<ellipse transform="matrix(1 -5.641222e-03 5.641222e-03 1 -0.4937 0.1787)" class="st72" cx="31.4" cy="87.6" rx="18.6" ry="2.5"/>
		
			<ellipse transform="matrix(1 -5.641181e-03 5.641181e-03 1 -0.4937 0.1781)" class="st73" cx="31.3" cy="87.6" rx="18.5" ry="2.5"/>
		<path class="st74" d="M49.6,87.5c0,1.4-8.2,2.5-18.4,2.6s-18.4-1-18.4-2.4c0-1.4,8.2-2.5,18.4-2.6C41.4,85.1,49.6,86.1,49.6,87.5z
			"/>
		
			<ellipse transform="matrix(1 -5.641936e-03 5.641936e-03 1 -0.4937 0.1769)" class="st74" cx="31.1" cy="87.6" rx="18.3" ry="2.5"/>
		<path class="st75" d="M49.2,87.5C49.2,88.8,41,90,31,90c-10,0.1-18.2-1-18.2-2.3c0-1.3,8.1-2.5,18.1-2.5
			C41,85.1,49.1,86.2,49.2,87.5z"/>
		<ellipse transform="matrix(1 -5.640463e-03 5.640463e-03 1 -0.4936 0.1756)" class="st76" cx="30.9" cy="87.6" rx="18" ry="2.4"/>
		<path class="st77" d="M48.7,87.5c0,1.3-8,2.4-17.9,2.5c-9.9,0.1-17.9-1-17.9-2.3c0-1.3,8-2.4,17.9-2.5
			C40.7,85.1,48.7,86.2,48.7,87.5z"/>
		<path class="st78" d="M48.5,87.5c0,1.3-7.9,2.4-17.8,2.5c-9.8,0.1-17.8-1-17.8-2.3c0-1.3,7.9-2.4,17.8-2.5
			C40.5,85.2,48.5,86.2,48.5,87.5z"/>
		
			<ellipse transform="matrix(1 -5.640902e-03 5.640902e-03 1 -0.4937 0.1738)" class="st79" cx="30.6" cy="87.6" rx="17.7" ry="2.4"/>
		
			<ellipse transform="matrix(1 -5.640859e-03 5.640859e-03 1 -0.4937 0.1732)" class="st80" cx="30.5" cy="87.6" rx="17.5" ry="2.4"/>
		<path class="st81" d="M47.8,87.5c0,1.3-7.8,2.4-17.4,2.4C20.8,90,12.9,89,12.9,87.7c0-1.3,7.8-2.4,17.4-2.4S47.8,86.2,47.8,87.5z"
			/>
		<path class="st82" d="M47.5,87.5c0,1.3-7.7,2.4-17.3,2.4C20.7,90,13,89,13,87.7c0-1.3,7.7-2.4,17.3-2.4
			C39.8,85.2,47.5,86.2,47.5,87.5z"/>
		
			<ellipse transform="matrix(1 -5.640428e-03 5.640428e-03 1 -0.4937 0.1714)" class="st83" cx="30.1" cy="87.6" rx="17.2" ry="2.3"/>
		<path class="st84" d="M47.1,87.5c0,1.3-7.6,2.3-17,2.4C20.6,89.9,13,89,13,87.7c0-1.3,7.6-2.3,17-2.4
			C39.4,85.3,47.1,86.2,47.1,87.5z"/>
		
			<ellipse transform="matrix(1 -5.641236e-03 5.641236e-03 1 -0.4937 0.1702)" class="st85" cx="29.9" cy="87.6" rx="16.9" ry="2.3"/>
		<path class="st86" d="M46.6,87.5c0,1.2-7.5,2.3-16.8,2.3C20.6,89.9,13,88.9,13,87.7c0-1.2,7.5-2.3,16.8-2.3
			C39.1,85.3,46.6,86.3,46.6,87.5z"/>
		<path class="st87" d="M46.4,87.5c0,1.2-7.5,2.3-16.7,2.3C20.5,89.9,13,88.9,13,87.7c0-1.2,7.5-2.3,16.7-2.3
			C38.9,85.3,46.4,86.3,46.4,87.5z"/>
		<path class="st88" d="M46.1,87.5c0,1.2-7.4,2.3-16.5,2.3c-9.1,0.1-16.6-0.9-16.6-2.1c0-1.2,7.4-2.3,16.5-2.3
			C38.7,85.3,46.1,86.3,46.1,87.5z"/>
		<path class="st89" d="M45.9,87.5c0,1.2-7.3,2.2-16.4,2.3c-9.1,0.1-16.4-0.9-16.4-2.1c0-1.2,7.3-2.2,16.4-2.3
			C38.6,85.4,45.9,86.3,45.9,87.5z"/>
		<path class="st90" d="M45.7,87.5c0,1.2-7.3,2.2-16.3,2.3c-9,0.1-16.3-0.9-16.3-2.1c0-1.2,7.3-2.2,16.3-2.3
			C38.4,85.4,45.7,86.3,45.7,87.5z"/>
		<path class="st91" d="M45.5,87.5c0,1.2-7.2,2.2-16.2,2.3c-8.9,0.1-16.2-0.9-16.2-2.1c0-1.2,7.2-2.2,16.2-2.3
			C38.2,85.4,45.4,86.3,45.5,87.5z"/>
		
			<ellipse transform="matrix(1 -5.641242e-03 5.641242e-03 1 -0.4938 0.1659)" class="st92" cx="29.2" cy="87.6" rx="16.1" ry="2.2"/>
		<path class="st93" d="M45,87.5c0,1.2-7.1,2.2-15.9,2.2c-8.8,0-15.9-0.9-15.9-2c0-1.2,7.1-2.2,15.9-2.2C37.8,85.4,45,86.3,45,87.5z
			"/>
		<path class="st94" d="M44.8,87.5c0,1.2-7.1,2.2-15.8,2.2s-15.8-0.9-15.8-2c0-1.2,7.1-2.2,15.8-2.2S44.8,86.4,44.8,87.5z"/>
		<path class="st95" d="M44.5,87.5c0,1.2-7,2.1-15.7,2.2c-8.7,0-15.7-0.9-15.7-2c0-1.2,7-2.1,15.7-2.2
			C37.5,85.5,44.5,86.4,44.5,87.5z"/>
		
			<ellipse transform="matrix(1 -5.640734e-03 5.640734e-03 1 -0.4937 0.1635)" class="st96" cx="28.7" cy="87.6" rx="15.6" ry="2.1"/>
		<path class="st97" d="M44.1,87.5c0,1.1-6.9,2.1-15.4,2.2c-8.5,0-15.4-0.8-15.4-2c0-1.1,6.9-2.1,15.4-2.2
			C37.1,85.5,44.1,86.4,44.1,87.5z"/>
		<path class="st98" d="M43.8,87.5c0,1.1-6.8,2.1-15.3,2.1c-8.5,0-15.3-0.8-15.3-2c0-1.1,6.8-2.1,15.3-2.1S43.8,86.4,43.8,87.5z"/>
		<path class="st99" d="M43.6,87.5c0,1.1-6.8,2.1-15.2,2.1c-8.4,0-15.2-0.8-15.2-2c0-1.1,6.8-2.1,15.2-2.1
			C36.8,85.5,43.6,86.4,43.6,87.5z"/>
		<path class="st100" d="M43.4,87.5c0,1.1-6.7,2.1-15.1,2.1c-8.3,0-15.1-0.8-15.1-1.9c0-1.1,6.7-2.1,15.1-2.1
			C36.6,85.5,43.4,86.4,43.4,87.5z"/>
		<path class="st101" d="M43.1,87.5c0,1.1-6.7,2-14.9,2.1c-8.3,0-14.9-0.8-15-1.9c0-1.1,6.7-2,14.9-2.1
			C36.4,85.6,43.1,86.4,43.1,87.5z"/>
		<path class="st102" d="M42.9,87.5c0,1.1-6.6,2-14.8,2.1c-8.2,0-14.8-0.8-14.8-1.9c0-1.1,6.6-2,14.8-2.1
			C36.3,85.6,42.9,86.4,42.9,87.5z"/>
		<ellipse transform="matrix(1 -5.640374e-03 5.640374e-03 1 -0.4937 0.1592)" class="st103" cx="28" cy="87.6" rx="14.7" ry="2"/>
		<path class="st104" d="M42.4,87.5c0,1.1-6.5,2-14.6,2c-8,0-14.6-0.8-14.6-1.9c0-1.1,6.5-2,14.6-2C35.9,85.6,42.4,86.5,42.4,87.5z"
			/>
		<path class="st104" d="M42.2,87.5c0,1.1-6.5,2-14.4,2c-8,0-14.5-0.8-14.5-1.9c0-1.1,6.5-2,14.4-2C35.7,85.6,42.2,86.5,42.2,87.5z"
			/>
		<path class="st105" d="M42,87.5c0,1.1-6.4,2-14.3,2c-7.9,0-14.3-0.8-14.3-1.8c0-1.1,6.4-2,14.3-2C35.6,85.7,42,86.5,42,87.5z"/>
		<path class="st106" d="M41.8,87.5c0,1.1-6.3,1.9-14.2,2c-7.8,0-14.2-0.8-14.2-1.8c0-1.1,6.3-1.9,14.2-2S41.7,86.5,41.8,87.5z"/>
		
			<ellipse transform="matrix(1 -5.641164e-03 5.641164e-03 1 -0.4938 0.1562)" class="st107" cx="27.4" cy="87.6" rx="14.1" ry="1.9"/>
		<path class="st108" d="M41.3,87.5c0,1-6.2,1.9-13.9,2c-7.7,0-14-0.8-14-1.8s6.2-1.9,13.9-2C35,85.7,41.3,86.5,41.3,87.5z"/>
		<path class="st109" d="M41.1,87.5c0,1-6.2,1.9-13.8,1.9c-7.6,0-13.8-0.8-13.8-1.8c0-1,6.2-1.9,13.8-1.9
			C34.9,85.7,41.1,86.5,41.1,87.5z"/>
		<path class="st110" d="M40.8,87.5c0,1-6.1,1.9-13.7,1.9c-7.6,0-13.7-0.7-13.7-1.8c0-1,6.1-1.9,13.7-1.9
			C34.7,85.7,40.8,86.5,40.8,87.5z"/>
		
			<ellipse transform="matrix(1 -5.641700e-03 5.641700e-03 1 -0.4939 0.1538)" class="st111" cx="27" cy="87.6" rx="13.6" ry="1.8"/>
		<path class="st112" d="M40.4,87.5c0,1-6,1.8-13.5,1.9c-7.4,0-13.5-0.7-13.5-1.7c0-1,6-1.8,13.5-1.9C34.3,85.8,40.4,86.5,40.4,87.5
			z"/>
		<path class="st113" d="M40.1,87.5c0,1-6,1.8-13.3,1.9c-7.4,0-13.3-0.7-13.3-1.7c0-1,6-1.8,13.3-1.9C34.2,85.8,40.1,86.6,40.1,87.5
			z"/>
		<path class="st114" d="M39.9,87.5c0,1-5.9,1.8-13.2,1.8c-7.3,0-13.2-0.7-13.2-1.7c0-1,5.9-1.8,13.2-1.8S39.9,86.6,39.9,87.5z"/>
		<path class="st115" d="M39.7,87.6c0,1-5.9,1.8-13.1,1.8c-7.2,0-13.1-0.7-13.1-1.7c0-1,5.9-1.8,13.1-1.8
			C33.8,85.8,39.7,86.6,39.7,87.6z"/>
		<path class="st116" d="M39.4,87.6c0,1-5.8,1.8-13,1.8c-7.2,0-13-0.7-13-1.7c0-1,5.8-1.8,13-1.8C33.6,85.8,39.4,86.6,39.4,87.6z"/>
		<path class="st117" d="M39.2,87.6c0,1-5.7,1.8-12.8,1.8c-7.1,0-12.8-0.7-12.9-1.7c0-1,5.7-1.8,12.8-1.8S39.2,86.6,39.2,87.6z"/>
		<path class="st118" d="M39,87.6c0,0.9-5.7,1.7-12.7,1.8c-7,0-12.7-0.7-12.7-1.6c0-0.9,5.7-1.7,12.7-1.8C33.3,85.9,39,86.6,39,87.6
			z"/>
		<path class="st119" d="M38.7,87.6c0,0.9-5.6,1.7-12.6,1.8c-7,0-12.6-0.7-12.6-1.6s5.6-1.7,12.6-1.8C33.1,85.9,38.7,86.6,38.7,87.6
			z"/>
		<path class="st120" d="M38.5,87.6c0,0.9-5.6,1.7-12.5,1.7c-6.9,0-12.5-0.7-12.5-1.6c0-0.9,5.6-1.7,12.5-1.7
			C32.9,85.9,38.5,86.6,38.5,87.6z"/>
		<path class="st121" d="M38.3,87.6c0,0.9-5.5,1.7-12.3,1.7c-6.8,0-12.4-0.7-12.4-1.6c0-0.9,5.5-1.7,12.3-1.7
			C32.7,85.9,38.3,86.6,38.3,87.6z"/>
		
			<ellipse transform="matrix(1 -5.640714e-03 5.640714e-03 1 -0.4939 0.1471)" class="st122" cx="25.8" cy="87.6" rx="12.2" ry="1.6"/>
		<path class="st123" d="M37.8,87.6c0,0.9-5.4,1.7-12.1,1.7c-6.7,0-12.1-0.7-12.1-1.6c0-0.9,5.4-1.7,12.1-1.7
			C32.4,86,37.8,86.7,37.8,87.6z"/>
		<ellipse transform="matrix(1 -5.641871e-03 5.641871e-03 1 -0.494 0.1459)" class="st124" cx="25.6" cy="87.6" rx="12" ry="1.6"/>
		<path class="st125" d="M37.4,87.6c0,0.9-5.3,1.6-11.8,1.7c-6.5,0-11.9-0.6-11.9-1.5c0-0.9,5.3-1.6,11.8-1.7
			C32,86,37.4,86.7,37.4,87.6z"/>
		<path class="st126" d="M37.1,87.6c0,0.9-5.2,1.6-11.7,1.6c-6.5,0-11.7-0.6-11.7-1.5c0-0.9,5.2-1.6,11.7-1.6
			C31.9,86,37.1,86.7,37.1,87.6z"/>
		<path class="st127" d="M36.9,87.6c0,0.9-5.2,1.6-11.6,1.6s-11.6-0.6-11.6-1.5c0-0.9,5.2-1.6,11.6-1.6C31.7,86,36.9,86.7,36.9,87.6
			z"/>
		<path class="st128" d="M36.7,87.6c0,0.9-5.1,1.6-11.5,1.6c-6.3,0-11.5-0.6-11.5-1.5c0-0.9,5.1-1.6,11.5-1.6
			C31.5,86.1,36.7,86.7,36.7,87.6z"/>
		<path class="st129" d="M36.4,87.6c0,0.8-5.1,1.6-11.4,1.6c-6.3,0-11.4-0.6-11.4-1.5s5.1-1.6,11.4-1.6
			C31.3,86.1,36.4,86.7,36.4,87.6z"/>
		<path class="st130" d="M36.2,87.6c0,0.8-5,1.5-11.2,1.6c-6.2,0-11.2-0.6-11.2-1.4c0-0.8,5-1.5,11.2-1.6
			C31.2,86.1,36.2,86.7,36.2,87.6z"/>
		<path class="st131" d="M36,87.6c0,0.8-5,1.5-11.1,1.6c-6.1,0-11.1-0.6-11.1-1.4c0-0.8,5-1.5,11.1-1.6C31,86.1,36,86.7,36,87.6z"/>
		<path class="st132" d="M35.7,87.6c0,0.8-4.9,1.5-11,1.5c-6.1,0-11-0.6-11-1.4c0-0.8,4.9-1.5,11-1.5C30.8,86.1,35.7,86.8,35.7,87.6
			z"/>
		<path class="st132" d="M35.5,87.6c0,0.8-4.9,1.5-10.9,1.5c-6,0-10.9-0.6-10.9-1.4c0-0.8,4.9-1.5,10.9-1.5
			C30.6,86.1,35.5,86.8,35.5,87.6z"/>
		<path class="st133" d="M35.3,87.6c0,0.8-4.8,1.5-10.7,1.5c-5.9,0-10.7-0.6-10.8-1.4c0-0.8,4.8-1.5,10.7-1.5
			C30.5,86.2,35.3,86.8,35.3,87.6z"/>
		
			<ellipse transform="matrix(1 -5.641192e-03 5.641192e-03 1 -0.494 0.1392)" class="st134" cx="24.4" cy="87.6" rx="10.6" ry="1.4"/>
		<path class="st135" d="M34.8,87.6c0,0.8-4.7,1.4-10.5,1.5c-5.8,0-10.5-0.6-10.5-1.4c0-0.8,4.7-1.4,10.5-1.5
			C30.1,86.2,34.8,86.8,34.8,87.6z"/>
		<path class="st136" d="M34.6,87.6c0,0.8-4.6,1.4-10.4,1.5c-5.7,0-10.4-0.6-10.4-1.3c0-0.8,4.6-1.4,10.4-1.5
			C29.9,86.2,34.6,86.8,34.6,87.6z"/>
		
			<ellipse transform="matrix(1 -5.641999e-03 5.641999e-03 1 -0.4941 0.1374)" class="st137" cx="24.1" cy="87.6" rx="10.3" ry="1.4"/>
		<path class="st138" d="M34.1,87.6c0,0.8-4.5,1.4-10.1,1.4c-5.6,0-10.1-0.6-10.1-1.3c0-0.8,4.5-1.4,10.1-1.4
			C29.6,86.2,34.1,86.8,34.1,87.6z"/>
		<path class="st139" d="M33.9,87.6c0,0.7-4.5,1.4-10,1.4c-5.5,0-10-0.5-10-1.3c0-0.7,4.5-1.4,10-1.4C29.4,86.3,33.9,86.8,33.9,87.6
			z"/>
		<path class="st140" d="M33.7,87.6c0,0.7-4.4,1.4-9.9,1.4c-5.5,0-9.9-0.5-9.9-1.3c0-0.7,4.4-1.4,9.9-1.4
			C29.2,86.3,33.7,86.8,33.7,87.6z"/>
		<path class="st141" d="M33.4,87.6c0,0.7-4.4,1.3-9.7,1.4c-5.4,0-9.8-0.5-9.8-1.3c0-0.7,4.4-1.3,9.7-1.4
			C29,86.3,33.4,86.9,33.4,87.6z"/>
		<path class="st142" d="M33.2,87.6c0,0.7-4.3,1.3-9.6,1.3c-5.3,0-9.6-0.5-9.6-1.2c0-0.7,4.3-1.3,9.6-1.3
			C28.9,86.3,33.2,86.9,33.2,87.6z"/>
		
			<ellipse transform="matrix(1 -5.642664e-03 5.642664e-03 1 -0.4941 0.1337)" class="st143" cx="23.5" cy="87.6" rx="9.5" ry="1.3"/>
		<path class="st144" d="M32.7,87.6c0,0.7-4.2,1.3-9.4,1.3c-5.2,0-9.4-0.5-9.4-1.2c0-0.7,4.2-1.3,9.4-1.3
			C28.5,86.4,32.7,86.9,32.7,87.6z"/>
		<path class="st145" d="M32.5,87.6c0,0.7-4.1,1.3-9.3,1.3c-5.1,0-9.3-0.5-9.3-1.2c0-0.7,4.1-1.3,9.3-1.3
			C28.3,86.4,32.5,86.9,32.5,87.6z"/>
		<path class="st146" d="M32.3,87.6c0,0.7-4.1,1.2-9.1,1.3c-5,0-9.1-0.5-9.1-1.2c0-0.7,4.1-1.2,9.1-1.3
			C28.2,86.4,32.3,86.9,32.3,87.6z"/>
		<path class="st147" d="M32,87.6c0,0.7-4,1.2-9,1.3c-5,0-9-0.5-9-1.2c0-0.7,4-1.2,9-1.3S32,86.9,32,87.6z"/>
		<path class="st148" d="M31.8,87.6c0,0.7-4,1.2-8.9,1.2c-4.9,0-8.9-0.5-8.9-1.1c0-0.7,4-1.2,8.9-1.2C27.8,86.4,31.8,86.9,31.8,87.6
			z"/>
		<path class="st149" d="M31.6,87.6c0,0.7-3.9,1.2-8.8,1.2c-4.8,0-8.8-0.5-8.8-1.1c0-0.7,3.9-1.2,8.8-1.2
			C27.6,86.4,31.6,86.9,31.6,87.6z"/>
		<path class="st150" d="M31.3,87.6c0,0.6-3.9,1.2-8.6,1.2c-4.8,0-8.6-0.5-8.7-1.1c0-0.6,3.9-1.2,8.6-1.2
			C27.5,86.5,31.3,87,31.3,87.6z"/>
		<path class="st151" d="M31.1,87.6c0,0.6-3.8,1.2-8.5,1.2c-4.7,0-8.5-0.5-8.5-1.1s3.8-1.2,8.5-1.2C27.3,86.5,31.1,87,31.1,87.6z"/>
		<path class="st152" d="M30.9,87.6c0,0.6-3.8,1.1-8.4,1.2c-4.6,0-8.4-0.5-8.4-1.1c0-0.6,3.8-1.1,8.4-1.2
			C27.1,86.5,30.9,87,30.9,87.6z"/>
		<path class="st153" d="M30.6,87.6c0,0.6-3.7,1.1-8.3,1.2c-4.6,0-8.3-0.5-8.3-1.1c0-0.6,3.7-1.1,8.3-1.2S30.6,87,30.6,87.6z"/>
		
			<ellipse transform="matrix(1 -5.641939e-03 5.641939e-03 1 -0.4941 0.127)" class="st154" cx="22.3" cy="87.6" rx="8.2" ry="1.1"/>
		<path class="st155" d="M30.2,87.6c0,0.6-3.6,1.1-8,1.1c-4.4,0-8-0.4-8-1c0-0.6,3.6-1.1,8-1.1C26.6,86.5,30.2,87,30.2,87.6z"/>
		<path class="st156" d="M30,87.6c0,0.6-3.5,1.1-7.9,1.1c-4.4,0-7.9-0.4-7.9-1c0-0.6,3.5-1.1,7.9-1.1S30,87,30,87.6z"/>
		<path class="st157" d="M29.7,87.6c0,0.6-3.5,1.1-7.8,1.1c-4.3,0-7.8-0.4-7.8-1c0-0.6,3.5-1.1,7.8-1.1C26.2,86.6,29.7,87,29.7,87.6
			z"/>
		<path class="st158" d="M29.5,87.6c0,0.6-3.4,1-7.7,1.1s-7.7-0.4-7.7-1c0-0.6,3.4-1,7.7-1.1C26.1,86.6,29.5,87,29.5,87.6z"/>
		<path class="st159" d="M29.3,87.6c0,0.6-3.4,1-7.5,1.1c-4.2,0-7.5-0.4-7.5-1c0-0.6,3.4-1,7.5-1.1C25.9,86.6,29.3,87,29.3,87.6z"/>
		<path class="st160" d="M29,87.6c0,0.5-3.3,1-7.4,1c-4.1,0-7.4-0.4-7.4-1c0-0.5,3.3-1,7.4-1C25.7,86.6,29,87.1,29,87.6z"/>
		<ellipse transform="matrix(1 -5.641384e-03 5.641384e-03 1 -0.4941 0.1228)" class="st161" cx="21.5" cy="87.6" rx="7.3" ry="1"/>
		<path class="st162" d="M28.6,87.6c0,0.5-3.2,1-7.2,1c-4,0-7.2-0.4-7.2-0.9c0-0.5,3.2-1,7.2-1C25.4,86.7,28.6,87.1,28.6,87.6z"/>
		<path class="st163" d="M28.3,87.6c0,0.5-3.1,1-7,1c-3.9,0-7-0.4-7-0.9c0-0.5,3.1-1,7-1C25.2,86.7,28.3,87.1,28.3,87.6z"/>
		<path class="st164" d="M28.1,87.6c0,0.5-3.1,0.9-6.9,1c-3.8,0-6.9-0.4-6.9-0.9c0-0.5,3.1-0.9,6.9-1C25,86.7,28.1,87.1,28.1,87.6z"
			/>
		<path class="st165" d="M27.9,87.6c0,0.5-3,0.9-6.8,1c-3.8,0-6.8-0.4-6.8-0.9c0-0.5,3-0.9,6.8-1C24.8,86.7,27.9,87.1,27.9,87.6z"/>
		<path class="st166" d="M27.6,87.6c0,0.5-3,0.9-6.7,0.9c-3.7,0-6.7-0.4-6.7-0.9c0-0.5,3-0.9,6.7-0.9S27.6,87.1,27.6,87.6z"/>
		<path class="st167" d="M27.4,87.6c0,0.5-2.9,0.9-6.5,0.9c-3.6,0-6.5-0.4-6.6-0.8c0-0.5,2.9-0.9,6.5-0.9
			C24.5,86.8,27.4,87.1,27.4,87.6z"/>
		<path class="st168" d="M27.2,87.6c0,0.5-2.9,0.9-6.4,0.9c-3.5,0-6.4-0.3-6.4-0.8s2.9-0.9,6.4-0.9C24.3,86.8,27.2,87.1,27.2,87.6z"
			/>
		<path class="st169" d="M26.9,87.6c0,0.5-2.8,0.9-6.3,0.9c-3.5,0-6.3-0.3-6.3-0.8c0-0.5,2.8-0.9,6.3-0.9S26.9,87.2,26.9,87.6z"/>
		<path class="st170" d="M26.7,87.6c0,0.5-2.8,0.8-6.2,0.9c-3.4,0-6.2-0.3-6.2-0.8c0-0.5,2.8-0.8,6.2-0.9
			C23.9,86.8,26.7,87.2,26.7,87.6z"/>
		<path class="st171" d="M26.5,87.6c0,0.4-2.7,0.8-6,0.8s-6.1-0.3-6.1-0.8c0-0.4,2.7-0.8,6-0.8C23.8,86.8,26.5,87.2,26.5,87.6z"/>
		
			<ellipse transform="matrix(1 -5.640079e-03 5.640079e-03 1 -0.4941 0.116)" class="st172" cx="20.3" cy="87.7" rx="5.9" ry="0.8"/>
		<path class="st173" d="M26,87.6c0,0.4-2.6,0.8-5.8,0.8c-3.2,0-5.8-0.3-5.8-0.7c0-0.4,2.6-0.8,5.8-0.8C23.4,86.9,26,87.2,26,87.6z"
			/>
		<path class="st174" d="M25.8,87.6c0,0.4-2.5,0.8-5.7,0.8c-3.1,0-5.7-0.3-5.7-0.7c0-0.4,2.5-0.8,5.7-0.8
			C23.2,86.9,25.8,87.2,25.8,87.6z"/>
		<path class="st175" d="M25.6,87.6c0,0.4-2.5,0.8-5.6,0.8c-3.1,0-5.6-0.3-5.6-0.7c0-0.4,2.5-0.8,5.6-0.8
			C23.1,86.9,25.6,87.2,25.6,87.6z"/>
		<path class="st176" d="M25.3,87.6c0,0.4-2.4,0.7-5.4,0.8c-3,0-5.4-0.3-5.4-0.7c0-0.4,2.4-0.7,5.4-0.8
			C22.9,86.9,25.3,87.2,25.3,87.6z"/>
		<path class="st177" d="M25.1,87.6c0,0.4-2.4,0.7-5.3,0.7c-2.9,0-5.3-0.3-5.3-0.7s2.4-0.7,5.3-0.7C22.7,86.9,25.1,87.2,25.1,87.6z"
			/>
		<path class="st178" d="M24.9,87.6c0,0.4-2.3,0.7-5.2,0.7c-2.9,0-5.2-0.3-5.2-0.7s2.3-0.7,5.2-0.7C22.5,86.9,24.9,87.2,24.9,87.6z"
			/>
		<path class="st179" d="M24.6,87.6c0,0.4-2.3,0.7-5.1,0.7s-5.1-0.3-5.1-0.7c0-0.4,2.3-0.7,5.1-0.7S24.6,87.3,24.6,87.6z"/>
		<path class="st180" d="M24.4,87.6c0,0.4-2.2,0.7-4.9,0.7c-2.7,0-4.9-0.3-4.9-0.6c0-0.4,2.2-0.7,4.9-0.7
			C22.2,87,24.4,87.3,24.4,87.6z"/>
		
			<ellipse transform="matrix(1 -5.642742e-03 5.642742e-03 1 -0.4943 0.1106)" class="st181" cx="19.4" cy="87.7" rx="4.8" ry="0.6"/>
		<path class="st182" d="M23.9,87.6c0,0.3-2.1,0.6-4.7,0.7c-2.6,0-4.7-0.3-4.7-0.6c0-0.3,2.1-0.6,4.7-0.7S23.9,87.3,23.9,87.6z"/>
		
			<ellipse transform="matrix(1 -5.636934e-03 5.636934e-03 1 -0.4938 0.1093)" class="st183" cx="19.1" cy="87.7" rx="4.6" ry="0.6"/>
		<ellipse transform="matrix(1 -5.641229e-03 5.641229e-03 1 -0.4942 0.1088)" class="st184" cx="19" cy="87.7" rx="4.4" ry="0.6"/>
		<path class="st185" d="M23.2,87.6c0,0.3-1.9,0.6-4.3,0.6c-2.4,0-4.3-0.2-4.3-0.6s1.9-0.6,4.3-0.6C21.3,87.1,23.2,87.3,23.2,87.6z"
			/>
		<path class="st186" d="M23,87.6c0,0.3-1.9,0.6-4.2,0.6c-2.3,0-4.2-0.2-4.2-0.5c0-0.3,1.9-0.6,4.2-0.6S23,87.3,23,87.6z"/>
		<path class="st187" d="M22.8,87.6c0,0.3-1.8,0.6-4.1,0.6c-2.3,0-4.1-0.2-4.1-0.5c0-0.3,1.8-0.6,4.1-0.6
			C21,87.1,22.8,87.3,22.8,87.6z"/>
		<path class="st188" d="M22.6,87.6c0,0.3-1.8,0.5-3.9,0.6c-2.2,0-4-0.2-4-0.5c0-0.3,1.8-0.5,3.9-0.6C20.8,87.1,22.6,87.3,22.6,87.6
			z"/>
		<path class="st189" d="M22.3,87.6c0,0.3-1.7,0.5-3.8,0.5c-2.1,0-3.8-0.2-3.8-0.5c0-0.3,1.7-0.5,3.8-0.5
			C20.6,87.1,22.3,87.4,22.3,87.6z"/>
		<path class="st190" d="M22.1,87.6c0,0.3-1.7,0.5-3.7,0.5c-2,0-3.7-0.2-3.7-0.5c0-0.3,1.7-0.5,3.7-0.5S22.1,87.4,22.1,87.6z"/>
		<path class="st191" d="M21.9,87.6c0,0.3-1.6,0.5-3.6,0.5c-2,0-3.6-0.2-3.6-0.5c0-0.3,1.6-0.5,3.6-0.5
			C20.3,87.2,21.9,87.4,21.9,87.6z"/>
		
			<ellipse transform="matrix(1 -5.641046e-03 5.641046e-03 1 -0.4942 0.1039)" class="st192" cx="18.2" cy="87.7" rx="3.5" ry="0.5"/>
		<path class="st193" d="M21.4,87.6c0,0.2-1.5,0.5-3.3,0.5c-1.8,0-3.3-0.2-3.3-0.4c0-0.2,1.5-0.5,3.3-0.5
			C19.9,87.2,21.4,87.4,21.4,87.6z"/>
		<path class="st194" d="M21.2,87.6c0,0.2-1.4,0.4-3.2,0.4c-1.8,0-3.2-0.2-3.2-0.4c0-0.2,1.4-0.4,3.2-0.4
			C19.7,87.2,21.2,87.4,21.2,87.6z"/>
		<path class="st195" d="M20.9,87.7c0,0.2-1.4,0.4-3.1,0.4c-1.7,0-3.1-0.2-3.1-0.4c0-0.2,1.4-0.4,3.1-0.4
			C19.5,87.2,20.9,87.4,20.9,87.7z"/>
		<path class="st196" d="M20.7,87.7c0,0.2-1.3,0.4-3,0.4s-3-0.2-3-0.4c0-0.2,1.3-0.4,3-0.4C19.4,87.3,20.7,87.4,20.7,87.7z"/>
		<path class="st197" d="M20.5,87.7c0,0.2-1.3,0.4-2.8,0.4c-1.6,0-2.8-0.2-2.8-0.4c0-0.2,1.3-0.4,2.8-0.4
			C19.2,87.3,20.5,87.4,20.5,87.7z"/>
		<path class="st198" d="M20.2,87.7c0,0.2-1.2,0.4-2.7,0.4c-1.5,0-2.7-0.1-2.7-0.3c0-0.2,1.2-0.4,2.7-0.4
			C19,87.3,20.2,87.5,20.2,87.7z"/>
		<path class="st199" d="M20,87.7c0,0.2-1.2,0.4-2.6,0.4s-2.6-0.1-2.6-0.3c0-0.2,1.2-0.4,2.6-0.4C18.8,87.3,20,87.5,20,87.7z"/>
		<path class="st200" d="M19.8,87.7c0,0.2-1.1,0.3-2.5,0.3c-1.4,0-2.5-0.1-2.5-0.3c0-0.2,1.1-0.3,2.5-0.3
			C18.7,87.3,19.8,87.5,19.8,87.7z"/>
		<path class="st201" d="M19.5,87.7c0,0.2-1,0.3-2.3,0.3c-1.3,0-2.3-0.1-2.3-0.3c0-0.2,1-0.3,2.3-0.3S19.5,87.5,19.5,87.7z"/>
		<path class="st202" d="M19.3,87.7c0,0.2-1,0.3-2.2,0.3c-1.2,0-2.2-0.1-2.2-0.3c0-0.2,1-0.3,2.2-0.3C18.3,87.4,19.3,87.5,19.3,87.7
			z"/>
		<path class="st203" d="M19.1,87.7c0,0.2-0.9,0.3-2.1,0.3s-2.1-0.1-2.1-0.3c0-0.2,0.9-0.3,2.1-0.3C18.1,87.4,19.1,87.5,19.1,87.7z"
			/>
		<path class="st204" d="M18.9,87.7c0,0.1-0.9,0.3-2,0.3c-1.1,0-2-0.1-2-0.3c0-0.1,0.9-0.3,2-0.3C18,87.4,18.9,87.5,18.9,87.7z"/>
		<path class="st205" d="M18.6,87.7c0,0.1-0.8,0.3-1.9,0.3c-1,0-1.9-0.1-1.9-0.2c0-0.1,0.8-0.3,1.9-0.3
			C17.8,87.4,18.6,87.5,18.6,87.7z"/>
		<path class="st206" d="M18.4,87.7c0,0.1-0.8,0.2-1.7,0.2c-1,0-1.7-0.1-1.7-0.2c0-0.1,0.8-0.2,1.7-0.2
			C17.6,87.4,18.4,87.5,18.4,87.7z"/>
		<path class="st207" d="M18.2,87.7c0,0.1-0.7,0.2-1.6,0.2c-0.9,0-1.6-0.1-1.6-0.2c0-0.1,0.7-0.2,1.6-0.2
			C17.4,87.5,18.2,87.5,18.2,87.7z"/>
		<path class="st208" d="M17.9,87.7c0,0.1-0.7,0.2-1.5,0.2c-0.8,0-1.5-0.1-1.5-0.2c0-0.1,0.7-0.2,1.5-0.2
			C17.3,87.5,17.9,87.6,17.9,87.7z"/>
		<path class="st209" d="M17.7,87.7c0,0.1-0.6,0.2-1.4,0.2c-0.8,0-1.4-0.1-1.4-0.2c0-0.1,0.6-0.2,1.4-0.2
			C17.1,87.5,17.7,87.6,17.7,87.7z"/>
		<path class="st210" d="M17.5,87.7c0,0.1-0.6,0.2-1.2,0.2c-0.7,0-1.2-0.1-1.2-0.2s0.6-0.2,1.2-0.2C16.9,87.5,17.5,87.6,17.5,87.7z"
			/>
		<path class="st211" d="M17.2,87.7c0,0.1-0.5,0.2-1.1,0.2c-0.6,0-1.1-0.1-1.1-0.1c0-0.1,0.5-0.2,1.1-0.2
			C16.7,87.5,17.2,87.6,17.2,87.7z"/>
		<path class="st212" d="M17,87.7c0,0.1-0.4,0.1-1,0.1c-0.5,0-1-0.1-1-0.1c0-0.1,0.4-0.1,1-0.1C16.6,87.5,17,87.6,17,87.7z"/>
		<path class="st213" d="M16.8,87.7c0,0.1-0.4,0.1-0.9,0.1c-0.5,0-0.9,0-0.9-0.1c0-0.1,0.4-0.1,0.9-0.1
			C16.4,87.6,16.8,87.6,16.8,87.7z"/>
		<path class="st214" d="M16.5,87.7c0,0.1-0.3,0.1-0.7,0.1c-0.4,0-0.7,0-0.7-0.1c0-0.1,0.3-0.1,0.7-0.1
			C16.2,87.6,16.5,87.6,16.5,87.7z"/>
		<path class="st215" d="M16.3,87.7c0,0-0.3,0.1-0.6,0.1c-0.3,0-0.6,0-0.6-0.1c0,0,0.3-0.1,0.6-0.1C16,87.6,16.3,87.6,16.3,87.7z"/>
		<path class="st216" d="M16.1,87.7c0,0-0.2,0.1-0.5,0.1c-0.3,0-0.5,0-0.5-0.1c0,0,0.2-0.1,0.5-0.1C15.9,87.6,16.1,87.6,16.1,87.7z"
			/>
		<path class="st217" d="M15.8,87.7c0,0-0.2,0.1-0.4,0.1c-0.2,0-0.4,0-0.4,0c0,0,0.2-0.1,0.4-0.1C15.7,87.6,15.8,87.7,15.8,87.7z"/>
		<path class="st218" d="M15.6,87.7c0,0-0.1,0-0.2,0c-0.1,0-0.2,0-0.2,0c0,0,0.1,0,0.2,0C15.5,87.6,15.6,87.7,15.6,87.7z"/>
		<path class="st219" d="M15.4,87.7c0,0-0.1,0-0.1,0c-0.1,0-0.1,0-0.1,0c0,0,0.1,0,0.1,0C15.3,87.7,15.4,87.7,15.4,87.7z"/>
	</g>
</g>
<g class="st0">
	<path class="st220" d="M98.3,30L98.3,30L98.3,30C98.3,30,98.3,30,98.3,30C98.3,30,98.3,30,98.3,30c0-0.1,0-0.1,0-0.1
		c-0.2-0.4-0.4-0.7-0.7-0.9L97.5,29l0,0l-10.6-6.1l-10.6-6.1l0,0l-0.1-0.1c-0.3-0.2-0.6-0.2-0.9,0c0,0,0,0,0,0c0,0,0,0,0,0L74,17.6
		l0.8,0.3L72,32.7c-0.1,0.4,0,0.8,0.2,1.2c0,0,0,0,0,0c0,0,0,0,0,0c0.2,0.4,0.4,0.7,0.7,0.9L93.9,47l-0.2,0.9l1.3-0.8c0,0,0,0,0,0
		c0.3-0.1,0.5-0.4,0.5-0.8l2.9-15.1C98.5,30.8,98.5,30.4,98.3,30z"/>
	<g>
		
			<linearGradient id="SVGID_3_" gradientUnits="userSpaceOnUse" x1="-8135.6675" y1="1805.837" x2="-8105.4268" y2="1805.837" gradientTransform="matrix(0.781 0.4511 -0.1965 1.0417 6780.8457 1814.7646)">
			<stop  offset="0" style="stop-color:#82D4F7"/>
			<stop  offset="1" style="stop-color:#5FBDEB"/>
		</linearGradient>
		<path class="st221" d="M92.8,47.9L71.5,35.6c-0.6-0.4-1-1.4-0.9-2.2l2.8-14.9c0.2-0.9,0.8-1.3,1.5-0.9l21.3,12.3
			c0.6,0.4,1,1.4,0.9,2.2L94.3,47C94.1,47.9,93.4,48.3,92.8,47.9z"/>
		
			<linearGradient id="SVGID_4_" gradientUnits="userSpaceOnUse" x1="-8098.375" y1="1821.8981" x2="-8114.8379" y2="1804.0458" gradientTransform="matrix(0.781 0.4511 -0.1965 1.0417 6780.8457 1814.7646)">
			<stop  offset="0.7677" style="stop-color:#5FBDEB"/>
			<stop  offset="0.8335" style="stop-color:#5BB9E9"/>
			<stop  offset="0.9072" style="stop-color:#51AFE2"/>
			<stop  offset="0.9843" style="stop-color:#3F9FD8"/>
			<stop  offset="1" style="stop-color:#3A9BD6"/>
		</linearGradient>
		<path class="st222" d="M96.1,29.8l-10.6-6.1l-3.3,17.5l10.5,6.6c0.7,0.4,1.4,0.1,1.5-0.7L97.1,32C97.2,31.2,96.8,30.2,96.1,29.8z"
			/>
		
			<linearGradient id="SVGID_5_" gradientUnits="userSpaceOnUse" x1="31.2732" y1="1822.0056" x2="14.8106" y2="1804.1534" gradientTransform="matrix(-0.781 -0.4511 -0.1965 1.0417 445.8118 -1844.4576)">
			<stop  offset="0.7677" style="stop-color:#5FBDEB"/>
			<stop  offset="0.8335" style="stop-color:#5BB9E9"/>
			<stop  offset="0.9072" style="stop-color:#51AFE2"/>
			<stop  offset="0.9843" style="stop-color:#3F9FD8"/>
			<stop  offset="1" style="stop-color:#3A9BD6"/>
		</linearGradient>
		<path class="st223" d="M75,17.6l10.6,6.1l-3.3,17.4l-10.7-5.5c-0.7-0.4-1.1-1.4-1-2.2l2.9-15.1C73.6,17.5,74.3,17.2,75,17.6z"/>
		
			<linearGradient id="SVGID_6_" gradientUnits="userSpaceOnUse" x1="-8120.5469" y1="1831.6719" x2="-8120.5469" y2="1806.1803" gradientTransform="matrix(0.781 0.4511 -0.1965 1.0417 6780.8457 1814.7646)">
			<stop  offset="0.7677" style="stop-color:#3A9BD6"/>
			<stop  offset="0.8217" style="stop-color:#3998D4"/>
			<stop  offset="0.8822" style="stop-color:#358FCE"/>
			<stop  offset="0.9454" style="stop-color:#3082C4"/>
			<stop  offset="1" style="stop-color:#2874BB"/>
		</linearGradient>
		<path class="st224" d="M70.7,34.6c0.2,0.4,0.5,0.8,0.8,1l21.1,12.2c0.4,0.2,0.7,0.2,1,0.1l-9.5-17.4L70.7,34.6z"/>
		
			<linearGradient id="SVGID_7_" gradientUnits="userSpaceOnUse" x1="-8130.6484" y1="1793.5424" x2="-8104.6411" y2="1807.3271" gradientTransform="matrix(0.781 0.4511 -0.1965 1.0417 6780.8457 1814.7646)">
			<stop  offset="0" style="stop-color:#82D4F7"/>
			<stop  offset="1" style="stop-color:#5FBDEB"/>
		</linearGradient>
		<path class="st225" d="M97,30.8c-0.2-0.4-0.5-0.8-0.8-1L75,17.6c-0.4-0.2-0.7-0.2-1-0.1L83.4,35L97,30.8z"/>
	</g>
</g>
<g>
	<path class="st220" d="M2.1,42.9L2.1,42.9L2.1,42.9c0,0,0-0.1,0-0.1c0,0,0-0.1,0-0.1c0,0,0-0.1,0-0.1c0.4-1,1-1.8,1.8-2.2l0.2-0.1
		l0,0l26.7-15.4L57.6,9.5l0,0l0.2-0.1c0.8-0.4,1.6-0.5,2.2-0.1c0,0,0,0,0.1,0c0,0,0,0,0.1,0l3.5,2l-2,0.9l7,37.3c0.2,1,0,2-0.4,3
		c0,0,0,0.1,0,0.1c0,0,0,0.1,0,0.1c-0.4,1-1,1.8-1.8,2.2L13.2,85.6l0.5,2.3L10.4,86c0,0,0,0-0.1,0c-0.7-0.3-1.1-1-1.3-2L1.8,45.8
		C1.6,44.8,1.7,43.8,2.1,42.9z"/>
	<g>
		
			<linearGradient id="SVGID_8_" gradientUnits="userSpaceOnUse" x1="-3083.3103" y1="-375.7974" x2="-3006.9172" y2="-375.7974" gradientTransform="matrix(-0.781 0.4511 0.1965 1.0417 -2265.7205 1814.7646)">
			<stop  offset="0" style="stop-color:#82D4F7"/>
			<stop  offset="1" style="stop-color:#5FBDEB"/>
		</linearGradient>
		<path class="st226" d="M16.1,87.9l53.8-31.1c1.6-0.9,2.6-3.5,2.2-5.6l-7.1-37.7c-0.4-2.2-2.1-3.2-3.7-2.2L7.5,42.4
			c-1.6,0.9-2.6,3.5-2.2,5.6l7.1,37.7C12.8,87.9,14.5,88.9,16.1,87.9z"/>
		
			<linearGradient id="SVGID_9_" gradientUnits="userSpaceOnUse" x1="-2989.103" y1="-335.2243" x2="-3030.6912" y2="-380.3225" gradientTransform="matrix(-0.781 0.4511 0.1965 1.0417 -2265.7205 1814.7646)">
			<stop  offset="0.7677" style="stop-color:#5FBDEB"/>
			<stop  offset="0.8335" style="stop-color:#5BB9E9"/>
			<stop  offset="0.9072" style="stop-color:#51AFE2"/>
			<stop  offset="0.9843" style="stop-color:#3F9FD8"/>
			<stop  offset="1" style="stop-color:#3A9BD6"/>
		</linearGradient>
		<path class="st227" d="M7.7,42.3l26.7-15.4l8.4,44.3L16.3,87.8c-1.7,1-3.5,0.2-3.9-1.8L5.2,47.8C4.9,45.7,6,43.3,7.7,42.3z"/>
		
			<linearGradient id="SVGID_10_" gradientUnits="userSpaceOnUse" x1="-5010.2817" y1="-335.1537" x2="-5051.8691" y2="-380.2515" gradientTransform="matrix(0.781 -0.4511 0.1965 1.0417 4069.3132 -1844.4576)">
			<stop  offset="0.7677" style="stop-color:#5FBDEB"/>
			<stop  offset="0.8335" style="stop-color:#5BB9E9"/>
			<stop  offset="0.9072" style="stop-color:#51AFE2"/>
			<stop  offset="0.9843" style="stop-color:#3F9FD8"/>
			<stop  offset="1" style="stop-color:#3A9BD6"/>
		</linearGradient>
		<path class="st228" d="M61,11.5L34.4,26.9l8.3,44l27-13.9c1.7-1,2.9-3.5,2.5-5.5l-7.2-38.2C64.5,11.3,62.8,10.5,61,11.5z"/>
		
			<linearGradient id="SVGID_11_" gradientUnits="userSpaceOnUse" x1="-3045.1133" y1="-310.5341" x2="-3045.1133" y2="-374.9302" gradientTransform="matrix(-0.781 0.4511 0.1965 1.0417 -2265.7205 1814.7646)">
			<stop  offset="0.7677" style="stop-color:#3A9BD6"/>
			<stop  offset="0.8217" style="stop-color:#3998D4"/>
			<stop  offset="0.8822" style="stop-color:#358FCE"/>
			<stop  offset="0.9454" style="stop-color:#3082C4"/>
			<stop  offset="1" style="stop-color:#2874BB"/>
		</linearGradient>
		<path class="st229" d="M71.8,54.4c-0.4,1.1-1.2,2.1-2.1,2.6L16.3,87.8c-0.9,0.5-1.9,0.6-2.6,0.1l23.9-44L71.8,54.4z"/>
		
			<linearGradient id="SVGID_12_" gradientUnits="userSpaceOnUse" x1="-3070.6316" y1="-406.8559" x2="-3004.9326" y2="-372.0331" gradientTransform="matrix(-0.781 0.4511 0.1965 1.0417 -2265.7205 1814.7646)">
			<stop  offset="0" style="stop-color:#82D4F7"/>
			<stop  offset="1" style="stop-color:#5FBDEB"/>
		</linearGradient>
		<path class="st230" d="M5.6,44.9c0.4-1.1,1.2-2.1,2.1-2.6L61,11.5c0.9-0.5,1.9-0.6,2.6-0.1l-23.9,44L5.6,44.9z"/>
	</g>
</g>
</svg>
