<?xml version="1.0" encoding="utf-8"?>
<!-- Generator: Adobe Illustrator 23.0.3, SVG Export Plug-In . SVG Version: 6.00 Build 0)  -->
<svg version="1.1" id="Layer_1" xmlns="http://www.w3.org/2000/svg" xmlns:xlink="http://www.w3.org/1999/xlink" x="0px" y="0px"
	 viewBox="0 0 240.4 67.6" style="enable-background:new 0 0 240.4 67.6;" xml:space="preserve">
<style type="text/css">
	.st0{fill:#FFF200;}
</style>
<title>logo-white</title>
<path d="M10.8,61.9h6.8c0.3,0,0.5,0.1,0.6,0.4l2.5,4c0.2,0.4,0.1,0.8-0.2,1.1c-0.1,0.1-0.3,0.1-0.4,0.1H0.8c-0.4,0-0.8-0.3-0.8-0.8
	v-3.4c0-0.2,0.1-0.4,0.2-0.5l9.9-11.4c0.3-0.3,0.2-0.8-0.1-1.1c-0.1-0.1-0.3-0.2-0.5-0.2H1.2c-0.4,0-0.8-0.3-0.8-0.8c0,0,0,0,0,0v-4
	c0-0.4,0.3-0.8,0.8-0.8c0,0,0,0,0,0h18.4c0.4,0,0.8,0.3,0.8,0.8v3.3c0,0.2-0.1,0.4-0.2,0.5l-9.9,11.4c-0.3,0.3-0.2,0.8,0.1,1.1
	C10.5,61.8,10.6,61.9,10.8,61.9z"/>
<path d="M43.3,58H29.1c-0.4,0-0.8,0.3-0.8,0.7c0,0.1,0,0.2,0.1,0.3c0.8,2,2.8,3.3,5,3.2c1.8,0,3.5-0.7,4.9-1.8c0.3-0.3,0.7-0.3,1,0
	l2.8,2.8c0.3,0.3,0.3,0.8,0,1.1c0,0,0,0,0,0c-2.6,2.3-5.9,3.6-9.4,3.5c-6.6,0-11-3.7-11.9-9.4c-1.4-8.9,5.3-15,14.1-13.7
	c6.2,1,9.3,5.7,9.1,12.7C44,57.6,43.7,57.9,43.3,58z M36.2,54c0.4,0,0.8-0.3,0.8-0.8c0,0,0-0.1,0-0.1c-0.2-2.2-2.1-3.8-4.3-3.7
	c-2.2,0-4,1.5-4.5,3.6c-0.1,0.4,0.1,0.8,0.5,1c0.1,0,0.2,0,0.2,0L36.2,54z"/>
<path d="M54.5,47.4c1.3-1.6,3.1-2.7,5.1-3.1c0.4-0.1,0.8,0.2,0.9,0.7c0,0,0,0.1,0,0.1V50c0,0.4-0.3,0.8-0.8,0.8c0,0,0,0,0,0
	c-3.8-0.1-6.3,1.9-6.6,4.9v10.9c0,0.4-0.3,0.8-0.8,0.8c0,0,0,0,0,0h-5.8c-0.4,0-0.8-0.3-0.8-0.8c0,0,0,0,0,0V45.4
	c0-0.4,0.3-0.8,0.8-0.8c0,0,0,0,0,0h5.8c0.4,0,0.8,0.3,0.8,0.8c0,0,0,0,0,0v1.6c0,0.4,0.4,0.8,0.8,0.8
	C54.2,47.7,54.4,47.6,54.5,47.4z"/>
<path d="M84.8,56c0,7-5,11.6-12.4,11.6S59.9,63,59.9,56s5-11.6,12.5-11.6S84.8,49,84.8,56z M67.2,56.1c0,3.5,2.1,5.9,5.1,5.9
	s5.1-2.4,5.1-5.9s-2.1-5.9-5.1-5.9S67.2,52.5,67.2,56.1L67.2,56.1z"/>
<path d="M119.4,56c0,6.9-4.1,11.5-10.5,11.5c-2.1,0-4.1-0.7-5.7-2c-0.3-0.3-0.8-0.2-1.1,0.1c-0.1,0.1-0.2,0.3-0.2,0.5v0.4
	c0,0.4-0.3,0.8-0.8,0.8c0,0,0,0,0,0h-5.8c-0.4,0-0.8-0.3-0.8-0.8c0,0,0,0,0,0V36.7c0-0.4,0.3-0.8,0.8-0.8c0,0,0,0,0,0h5.8
	c0.4,0,0.8,0.3,0.8,0.8c0,0,0,0,0,0v8.9c0,0.4,0.3,0.8,0.8,0.8c0.2,0,0.4-0.1,0.5-0.2c1.6-1.3,3.5-2,5.5-2
	C115.1,44.2,119.4,48.9,119.4,56z M112,55.8c0-3.5-2.1-5.9-5.1-5.9s-5,2.5-5,5.9s2.1,6,5,6S112,59.3,112,55.8L112,55.8z"/>
<path d="M144,56c0,7-5,11.6-12.4,11.6c-7.1,0-12.5-5-12.5-11.6c0-7,5-11.6,12.5-11.6S144,49,144,56z M126.5,56.1
	c0,3.5,2.1,5.9,5.1,5.9s5.1-2.4,5.1-5.9s-2.1-5.9-5.1-5.9S126.5,52.5,126.5,56.1L126.5,56.1z"/>
<path d="M167.8,62.2l-5.8,4.2c-0.3,0.2-0.8,0.2-1.1-0.2c-0.1-0.1-0.1-0.3-0.1-0.4l0,0c0-0.4-0.4-0.8-0.8-0.8c-0.2,0-0.4,0.1-0.6,0.2
	c-1.6,1.6-3.8,2.4-6.1,2.3c-4.9,0-8.1-3.4-8.1-8.7V45.3c0-0.4,0.3-0.8,0.7-0.8c0,0,0,0,0,0h5.8c0.4,0,0.8,0.3,0.8,0.8c0,0,0,0,0,0
	v11.5c0,2.7,1.5,4.3,3.8,4.3c2.8,0,4.4-2.3,4.4-5.4V45.3c0-0.4,0.3-0.8,0.7-0.8c0,0,0,0,0,0h5.8c0.4,0,0.8,0.3,0.8,0.8c0,0,0,0,0,0
	v16.3C168.1,61.8,168,62,167.8,62.2z"/>
<path d="M194.9,53v13.6c0,0.4-0.3,0.8-0.8,0.8l0,0h-5.7c-0.4,0-0.8-0.3-0.8-0.8c0,0,0,0,0,0V55c0-2.7-1.6-4.3-4-4.3
	c-2.7,0-4.3,1.9-4.6,4.6v10.5c0,0.4-0.3,0.8-0.8,0.8c-0.2,0-0.3-0.1-0.5-0.1l-5.8-4.2c-0.2-0.1-0.3-0.4-0.3-0.6V45.4
	c0-0.4,0.3-0.8,0.8-0.8l0,0h5.8c0.4,0,0.8,0.3,0.8,0.8c0,0,0,0,0,0v0.7c0,0.4,0.3,0.8,0.8,0.8c0.2,0,0.4-0.1,0.5-0.2
	c1.7-1.6,4-2.4,6.3-2.4C191.6,44.3,194.9,47.7,194.9,53z"/>
<path d="M217.4,49.9l-4,2.4c-0.3,0.2-0.7,0.1-1-0.1c-1.1-1.2-2.6-1.9-4.2-1.9c-2.8,0-4.8,2.3-4.8,5.7s2,5.8,4.8,5.8
	c1.7,0.1,3.3-0.7,4.3-2c0.2-0.3,0.7-0.4,1-0.2l4,2.4c0.4,0.2,0.5,0.7,0.3,1c0,0,0,0,0,0c-2,2.9-5.5,4.6-9.9,4.6
	c-7,0-11.7-4.6-11.7-11.6s4.8-11.7,11.8-11.7c4.2,0,7.6,1.6,9.7,4.4C217.8,49.2,217.7,49.6,217.4,49.9
	C217.4,49.9,217.4,49.9,217.4,49.9z"/>
<path d="M239.7,58h-14.2c-0.4,0-0.8,0.3-0.8,0.7c0,0.1,0,0.2,0.1,0.3c0.8,2,2.8,3.3,5,3.2c1.8,0,3.5-0.7,4.9-1.8
	c0.3-0.3,0.7-0.3,1,0l2.8,2.8c0.3,0.3,0.3,0.8,0,1.1c0,0,0,0,0,0c-2.6,2.3-5.9,3.6-9.4,3.5c-6.6,0-11-3.7-11.9-9.4
	c-1.4-8.9,5.3-15,14.1-13.7c6.2,1,9.3,5.7,9.1,12.7C240.4,57.6,240.1,58,239.7,58z M232.6,54c0.4,0,0.8-0.3,0.8-0.8c0,0,0-0.1,0-0.1
	c-0.2-2.2-2.1-3.8-4.3-3.7c-2.2,0-4,1.5-4.5,3.6c-0.1,0.4,0.1,0.8,0.5,1c0.1,0,0.1,0,0.2,0L232.6,54z"/>
<path class="st0" d="M17.3,15.5c21-5.4,56.6-9.3,69.8,20.6c0.2,0.4,0.6,0.6,1,0.4c0.2-0.1,0.4-0.3,0.4-0.5c1-3.8,5-10.6,19.8-16
	c0.4-0.2,0.8,0,1,0.4s0,0.8-0.4,1c-7,4-16.8,10.8-20.3,19c0,0-0.2,1-0.7,0.1c0,0-16-32.5-70.4-23.6c-0.4,0-0.7-0.4-0.7-0.8
	C16.9,15.9,17.1,15.7,17.3,15.5z"/>
<path d="M125.3,24.8l-3-14.6c-0.1-0.4,0.2-0.8,0.6-0.9c0.1,0,0.3,0,0.4,0l14.4,6c0.3,0.1,0.6,0.1,0.8-0.2L149.5,4
	c0.3-0.3,0.8-0.3,1.1,0c0.1,0.1,0.2,0.2,0.2,0.4l2.3,10.7l-1.3-14.4c0-0.4-0.4-0.7-0.8-0.7c0,0-0.1,0-0.1,0l-30.3,6.2
	c-0.4,0.1-0.7,0.5-0.6,0.9c0,0,0,0,0,0l4,19.6c0.1,0.4,0.5,0.7,0.9,0.6c0,0,0,0,0,0l28.5-5.8l-27.2,3.9
	C125.8,25.4,125.4,25.2,125.3,24.8z M146.7,4.6l-8.4,8.6c-0.2,0.2-0.5,0.3-0.8,0.2l-11.1-4.6c-0.4-0.2-0.6-0.6-0.4-1
	c0.1-0.2,0.3-0.4,0.6-0.5l19.4-4c0.4-0.1,0.8,0.1,0.9,0.5C147,4.1,146.9,4.4,146.7,4.6L146.7,4.6z"/>
</svg>
