<?xml version="1.0" encoding="utf-8"?>
<!-- Generator: Adobe Illustrator 23.0.3, SVG Export Plug-In . SVG Version: 6.00 Build 0)  -->
<svg version="1.1" id="Layer_1" xmlns="http://www.w3.org/2000/svg" xmlns:xlink="http://www.w3.org/1999/xlink" x="0px" y="0px"
	 viewBox="0 0 2478.3 1998.3" style="enable-background:new 0 0 2478.3 1998.3;" xml:space="preserve">
<style type="text/css">
	.st0{fill:#0E3757;}
	.st1{fill:#B7CDD8;}
	.st2{fill:#3F6C8E;}
	.st3{fill:#D2F1F3;}
	.st4{fill:#415F79;}
	.st5{opacity:0.61;fill:#EB5A49;enable-background:new    ;}
	.st6{opacity:0.61;fill:#5884A5;enable-background:new    ;}
	.st7{opacity:0.61;fill:#415F79;enable-background:new    ;}
	.st8{opacity:0.61;fill:#F96E64;enable-background:new    ;}
</style>
<g id="Layer_3">
	<g>
		<path class="st0" d="M2394,1918.8H83.6c-25.7,0-52.7-12.9-55.5-50.6v-34.6L281,1366.3c13.6-27.4,41.5-44.7,72.1-44.7h1768
			c33,0,105.7,65,120.5,94.5l208.6,425.3v15.3C2450.7,1901,2422.1,1918.8,2394,1918.8z"/>
		<path class="st1" d="M2394.2,1869.9H83.8c-25.7,0-67.9-22.5-52-50.2l249.4-502.4c13.6-27.4,41.5-44.7,72.1-44.7h1768
			c33,0,63.2,18.6,77.9,48.2l246.9,494.1C2463.4,1846.4,2422.3,1869.9,2394.2,1869.9z"/>
		<rect x="289.3" y="79.5" class="st2" width="1892" height="1195.6"/>
		<rect x="362" y="144.7" class="st3" width="1746.1" height="1036"/>
		<path class="st4" d="M1573.9,1848.2H893.1c-7.6,0-13.3-6.8-12.1-14.2l28.7-179.3c1.5-9.7,9.9-16.8,19.7-16.8h614
			c8.7,0,16.1,6.4,17.3,15l26.3,180.3C1588.1,1841.1,1581.9,1848.2,1573.9,1848.2z"/>
		<path class="st4" d="M455.9,1380.1H382c-10.3,0-17.4-3-15.9-6.8l4.5-11.1c1.5-3.7,11-6.7,21.2-6.7h73c10.2,0,17.4,3,16.1,6.7
			l-3.9,11.1C475.7,1377,466.2,1380.1,455.9,1380.1z"/>
		<path class="st4" d="M580.5,1380.1h-73.9c-10.3,0-17.6-3-16.3-6.8l3.9-11.1c1.3-3.7,10.6-6.7,20.8-6.7h73c10.2,0,17.6,3,16.5,6.7
			l-3.3,11.1C600.1,1377,590.8,1380.1,580.5,1380.1z"/>
		<path class="st4" d="M705.1,1380.1h-73.9c-10.3,0-17.8-3-16.7-6.8l3.2-11.1c1.1-3.7,10.2-6.7,20.4-6.7h73c10.2,0,17.7,3,16.9,6.7
			l-2.6,11.1C724.5,1377,715.4,1380.1,705.1,1380.1z"/>
		<path class="st4" d="M829.7,1380.1h-73.9c-10.3,0-17.9-3-17.1-6.8l2.6-11.1c0.9-3.7,9.8-6.7,20-6.7h73c10.2,0,17.9,3,17.2,6.7
			l-2,11.1C848.9,1377,840,1380.1,829.7,1380.1z"/>
		<path class="st4" d="M954.2,1380.1h-73.9c-10.3,0-18.1-3-17.5-6.8l1.9-11.1c0.6-3.7,9.4-6.7,19.6-6.7h73c10.2,0,18.1,3,17.6,6.7
			l-1.3,11.1C973.3,1377,964.5,1380.1,954.2,1380.1z"/>
		<path class="st4" d="M1078.8,1380.1h-73.9c-10.3,0-18.3-3-17.9-6.8l1.2-11.1c0.4-3.7,9-6.7,19.2-6.7h73c10.2,0,18.3,3,18,6.7
			l-0.7,11.1C1097.6,1377,1089.1,1380.1,1078.8,1380.1z"/>
		<path class="st4" d="M1203.4,1380.1h-73.9c-10.3,0-18.5-3-18.3-6.8l0.6-11.1c0.2-3.7,8.6-6.7,18.8-6.7h73c10.2,0,18.4,3,18.4,6.7
			v11.1C1222,1377,1213.7,1380.1,1203.4,1380.1z"/>
		<path class="st4" d="M1328,1380.1h-73.9c-10.3,0-18.7-3-18.7-6.8l-0.1-11.1c0-3.7,8.2-6.7,18.4-6.7h73c10.2,0,18.6,3,18.8,6.7
			l0.6,11.1C1346.4,1377,1338.3,1380.1,1328,1380.1z"/>
		<path class="st4" d="M1452.5,1380.1h-73.9c-10.3,0-18.8-3-19.1-6.8l-0.7-11.1c-0.2-3.7,7.8-6.7,18-6.7h73c10.2,0,18.8,3,19.2,6.7
			l1.3,11.1C1470.8,1377,1462.8,1380.1,1452.5,1380.1z"/>
		<path class="st4" d="M1577.1,1380.1h-73.9c-10.3,0-19-3-19.5-6.8l-1.4-11.1c-0.5-3.7,7.4-6.7,17.6-6.7h73c10.2,0,19,3,19.6,6.7
			l1.9,11.1C1595.2,1377,1587.4,1380.1,1577.1,1380.1z"/>
		<path class="st4" d="M1701.7,1380.1h-73.9c-10.3,0-19.2-3-19.9-6.8l-2-11.1c-0.7-3.7,7-6.7,17.2-6.7h73c10.2,0,19.1,3,20,6.7
			l2.6,11.1C1719.6,1377,1712,1380.1,1701.7,1380.1z"/>
		<path class="st4" d="M1826.2,1380.1h-73.9c-10.3,0-19.4-3-20.3-6.8l-2.7-11.1c-0.9-3.7,6.7-6.7,16.8-6.7h73
			c10.2,0,19.3,3,20.4,6.7l3.2,11.1C1844,1377,1836.5,1380.1,1826.2,1380.1z"/>
		<path class="st4" d="M1950.8,1380.1h-73.9c-10.3,0-19.6-3-20.7-6.8l-3.3-11.1c-1.1-3.7,6.3-6.7,16.4-6.7h73
			c10.2,0,19.5,3,20.8,6.7l3.9,11.1C1968.4,1377,1961.1,1380.1,1950.8,1380.1z"/>
		<path class="st4" d="M2075.4,1380.1h-73.9c-10.3,0-19.7-3-21.1-6.8l-4-11.1c-1.3-3.7,5.9-6.7,16-6.7h73c10.2,0,19.7,3,21.2,6.7
			l4.5,11.1C2092.8,1377,2085.7,1380.1,2075.4,1380.1z"/>
		<path class="st4" d="M449.1,1421.4h-94.3c-2.3,0-4-0.7-3.6-1.6l14-34.5c0.3-0.8,2.5-1.5,4.8-1.5h92.6c2.3,0,3.9,0.7,3.6,1.5
			l-12.3,34.5C453.6,1420.7,451.5,1421.4,449.1,1421.4z"/>
		<path class="st4" d="M623.2,1466.6H527c-2.4,0-4.1-0.7-3.8-1.6l11.5-35.9c0.3-0.9,2.4-1.6,4.8-1.6H634c2.4,0,4.1,0.7,3.8,1.6
			L628,1465C627.7,1465.9,625.6,1466.6,623.2,1466.6z"/>
		<path class="st4" d="M638.9,1513.8h-98.3c-2.4,0-4.2-0.8-3.9-1.7l11.5-37.5c0.3-0.9,2.5-1.7,4.9-1.7h96.5c2.4,0,4.2,0.7,3.9,1.7
			l-9.7,37.5C643.5,1513,641.3,1513.8,638.9,1513.8z"/>
		<path class="st4" d="M694.2,1563H593.8c-2.5,0-4.3-0.8-4-1.8l10.8-39.1c0.3-1,2.5-1.7,4.9-1.7h98.6c2.5,0,4.3,0.8,4,1.7l-9,39.1
			C698.9,1562.2,696.7,1563,694.2,1563z"/>
		<path class="st4" d="M377.3,1620.3H275c-2.7,0-4.6-0.9-4.1-2l18.8-46.4c0.4-1.1,2.9-1.9,5.6-1.9h100.2c2.7,0,4.5,0.9,4.1,1.9
			l-16.6,46.4C382.6,1619.4,380,1620.3,377.3,1620.3z"/>
		<path class="st4" d="M514,1620.3H411.7c-2.7,0-4.6-0.9-4.2-2l16.1-46.4c0.4-1.1,2.8-1.9,5.5-1.9h100.2c2.7,0,4.6,0.9,4.2,1.9
			l-13.9,46.4C519.2,1619.4,516.8,1620.3,514,1620.3z"/>
		<path class="st4" d="M646.6,1620.3H544.2c-2.7,0-4.7-0.9-4.3-2l13.5-46.4c0.3-1.1,2.7-1.9,5.4-1.9H659c2.7,0,4.6,0.9,4.4,1.9
			l-11.3,46.4C651.8,1619.4,649.3,1620.3,646.6,1620.3z"/>
		<path class="st4" d="M813.7,1620.3H678.6c-3.1,0-5.4-1-5.1-2.3l10.8-45.9c0.3-1.2,3-2.2,6-2.2h132.2c3,0,5.3,1,5.1,2.2l-7.9,45.9
			C819.5,1619.2,816.8,1620.3,813.7,1620.3z"/>
		<path class="st4" d="M1644.7,1620.3h-135.1c-3.1,0-5.7-1-5.9-2.3l-5.4-45.9c-0.1-1.2,2.2-2.2,5.2-2.2h132.2c3,0,5.7,1,5.9,2.2
			l8.3,45.9C1650.1,1619.2,1647.8,1620.3,1644.7,1620.3z"/>
		<path class="st4" d="M1781.4,1620.3h-100.9c-2.7,0-5.1-0.9-5.3-2l-8.9-46.5c-0.2-1.1,1.8-1.9,4.4-1.9h98.8c2.6,0,5,0.9,5.2,1.9
			l11,46.5C1786.1,1619.4,1784.1,1620.3,1781.4,1620.3z"/>
		<path class="st4" d="M1475.9,1620.3H852.6c-6.5,0-11.5-2.2-11-4.8l6.7-40.9c0.4-2.6,5.9-4.6,12.3-4.6h610c6.4,0,11.8,2.1,12.1,4.6
			l4.6,40.9C1487.5,1618.1,1482.5,1620.3,1475.9,1620.3z"/>
		<path class="st4" d="M824.7,1563H724.2c-2.5,0-4.4-0.8-4.1-1.8l8.6-39.1c0.2-1,2.4-1.7,4.8-1.7h98.6c2.5,0,4.3,0.8,4.1,1.7
			l-6.7,39.1C829.3,1562.2,827.2,1563,824.7,1563z"/>
		<path class="st4" d="M955.1,1563H854.7c-2.5,0-4.4-0.8-4.2-1.8l6.4-39.1c0.2-1,2.3-1.7,4.7-1.7h98.6c2.5,0,4.4,0.8,4.2,1.7
			l-4.5,39.1C959.7,1562.2,957.6,1563,955.1,1563z"/>
		<path class="st4" d="M1085.5,1563H985.1c-2.5,0-4.4-0.8-4.3-1.8l4.2-39.1c0.1-1,2.2-1.7,4.6-1.7h98.6c2.5,0,4.4,0.8,4.3,1.7
			l-2.3,39.1C1090.1,1562.2,1088,1563,1085.5,1563z"/>
		<path class="st4" d="M1216,1563h-100.4c-2.5,0-4.5-0.8-4.4-1.8l1.9-39.1c0-1,2.1-1.7,4.5-1.7h98.6c2.5,0,4.4,0.8,4.4,1.7
			l-0.1,39.1C1220.5,1562.2,1218.5,1563,1216,1563z"/>
		<path class="st4" d="M1346.4,1563H1246c-2.5,0-4.5-0.8-4.5-1.8l-0.3-39.1c0-1,2-1.7,4.4-1.7h98.6c2.5,0,4.5,0.8,4.5,1.7l2.1,39.1
			C1350.9,1562.2,1348.9,1563,1346.4,1563z"/>
		<path class="st4" d="M1476.9,1563h-100.4c-2.5,0-4.6-0.8-4.6-1.8l-2.5-39.1c-0.1-1,1.9-1.7,4.3-1.7h98.6c2.5,0,4.5,0.8,4.6,1.7
			l4.3,39.1C1481.3,1562.2,1479.4,1563,1476.9,1563z"/>
		<path class="st4" d="M1607.3,1563h-100.4c-2.5,0-4.6-0.8-4.7-1.8l-4.7-39.1c-0.1-1,1.8-1.7,4.2-1.7h98.6c2.5,0,4.6,0.8,4.7,1.7
			l6.6,39.1C1611.7,1562.2,1609.8,1563,1607.3,1563z"/>
		<path class="st4" d="M1737.7,1563h-100.4c-2.5,0-4.7-0.8-4.8-1.8l-6.9-39.1c-0.2-1,1.7-1.7,4.1-1.7h98.6c2.5,0,4.6,0.8,4.8,1.7
			l8.8,39.1C1742.1,1562.2,1740.2,1563,1737.7,1563z"/>
		<path class="st4" d="M1902.4,1621h-78.3c-10,0-18.8-3.3-19.8-7.3l-2.9-11.7c-1-4,6.2-7.2,16.1-7.2h77.4c9.8,0,18.8,3.2,19.9,7.2
			l3.5,11.7C1919.4,1617.8,1912.3,1621,1902.4,1621z"/>
		<path class="st4" d="M2036.5,1621h-78.3c-10,0-19-3.3-20.2-7.3l-3.6-11.7c-1.2-4,5.8-7.2,15.6-7.2h77.4c9.8,0,19,3.2,20.4,7.2
			l4.1,11.7C2053.4,1617.8,2046.5,1621,2036.5,1621z"/>
		<path class="st4" d="M2026.4,1591.7h-77.3c-9.8,0-18.8-3.2-20-7.1l-3.5-11.4c-1.2-3.9,5.8-7,15.5-7h76.5c9.7,0,18.7,3.1,20.1,7
			l4,11.4C2043.1,1588.5,2036.2,1591.7,2026.4,1591.7z"/>
		<path class="st4" d="M2170.6,1621h-78.3c-10,0-19.2-3.3-20.7-7.3l-4.2-11.7c-1.4-4,5.4-7.2,15.2-7.2h77.4c9.8,0,19.1,3.2,20.8,7.2
			l4.8,11.7C2187.3,1617.8,2180.6,1621,2170.6,1621z"/>
		<path class="st4" d="M767.7,1513.8h-98.3c-2.4,0-4.2-0.8-4-1.7l9.3-37.5c0.2-0.9,2.4-1.7,4.8-1.7H776c2.4,0,4.2,0.7,4,1.7
			l-7.5,37.5C772.3,1513,770.2,1513.8,767.7,1513.8z"/>
		<path class="st4" d="M896.5,1513.8h-98.3c-2.4,0-4.3-0.8-4.1-1.7l7.2-37.5c0.2-0.9,2.3-1.7,4.7-1.7h96.5c2.4,0,4.2,0.7,4.1,1.7
			l-5.4,37.5C901.1,1513,899,1513.8,896.5,1513.8z"/>
		<path class="st4" d="M1025.4,1513.8h-98.3c-2.4,0-4.3-0.8-4.2-1.7l5-37.5c0.1-0.9,2.2-1.7,4.6-1.7h96.5c2.4,0,4.3,0.7,4.2,1.7
			l-3.3,37.5C1029.9,1513,1027.8,1513.8,1025.4,1513.8z"/>
		<path class="st4" d="M1153.4,1513.8h-98.3c-2.4,0-4.4-0.8-4.3-1.7l2.9-37.5c0.1-0.9,2.1-1.7,4.5-1.7h96.5c2.4,0,4.3,0.7,4.3,1.7
			l-1.1,37.5C1157.9,1513,1155.9,1513.8,1153.4,1513.8z"/>
		<path class="st4" d="M1282.2,1513.8H1184c-2.4,0-4.4-0.8-4.4-1.7l0.8-37.5c0-0.9,2-1.7,4.4-1.7h96.5c2.4,0,4.4,0.7,4.4,1.7l1,37.5
			C1286.7,1513,1284.7,1513.8,1282.2,1513.8z"/>
		<path class="st4" d="M1405.6,1513.8h-98.3c-2.4,0-4.5-0.8-4.5-1.7l-1.3-37.5c0-0.9,1.9-1.7,4.3-1.7h96.5c2.4,0,4.4,0.7,4.5,1.7
			l3.1,37.5C1409.9,1513,1408,1513.8,1405.6,1513.8z"/>
		<path class="st4" d="M1533.2,1513.8h-98.3c-2.4,0-4.5-0.8-4.6-1.7l-3.4-37.5c-0.1-0.9,1.8-1.7,4.2-1.7h96.5c2.4,0,4.5,0.7,4.6,1.7
			l5.2,37.5C1537.5,1513,1535.7,1513.8,1533.2,1513.8z"/>
		<path class="st4" d="M1660.9,1513.8h-98.3c-2.4,0-4.5-0.8-4.7-1.7l-5.5-37.5c-0.1-0.9,1.7-1.7,4.1-1.7h96.5c2.4,0,4.5,0.7,4.7,1.7
			l7.3,37.5C1665.1,1513,1663.3,1513.8,1660.9,1513.8z"/>
		<path class="st4" d="M1787.7,1513.8h-98.3c-2.4,0-4.6-0.8-4.8-1.7l-7.6-37.5c-0.2-0.9,1.6-1.7,4-1.7h96.5c2.4,0,4.5,0.7,4.8,1.7
			l9.4,37.5C1791.9,1513,1790.2,1513.8,1787.7,1513.8z"/>
		<path class="st4" d="M1914.6,1513.8h-98.3c-2.4,0-4.6-0.8-4.9-1.7l-9.8-37.5c-0.2-0.9,1.5-1.7,3.9-1.7h96.5c2.4,0,4.6,0.7,4.9,1.7
			l11.5,37.5C1918.8,1513,1917,1513.8,1914.6,1513.8z"/>
		<path class="st4" d="M1866.9,1563h-100.4c-2.5,0-4.7-0.8-4.9-1.8l-9.1-39.1c-0.2-1,1.6-1.7,4-1.7h98.6c2.5,0,4.7,0.8,4.9,1.7
			l11,39.1C1871.2,1562.2,1869.4,1563,1866.9,1563z"/>
		<path class="st4" d="M2139.3,1513.8h-189.8c-3.4,0-6.4-1.1-6.8-2.4l-11.5-36.2c-0.4-1.3,1.9-2.3,5.2-2.3h186.4
			c3.3,0,6.4,1,6.9,2.3l14.8,36.2C2145,1512.7,2142.7,1513.8,2139.3,1513.8z"/>
		<path class="st4" d="M2158.3,1563h-260.1c-4,0-7.5-1.3-8-2.8l-10.7-37.1c-0.4-1.5,2.4-2.7,6.2-2.7H2141c3.9,0,7.5,1.2,8.2,2.7
			l15.1,37.1C2165,1561.8,2162.3,1563,2158.3,1563z"/>
		<path class="st4" d="M511.1,1513.8H319.3c-3.4,0-5.7-1.1-5.2-2.4l14.7-36.2c0.5-1.3,3.6-2.3,6.9-2.3h188.4c3.3,0,5.7,1,5.3,2.3
			l-11.4,36.2C517.6,1512.7,514.5,1513.8,511.1,1513.8z"/>
		<path class="st4" d="M562.2,1563H298.3c-4,0-6.7-1.3-6.1-2.9l15-37c0.6-1.5,4.3-2.8,8.2-2.8h259c3.9,0,6.7,1.2,6.3,2.8l-10.6,37
			C569.8,1561.8,566.2,1563,562.2,1563z"/>
		<path class="st4" d="M748.6,1466.6h-96.2c-2.4,0-4.1-0.7-3.9-1.6l9.4-35.9c0.2-0.9,2.3-1.6,4.7-1.6h94.5c2.4,0,4.1,0.7,3.9,1.6
			l-7.7,35.9C753.1,1465.9,751,1466.6,748.6,1466.6z"/>
		<path class="st4" d="M873.4,1466.6h-96.2c-2.4,0-4.2-0.7-4-1.6l7.4-35.9c0.2-0.9,2.2-1.6,4.6-1.6h94.5c2.4,0,4.1,0.7,4,1.6
			L878,1465C877.8,1465.9,875.8,1466.6,873.4,1466.6z"/>
		<path class="st4" d="M998.8,1466.6h-96.2c-2.4,0-4.2-0.7-4.1-1.6l5.3-35.9c0.1-0.9,2.1-1.6,4.5-1.6h94.5c2.4,0,4.2,0.7,4.1,1.6
			l-3.6,35.9C1003.3,1465.9,1001.2,1466.6,998.8,1466.6z"/>
		<path class="st4" d="M1124.3,1466.6h-96.2c-2.4,0-4.3-0.7-4.2-1.6l3.3-35.9c0.1-0.9,2.1-1.6,4.4-1.6h94.5c2.4,0,4.2,0.7,4.2,1.6
			l-1.6,35.9C1128.7,1465.9,1126.7,1466.6,1124.3,1466.6z"/>
		<path class="st4" d="M1249,1466.6h-96.2c-2.4,0-4.3-0.7-4.3-1.6l1.3-35.9c0-0.9,2-1.6,4.3-1.6h94.5c2.4,0,4.3,0.7,4.3,1.6
			l0.5,35.9C1253.4,1465.9,1251.4,1466.6,1249,1466.6z"/>
		<path class="st4" d="M1370.9,1466.6h-96.2c-2.4,0-4.4-0.7-4.4-1.6l-0.7-35.9c0-0.9,1.9-1.6,4.2-1.6h94.5c2.4,0,4.3,0.7,4.4,1.6
			l2.4,35.9C1375.2,1465.9,1373.3,1466.6,1370.9,1466.6z"/>
		<path class="st4" d="M1497.4,1466.6h-96.2c-2.4,0-4.4-0.7-4.5-1.6l-2.8-35.9c-0.1-0.9,1.8-1.6,4.1-1.6h94.5c2.4,0,4.4,0.7,4.5,1.6
			l4.5,35.9C1501.7,1465.9,1499.8,1466.6,1497.4,1466.6z"/>
		<path class="st4" d="M1622.4,1466.6h-96.2c-2.4,0-4.4-0.7-4.6-1.6l-4.8-35.9c-0.1-0.9,1.7-1.6,4-1.6h94.5c2.4,0,4.4,0.7,4.6,1.6
			l6.5,35.9C1626.6,1465.9,1624.8,1466.6,1622.4,1466.6z"/>
		<path class="st4" d="M1745.3,1466.6h-96.2c-2.4,0-4.5-0.7-4.7-1.6l-6.8-35.9c-0.2-0.9,1.6-1.6,4-1.6h94.5c2.4,0,4.4,0.7,4.6,1.6
			l8.5,35.9C1749.5,1465.9,1747.7,1466.6,1745.3,1466.6z"/>
		<path class="st4" d="M1873.4,1466.6h-96.2c-2.4,0-4.5-0.7-4.7-1.6l-8.9-35.9c-0.2-0.9,1.5-1.6,3.9-1.6h94.5c2.4,0,4.5,0.7,4.7,1.6
			l10.6,35.9C1877.5,1465.9,1875.8,1466.6,1873.4,1466.6z"/>
		<path class="st4" d="M1995.8,1466.6h-96.2c-2.4,0-4.6-0.7-4.8-1.6l-10.9-35.9c-0.3-0.9,1.4-1.6,3.8-1.6h94.5
			c2.4,0,4.5,0.7,4.8,1.6l12.6,35.9C1999.9,1465.9,1998.2,1466.6,1995.8,1466.6z"/>
		<path class="st4" d="M2121.8,1466.6h-96.2c-2.4,0-4.6-0.7-4.9-1.6l-13-35.9c-0.3-0.9,1.3-1.6,3.7-1.6h94.5c2.4,0,4.6,0.7,4.9,1.6
			l14.7,35.9C2125.8,1465.9,2124.2,1466.6,2121.8,1466.6z"/>
		<path class="st4" d="M573.8,1421.4h-94.3c-2.3,0-4-0.7-3.7-1.6l12-34.5c0.3-0.8,2.4-1.5,4.7-1.5h92.6c2.3,0,4,0.7,3.7,1.5
			l-10.3,34.5C578.3,1420.7,576.2,1421.4,573.8,1421.4z"/>
		<path class="st4" d="M694.7,1421.4h-94.3c-2.3,0-4-0.7-3.8-1.6l10.1-34.5c0.2-0.8,2.3-1.5,4.6-1.5H704c2.3,0,4,0.7,3.8,1.5
			l-8.4,34.5C699.1,1420.7,697.1,1421.4,694.7,1421.4z"/>
		<path class="st4" d="M818.6,1421.4h-94.3c-2.3,0-4.1-0.7-3.9-1.6l8.1-34.5c0.2-0.8,2.2-1.5,4.5-1.5h92.6c2.3,0,4,0.7,3.9,1.5
			l-6.4,34.5C823,1420.7,821,1421.4,818.6,1421.4z"/>
		<path class="st4" d="M939.5,1421.4h-94.3c-2.3,0-4.1-0.7-4-1.6l6.1-34.5c0.2-0.8,2.1-1.5,4.4-1.5h92.6c2.3,0,4.1,0.7,4,1.5
			l-4.5,34.5C943.8,1420.7,941.8,1421.4,939.5,1421.4z"/>
		<path class="st4" d="M1064.1,1421.4h-94.3c-2.3,0-4.2-0.7-4.1-1.6l4.2-34.5c0.1-0.8,2.1-1.5,4.4-1.5h92.6c2.3,0,4.1,0.7,4.1,1.5
			l-2.5,34.5C1068.4,1420.7,1066.4,1421.4,1064.1,1421.4z"/>
		<path class="st4" d="M1183.8,1421.4h-94.3c-2.3,0-4.2-0.7-4.1-1.6l2.2-34.5c0.1-0.8,2-1.5,4.3-1.5h92.6c2.3,0,4.2,0.7,4.1,1.5
			l-0.6,34.5C1188.1,1420.7,1186.2,1421.4,1183.8,1421.4z"/>
		<path class="st4" d="M1308.3,1421.4H1214c-2.3,0-4.2-0.7-4.2-1.6l0.3-34.5c0-0.8,1.9-1.5,4.2-1.5h92.6c2.3,0,4.2,0.7,4.2,1.5
			l1.4,34.5C1312.5,1420.7,1310.6,1421.4,1308.3,1421.4z"/>
		<path class="st4" d="M1429.2,1421.4h-94.3c-2.3,0-4.3-0.7-4.3-1.6l-1.7-34.5c0-0.8,1.8-1.5,4.1-1.5h92.6c2.3,0,4.2,0.7,4.3,1.5
			l3.3,34.5C1433.3,1420.7,1431.5,1421.4,1429.2,1421.4z"/>
		<path class="st4" d="M1553.3,1421.4H1459c-2.3,0-4.3-0.7-4.4-1.6l-3.7-34.5c-0.1-0.8,1.7-1.5,4-1.5h92.6c2.3,0,4.3,0.7,4.4,1.5
			l5.3,34.5C1557.5,1420.7,1555.7,1421.4,1553.3,1421.4z"/>
		<path class="st4" d="M1677.2,1421.4H1583c-2.3,0-4.4-0.7-4.5-1.6l-5.6-34.5c-0.1-0.8,1.6-1.5,3.9-1.5h92.6c2.3,0,4.3,0.7,4.5,1.5
			l7.3,34.5C1681.3,1420.7,1679.6,1421.4,1677.2,1421.4z"/>
		<path class="st4" d="M1799.9,1421.4h-94.3c-2.3,0-4.4-0.7-4.6-1.6l-7.6-34.5c-0.2-0.8,1.5-1.5,3.8-1.5h92.6c2.3,0,4.4,0.7,4.6,1.5
			l9.2,34.5C1804,1420.7,1802.2,1421.4,1799.9,1421.4z"/>
		<path class="st4" d="M1917.8,1421.4h-94.3c-2.3,0-4.4-0.7-4.7-1.6l-9.5-34.5c-0.2-0.8,1.4-1.5,3.8-1.5h92.6c2.3,0,4.4,0.7,4.7,1.5
			l11.1,34.5C1921.8,1420.7,1920.1,1421.4,1917.8,1421.4z"/>
		<path class="st4" d="M2094.5,1421.4h-141c-6.5,0-12.5-2-13.3-4.4l-9.6-29c-0.8-2.4,3.8-4.3,10.2-4.3h138.5
			c6.4,0,12.4,1.9,13.3,4.3l11.8,29C2105.5,1419.4,2101,1421.4,2094.5,1421.4z"/>
		<path class="st4" d="M488.3,1466.6H344.4c-6.7,0-11.2-2-10.2-4.6l12.2-30.2c1-2.4,7.1-4.4,13.6-4.4h141.4c6.5,0,11.2,2,10.4,4.4
			l-9.9,30.2C501,1464.6,494.9,1466.6,488.3,1466.6z"/>
		<rect x="422.2" y="325.1" class="st5" width="831.1" height="23"/>
		<rect x="1272.2" y="325.1" class="st5" width="807.5" height="23"/>
		<rect x="418.8" y="374.2" class="st6" width="254.4" height="155.7"/>
		<rect x="701.3" y="374.2" class="st5" width="254.4" height="155.7"/>
		<rect x="983.8" y="374.2" class="st7" width="254.4" height="155.7"/>
		<rect x="1825.3" y="372.5" class="st7" width="254.4" height="155.7"/>
		<rect x="1261.1" y="374.2" class="st6" width="254.4" height="155.7"/>
		<rect x="1543.6" y="374.2" class="st5" width="254.4" height="155.7"/>
		<ellipse class="st5" cx="429.9" cy="216.6" rx="28.5" ry="28.5"/>
		<ellipse class="st6" cx="506.8" cy="216.6" rx="28.5" ry="28.5"/>
		<ellipse class="st7" cx="583.7" cy="216.6" rx="28.5" ry="28.5"/>
		<rect x="422.2" y="567.4" class="st6" width="345.4" height="14.3"/>
		<rect x="422.2" y="601.4" class="st6" width="827.1" height="12.8"/>
		<rect x="422.2" y="630.6" class="st6" width="827.1" height="12.8"/>
		<rect x="422.2" y="659.9" class="st6" width="827.1" height="12.8"/>
		<rect x="1303.9" y="561.6" class="st6" width="292.7" height="14.3"/>
		<rect x="1303.9" y="601.4" class="st6" width="701" height="12.8"/>
		<rect x="1303.9" y="630.6" class="st6" width="701" height="12.8"/>
		<rect x="1303.9" y="679.7" class="st6" width="701" height="12.8"/>
		<rect x="1303.9" y="729.3" class="st7" width="701" height="12.8"/>
		<rect x="1303.9" y="763.7" class="st7" width="701" height="12.8"/>
		<rect x="1303.9" y="798" class="st7" width="701" height="12.8"/>
		<rect x="1303.9" y="832.4" class="st7" width="701" height="12.8"/>
		<rect x="1303.9" y="866.7" class="st7" width="701" height="12.8"/>
		<rect x="422.2" y="702.3" class="st5" width="827.1" height="12.8"/>
		<rect x="422.2" y="729.3" class="st8" width="827.1" height="12.8"/>
		<rect x="424.1" y="942.4" class="st6" width="827.1" height="12.8"/>
		<rect x="424.2" y="985.7" class="st6" width="827.1" height="12.8"/>
		<rect x="424.2" y="1029.1" class="st6" width="827.1" height="12.8"/>
		<rect x="424.3" y="1059.6" class="st7" width="1388" height="12.8"/>
		<rect x="424.3" y="1089.3" class="st7" width="1494" height="12.8"/>
		<rect x="424.3" y="1120.8" class="st7" width="1435.2" height="12.8"/>
		<rect x="424.2" y="763.7" class="st8" width="827.1" height="12.8"/>
		<rect x="426" y="794.4" class="st8" width="253.5" height="12.8"/>
		<rect x="426" y="817" class="st8" width="253.5" height="12.8"/>
		<rect x="426" y="853.6" class="st5" width="258.2" height="62.5"/>
		<rect x="728.6" y="853.6" class="st5" width="258.2" height="62.5"/>
		<rect x="1303.9" y="906.4" class="st6" width="258.2" height="99.8"/>
		<rect x="1590.1" y="906.4" class="st7" width="258.2" height="99.8"/>
		<rect x="1875.8" y="906.4" class="st5" width="129.1" height="99.8"/>
		<path class="st6" d="M2056.3,245.1h-1365c-14.2,0-25.7-11.3-25.7-25.2l0,0c0-13.9,11.5-25.2,25.7-25.2h1364.9
			c14.2,0,25.7,11.3,25.7,25.2l0,0C2082,233.8,2070.5,245.1,2056.3,245.1z"/>
	</g>
</g>
</svg>
