<?xml version="1.0" encoding="utf-8"?>
<!-- Generator: Adobe Illustrator 23.0.3, SVG Export Plug-In . SVG Version: 6.00 Build 0)  -->
<svg version="1.1" xmlns="http://www.w3.org/2000/svg" xmlns:xlink="http://www.w3.org/1999/xlink" x="0px" y="0px"
	 viewBox="0 0 3128.3 2678.3" style="enable-background:new 0 0 3128.3 2678.3;" xml:space="preserve">
<style type="text/css">
	.st0{fill:#DD5045;}
	.st1{fill:#EB5A49;}
	.st2{opacity:0.2;fill:#070707;}
	.st3{fill:#C6443E;}
	.st4{fill:#0E3757;}
	.st5{fill:#415F79;}
	.st6{fill:#092C44;}
	.st7{fill:#B7CDD8;}
	.st8{fill:#3F6C8E;}
	.st9{fill:#D2F1F3;}
	.st10{opacity:0.61;fill:#EB5A49;}
	.st11{opacity:0.61;fill:#5884A5;}
	.st12{opacity:0.61;fill:#415F79;}
	.st13{opacity:0.61;fill:#F96E64;}
</style>
<g id="Layer_4">
	
		<rect x="1928.9" y="528.6" transform="matrix(0.8933 -0.4495 0.4495 0.8933 -78.0161 1085.6492)" class="st0" width="636.6" height="357"/>
	<polygon class="st1" points="2178.9,581.4 2043.1,1009.6 2611.8,723.5 	"/>
	<polygon class="st2" points="2443.2,408.7 1882.7,690.7 2279.3,775.7 	"/>
	<polygon class="st3" points="2443.2,408.7 1882.7,690.7 2261.6,745.8 	"/>
	
		<rect x="2284.1" y="159" transform="matrix(0.9756 -0.2197 0.2197 0.9756 -0.9007 557.3251)" class="st0" width="441.2" height="247.5"/>
	<polygon class="st1" points="2479.9,186.7 2316.7,451.9 2747.2,354.9 	"/>
	<polygon class="st2" points="2686.6,114.9 2262.3,210.5 2514.8,334.2 	"/>
	<polygon class="st3" points="2686.6,114.9 2262.3,210.5 2507.9,311.1 	"/>
	
		<rect x="2514.9" y="772.4" transform="matrix(0.7516 -0.6596 0.6596 0.7516 82.5999 2065.2114)" class="st0" width="536.8" height="301.1"/>
	<polygon class="st1" points="2700.9,834.8 2680.9,1213.1 3084.3,859 	"/>
	<polygon class="st2" points="2880,637.8 2482.3,986.9 2824,972.1 	"/>
	<polygon class="st3" points="2880,637.8 2482.3,986.9 2803.2,951.4 	"/>
	
		<rect x="560.9" y="503.1" transform="matrix(-0.8933 -0.4495 0.4495 -0.8933 1358.1239 1685.661)" class="st4" width="636.6" height="357"/>
	<polygon class="st5" points="947.5,555.9 1083.3,984.1 514.6,698 	"/>
	<polygon class="st2" points="683.2,383.2 1243.7,665.2 847.1,750.2 	"/>
	<polygon class="st6" points="683.2,383.2 1243.7,665.2 864.8,720.3 	"/>
	
		<rect x="401" y="133.5" transform="matrix(-0.9756 -0.2197 0.2197 -0.9756 1171.5903 644.7099)" class="st4" width="441.2" height="247.5"/>
	<polygon class="st5" points="646.5,161.2 809.7,426.4 379.2,329.4 	"/>
	<polygon class="st2" points="439.8,89.4 864.1,185 611.6,308.7 	"/>
	<polygon class="st6" points="439.8,89.4 864.1,185 618.5,285.6 	"/>
	
		<rect x="74.7" y="746.9" transform="matrix(-0.7516 -0.6596 0.6596 -0.7516 8.9973 1798.2286)" class="st4" width="536.8" height="301.1"/>
	<polygon class="st5" points="425.5,809.3 445.5,1187.6 42.1,833.5 	"/>
	<polygon class="st2" points="246.4,612.3 644.1,961.3 302.4,946.6 	"/>
	<polygon class="st6" points="246.4,612.3 644.1,961.3 323.2,925.9 	"/>
</g>
<g id="Layer_3">
	<g>
		<path class="st4" d="M2719,2596.6H408.6c-25.7,0-52.7-12.9-55.5-50.6v-34.6L606,2044.1c13.6-27.4,41.5-44.7,72.1-44.7h1768
			c33,0,105.7,65,120.5,94.5l208.6,425.3v15.3C2775.7,2578.8,2747.1,2596.6,2719,2596.6z"/>
		<path class="st7" d="M2719.2,2547.7H408.8c-25.7,0-67.9-22.5-52-50.2l249.4-502.4c13.6-27.4,41.5-44.7,72.1-44.7h1768
			c33,0,63.2,18.6,77.9,48.2l246.9,494.1C2788.4,2524.2,2747.3,2547.7,2719.2,2547.7z"/>
		<rect x="614.3" y="757.3" class="st8" width="1892" height="1195.6"/>
		<rect x="687" y="822.5" class="st9" width="1746.1" height="1036"/>
		<path class="st5" d="M1898.9,2526h-680.8c-7.6,0-13.3-6.8-12.1-14.2l28.7-179.3c1.5-9.7,9.9-16.8,19.7-16.8h614
			c8.7,0,16.1,6.4,17.3,15l26.3,180.3C1913.1,2518.9,1906.9,2526,1898.9,2526z"/>
		<path class="st5" d="M780.9,2057.9h-73.9c-10.3,0-17.4-3-15.9-6.8l4.5-11.1c1.5-3.7,11-6.7,21.2-6.7h73c10.2,0,17.4,3,16.1,6.7
			l-3.9,11.1C800.7,2054.8,791.2,2057.9,780.9,2057.9z"/>
		<path class="st5" d="M905.5,2057.9h-73.9c-10.3,0-17.6-3-16.3-6.8l3.9-11.1c1.3-3.7,10.6-6.7,20.8-6.7h73c10.2,0,17.6,3,16.5,6.7
			l-3.3,11.1C925.1,2054.8,915.8,2057.9,905.5,2057.9z"/>
		<path class="st5" d="M1030.1,2057.9h-73.9c-10.3,0-17.8-3-16.7-6.8l3.2-11.1c1.1-3.7,10.2-6.7,20.4-6.7h73c10.2,0,17.7,3,16.9,6.7
			l-2.6,11.1C1049.5,2054.8,1040.4,2057.9,1030.1,2057.9z"/>
		<path class="st5" d="M1154.7,2057.9h-73.9c-10.3,0-17.9-3-17.1-6.8l2.6-11.1c0.9-3.7,9.8-6.7,20-6.7h73c10.2,0,17.9,3,17.2,6.7
			l-2,11.1C1173.9,2054.8,1165,2057.9,1154.7,2057.9z"/>
		<path class="st5" d="M1279.2,2057.9h-73.9c-10.3,0-18.1-3-17.5-6.8l1.9-11.1c0.6-3.7,9.4-6.7,19.6-6.7h73c10.2,0,18.1,3,17.6,6.7
			l-1.3,11.1C1298.3,2054.8,1289.5,2057.9,1279.2,2057.9z"/>
		<path class="st5" d="M1403.8,2057.9h-73.9c-10.3,0-18.3-3-17.9-6.8l1.2-11.1c0.4-3.7,9-6.7,19.2-6.7h73c10.2,0,18.3,3,18,6.7
			l-0.7,11.1C1422.6,2054.8,1414.1,2057.9,1403.8,2057.9z"/>
		<path class="st5" d="M1528.4,2057.9h-73.9c-10.3,0-18.5-3-18.3-6.8l0.6-11.1c0.2-3.7,8.6-6.7,18.8-6.7h73c10.2,0,18.4,3,18.4,6.7
			l0,11.1C1547,2054.8,1538.7,2057.9,1528.4,2057.9z"/>
		<path class="st5" d="M1653,2057.9h-73.9c-10.3,0-18.7-3-18.7-6.8l-0.1-11.1c0-3.7,8.2-6.7,18.4-6.7h73c10.2,0,18.6,3,18.8,6.7
			l0.6,11.1C1671.4,2054.8,1663.3,2057.9,1653,2057.9z"/>
		<path class="st5" d="M1777.5,2057.9h-73.9c-10.3,0-18.8-3-19.1-6.8l-0.7-11.1c-0.2-3.7,7.8-6.7,18-6.7h73c10.2,0,18.8,3,19.2,6.7
			l1.3,11.1C1795.8,2054.8,1787.8,2057.9,1777.5,2057.9z"/>
		<path class="st5" d="M1902.1,2057.9h-73.9c-10.3,0-19-3-19.5-6.8l-1.4-11.1c-0.5-3.7,7.4-6.7,17.6-6.7h73c10.2,0,19,3,19.6,6.7
			l1.9,11.1C1920.2,2054.8,1912.4,2057.9,1902.1,2057.9z"/>
		<path class="st5" d="M2026.7,2057.9h-73.9c-10.3,0-19.2-3-19.9-6.8l-2-11.1c-0.7-3.7,7-6.7,17.2-6.7h73c10.2,0,19.1,3,20,6.7
			l2.6,11.1C2044.6,2054.8,2037,2057.9,2026.7,2057.9z"/>
		<path class="st5" d="M2151.2,2057.9h-73.9c-10.3,0-19.4-3-20.3-6.8l-2.7-11.1c-0.9-3.7,6.7-6.7,16.8-6.7h73
			c10.2,0,19.3,3,20.4,6.7l3.2,11.1C2169,2054.8,2161.5,2057.9,2151.2,2057.9z"/>
		<path class="st5" d="M2275.8,2057.9h-73.9c-10.3,0-19.6-3-20.7-6.8l-3.3-11.1c-1.1-3.7,6.3-6.7,16.4-6.7h73
			c10.2,0,19.5,3,20.8,6.7l3.9,11.1C2293.4,2054.8,2286.1,2057.9,2275.8,2057.9z"/>
		<path class="st5" d="M2400.4,2057.9h-73.9c-10.3,0-19.7-3-21.1-6.8l-4-11.1c-1.3-3.7,5.9-6.7,16-6.7h73c10.2,0,19.7,3,21.2,6.7
			l4.5,11.1C2417.8,2054.8,2410.7,2057.9,2400.4,2057.9z"/>
		<path class="st5" d="M774.1,2099.2h-94.3c-2.3,0-4-0.7-3.6-1.6l14-34.5c0.3-0.8,2.5-1.5,4.8-1.5h92.6c2.3,0,3.9,0.7,3.6,1.5
			l-12.3,34.5C778.6,2098.5,776.5,2099.2,774.1,2099.2z"/>
		<path class="st5" d="M948.2,2144.4h-96.2c-2.4,0-4.1-0.7-3.8-1.6l11.5-35.9c0.3-0.9,2.4-1.6,4.8-1.6h94.5c2.4,0,4.1,0.7,3.8,1.6
			l-9.8,35.9C952.7,2143.7,950.6,2144.4,948.2,2144.4z"/>
		<path class="st5" d="M963.9,2191.6h-98.3c-2.4,0-4.2-0.8-3.9-1.7l11.5-37.5c0.3-0.9,2.5-1.7,4.9-1.7h96.5c2.4,0,4.2,0.7,3.9,1.7
			l-9.7,37.5C968.5,2190.8,966.3,2191.6,963.9,2191.6z"/>
		<path class="st5" d="M1019.2,2240.8H918.8c-2.5,0-4.3-0.8-4-1.8l10.8-39.1c0.3-1,2.5-1.7,4.9-1.7h98.6c2.5,0,4.3,0.8,4,1.7
			l-9,39.1C1023.9,2240,1021.7,2240.8,1019.2,2240.8z"/>
		<path class="st5" d="M702.3,2298.1H600c-2.7,0-4.6-0.9-4.1-2l18.8-46.4c0.4-1.1,2.9-1.9,5.6-1.9h100.2c2.7,0,4.5,0.9,4.1,1.9
			l-16.6,46.4C707.6,2297.2,705,2298.1,702.3,2298.1z"/>
		<path class="st5" d="M839,2298.1H736.7c-2.7,0-4.6-0.9-4.2-2l16.1-46.4c0.4-1.1,2.8-1.9,5.5-1.9h100.2c2.7,0,4.6,0.9,4.2,1.9
			l-13.9,46.4C844.2,2297.2,841.8,2298.1,839,2298.1z"/>
		<path class="st5" d="M971.6,2298.1H869.2c-2.7,0-4.7-0.9-4.3-2l13.5-46.4c0.3-1.1,2.7-1.9,5.4-1.9H984c2.7,0,4.6,0.9,4.4,1.9
			l-11.3,46.4C976.8,2297.2,974.3,2298.1,971.6,2298.1z"/>
		<path class="st5" d="M1138.7,2298.1h-135.1c-3.1,0-5.4-1-5.1-2.3l10.8-45.9c0.3-1.2,3-2.2,6-2.2h132.2c3,0,5.3,1,5.1,2.2
			l-7.9,45.9C1144.5,2297,1141.8,2298.1,1138.7,2298.1z"/>
		<path class="st5" d="M1969.7,2298.1h-135.1c-3.1,0-5.7-1-5.9-2.3l-5.4-45.9c-0.1-1.2,2.2-2.2,5.2-2.2h132.2c3,0,5.7,1,5.9,2.2
			l8.3,45.9C1975.1,2297,1972.8,2298.1,1969.7,2298.1z"/>
		<path class="st5" d="M2106.4,2298.1h-100.9c-2.7,0-5.1-0.9-5.3-2l-8.9-46.5c-0.2-1.1,1.8-1.9,4.4-1.9h98.8c2.6,0,5,0.9,5.2,1.9
			l11,46.5C2111.1,2297.2,2109.1,2298.1,2106.4,2298.1z"/>
		<path class="st5" d="M1800.9,2298.1h-623.3c-6.5,0-11.5-2.2-11-4.8l6.7-40.9c0.4-2.6,5.9-4.6,12.3-4.6h610
			c6.4,0,11.8,2.1,12.1,4.6l4.6,40.9C1812.5,2295.9,1807.5,2298.1,1800.9,2298.1z"/>
		<path class="st5" d="M1149.7,2240.8h-100.4c-2.5,0-4.4-0.8-4.1-1.8l8.6-39.1c0.2-1,2.4-1.7,4.8-1.7h98.6c2.5,0,4.3,0.8,4.1,1.7
			l-6.7,39.1C1154.3,2240,1152.2,2240.8,1149.7,2240.8z"/>
		<path class="st5" d="M1280.1,2240.8h-100.4c-2.5,0-4.4-0.8-4.2-1.8l6.4-39.1c0.2-1,2.3-1.7,4.7-1.7h98.6c2.5,0,4.4,0.8,4.2,1.7
			l-4.5,39.1C1284.7,2240,1282.6,2240.8,1280.1,2240.8z"/>
		<path class="st5" d="M1410.5,2240.8h-100.4c-2.5,0-4.4-0.8-4.3-1.8l4.2-39.1c0.1-1,2.2-1.7,4.6-1.7h98.6c2.5,0,4.4,0.8,4.3,1.7
			l-2.3,39.1C1415.1,2240,1413,2240.8,1410.5,2240.8z"/>
		<path class="st5" d="M1541,2240.8h-100.4c-2.5,0-4.5-0.8-4.4-1.8l1.9-39.1c0-1,2.1-1.7,4.5-1.7h98.6c2.5,0,4.4,0.8,4.4,1.7
			l-0.1,39.1C1545.5,2240,1543.5,2240.8,1541,2240.8z"/>
		<path class="st5" d="M1671.4,2240.8H1571c-2.5,0-4.5-0.8-4.5-1.8l-0.3-39.1c0-1,2-1.7,4.4-1.7h98.6c2.5,0,4.5,0.8,4.5,1.7
			l2.1,39.1C1675.9,2240,1673.9,2240.8,1671.4,2240.8z"/>
		<path class="st5" d="M1801.9,2240.8h-100.4c-2.5,0-4.6-0.8-4.6-1.8l-2.5-39.1c-0.1-1,1.9-1.7,4.3-1.7h98.6c2.5,0,4.5,0.8,4.6,1.7
			l4.3,39.1C1806.3,2240,1804.4,2240.8,1801.9,2240.8z"/>
		<path class="st5" d="M1932.3,2240.8h-100.4c-2.5,0-4.6-0.8-4.7-1.8l-4.7-39.1c-0.1-1,1.8-1.7,4.2-1.7h98.6c2.5,0,4.6,0.8,4.7,1.7
			l6.6,39.1C1936.7,2240,1934.8,2240.8,1932.3,2240.8z"/>
		<path class="st5" d="M2062.7,2240.8h-100.4c-2.5,0-4.7-0.8-4.8-1.8l-6.9-39.1c-0.2-1,1.7-1.7,4.1-1.7h98.6c2.5,0,4.6,0.8,4.8,1.7
			l8.8,39.1C2067.1,2240,2065.2,2240.8,2062.7,2240.8z"/>
		<path class="st5" d="M2227.4,2298.8h-78.3c-10,0-18.8-3.3-19.8-7.3l-2.9-11.7c-1-4,6.2-7.2,16.1-7.2h77.4c9.8,0,18.8,3.2,19.9,7.2
			l3.5,11.7C2244.4,2295.6,2237.3,2298.8,2227.4,2298.8z"/>
		<path class="st5" d="M2361.5,2298.8h-78.3c-10,0-19-3.3-20.2-7.3l-3.6-11.7c-1.2-4,5.8-7.2,15.6-7.2h77.4c9.8,0,19,3.2,20.4,7.2
			l4.1,11.7C2378.4,2295.6,2371.5,2298.8,2361.5,2298.8z"/>
		<path class="st5" d="M2351.4,2269.5h-77.3c-9.8,0-18.8-3.2-20-7.1l-3.5-11.4c-1.2-3.9,5.8-7,15.5-7h76.5c9.7,0,18.7,3.1,20.1,7
			l4,11.4C2368.1,2266.3,2361.2,2269.5,2351.4,2269.5z"/>
		<path class="st5" d="M2495.6,2298.8h-78.3c-10,0-19.2-3.3-20.7-7.3l-4.2-11.7c-1.4-4,5.4-7.2,15.2-7.2h77.4
			c9.8,0,19.1,3.2,20.8,7.2l4.8,11.7C2512.3,2295.6,2505.6,2298.8,2495.6,2298.8z"/>
		<path class="st5" d="M1092.7,2191.6h-98.3c-2.4,0-4.2-0.8-4-1.7l9.3-37.5c0.2-0.9,2.4-1.7,4.8-1.7h96.5c2.4,0,4.2,0.7,4,1.7
			l-7.5,37.5C1097.3,2190.8,1095.2,2191.6,1092.7,2191.6z"/>
		<path class="st5" d="M1221.5,2191.6h-98.3c-2.4,0-4.3-0.8-4.1-1.7l7.2-37.5c0.2-0.9,2.3-1.7,4.7-1.7h96.5c2.4,0,4.2,0.7,4.1,1.7
			l-5.4,37.5C1226.1,2190.8,1224,2191.6,1221.5,2191.6z"/>
		<path class="st5" d="M1350.4,2191.6h-98.3c-2.4,0-4.3-0.8-4.2-1.7l5-37.5c0.1-0.9,2.2-1.7,4.6-1.7h96.5c2.4,0,4.3,0.7,4.2,1.7
			l-3.3,37.5C1354.9,2190.8,1352.8,2191.6,1350.4,2191.6z"/>
		<path class="st5" d="M1478.4,2191.6h-98.3c-2.4,0-4.4-0.8-4.3-1.7l2.9-37.5c0.1-0.9,2.1-1.7,4.5-1.7h96.5c2.4,0,4.3,0.7,4.3,1.7
			l-1.1,37.5C1482.9,2190.8,1480.9,2191.6,1478.4,2191.6z"/>
		<path class="st5" d="M1607.2,2191.6H1509c-2.4,0-4.4-0.8-4.4-1.7l0.8-37.5c0-0.9,2-1.7,4.4-1.7h96.5c2.4,0,4.4,0.7,4.4,1.7l1,37.5
			C1611.7,2190.8,1609.7,2191.6,1607.2,2191.6z"/>
		<path class="st5" d="M1730.6,2191.6h-98.3c-2.4,0-4.5-0.8-4.5-1.7l-1.3-37.5c0-0.9,1.9-1.7,4.3-1.7h96.5c2.4,0,4.4,0.7,4.5,1.7
			l3.1,37.5C1734.9,2190.8,1733,2191.6,1730.6,2191.6z"/>
		<path class="st5" d="M1858.2,2191.6h-98.3c-2.4,0-4.5-0.8-4.6-1.7l-3.4-37.5c-0.1-0.9,1.8-1.7,4.2-1.7h96.5c2.4,0,4.5,0.7,4.6,1.7
			l5.2,37.5C1862.5,2190.8,1860.7,2191.6,1858.2,2191.6z"/>
		<path class="st5" d="M1985.9,2191.6h-98.3c-2.4,0-4.5-0.8-4.7-1.7l-5.5-37.5c-0.1-0.9,1.7-1.7,4.1-1.7h96.5c2.4,0,4.5,0.7,4.7,1.7
			l7.3,37.5C1990.1,2190.8,1988.3,2191.6,1985.9,2191.6z"/>
		<path class="st5" d="M2112.7,2191.6h-98.3c-2.4,0-4.6-0.8-4.8-1.7l-7.6-37.5c-0.2-0.9,1.6-1.7,4-1.7h96.5c2.4,0,4.5,0.7,4.8,1.7
			l9.4,37.5C2116.9,2190.8,2115.2,2191.6,2112.7,2191.6z"/>
		<path class="st5" d="M2239.6,2191.6h-98.3c-2.4,0-4.6-0.8-4.9-1.7l-9.8-37.5c-0.2-0.9,1.5-1.7,3.9-1.7h96.5c2.4,0,4.6,0.7,4.9,1.7
			l11.5,37.5C2243.8,2190.8,2242,2191.6,2239.6,2191.6z"/>
		<path class="st5" d="M2191.9,2240.8h-100.4c-2.5,0-4.7-0.8-4.9-1.8l-9.1-39.1c-0.2-1,1.6-1.7,4-1.7h98.6c2.5,0,4.7,0.8,4.9,1.7
			l11,39.1C2196.2,2240,2194.4,2240.8,2191.9,2240.8z"/>
		<path class="st5" d="M2464.3,2191.6h-189.8c-3.4,0-6.4-1.1-6.8-2.4l-11.5-36.2c-0.4-1.3,1.9-2.3,5.2-2.3h186.4
			c3.3,0,6.4,1,6.9,2.3l14.8,36.2C2470,2190.5,2467.7,2191.6,2464.3,2191.6z"/>
		<path class="st5" d="M2483.3,2240.8h-260.1c-4,0-7.5-1.3-8-2.8l-10.7-37.1c-0.4-1.5,2.4-2.7,6.2-2.7h255.3c3.9,0,7.5,1.2,8.2,2.7
			l15.1,37.1C2490,2239.6,2487.3,2240.8,2483.3,2240.8z"/>
		<path class="st5" d="M836.1,2191.6H644.3c-3.4,0-5.7-1.1-5.2-2.4l14.7-36.2c0.5-1.3,3.6-2.3,6.9-2.3h188.4c3.3,0,5.7,1,5.3,2.3
			l-11.4,36.2C842.6,2190.5,839.5,2191.6,836.1,2191.6z"/>
		<path class="st5" d="M887.2,2240.8H623.3c-4,0-6.7-1.3-6.1-2.9l15-37c0.6-1.5,4.3-2.8,8.2-2.8h259c3.9,0,6.7,1.2,6.3,2.8l-10.6,37
			C894.8,2239.6,891.2,2240.8,887.2,2240.8z"/>
		<path class="st5" d="M1073.6,2144.4h-96.2c-2.4,0-4.1-0.7-3.9-1.6l9.4-35.9c0.2-0.9,2.3-1.6,4.7-1.6h94.5c2.4,0,4.1,0.7,3.9,1.6
			l-7.7,35.9C1078.1,2143.7,1076,2144.4,1073.6,2144.4z"/>
		<path class="st5" d="M1198.4,2144.4h-96.2c-2.4,0-4.2-0.7-4-1.6l7.4-35.9c0.2-0.9,2.2-1.6,4.6-1.6h94.5c2.4,0,4.1,0.7,4,1.6
			l-5.7,35.9C1202.8,2143.7,1200.8,2144.4,1198.4,2144.4z"/>
		<path class="st5" d="M1323.8,2144.4h-96.2c-2.4,0-4.2-0.7-4.1-1.6l5.3-35.9c0.1-0.9,2.1-1.6,4.5-1.6h94.5c2.4,0,4.2,0.7,4.1,1.6
			l-3.6,35.9C1328.3,2143.7,1326.2,2144.4,1323.8,2144.4z"/>
		<path class="st5" d="M1449.3,2144.4h-96.2c-2.4,0-4.3-0.7-4.2-1.6l3.3-35.9c0.1-0.9,2.1-1.6,4.4-1.6h94.5c2.4,0,4.2,0.7,4.2,1.6
			l-1.6,35.9C1453.7,2143.7,1451.7,2144.4,1449.3,2144.4z"/>
		<path class="st5" d="M1574,2144.4h-96.2c-2.4,0-4.3-0.7-4.3-1.6l1.3-35.9c0-0.9,2-1.6,4.3-1.6h94.5c2.4,0,4.3,0.7,4.3,1.6
			l0.5,35.9C1578.4,2143.7,1576.4,2144.4,1574,2144.4z"/>
		<path class="st5" d="M1695.9,2144.4h-96.2c-2.4,0-4.4-0.7-4.4-1.6l-0.7-35.9c0-0.9,1.9-1.6,4.2-1.6h94.5c2.4,0,4.3,0.7,4.4,1.6
			l2.4,35.9C1700.2,2143.7,1698.3,2144.4,1695.9,2144.4z"/>
		<path class="st5" d="M1822.4,2144.4h-96.2c-2.4,0-4.4-0.7-4.5-1.6l-2.8-35.9c-0.1-0.9,1.8-1.6,4.1-1.6h94.5c2.4,0,4.4,0.7,4.5,1.6
			l4.5,35.9C1826.7,2143.7,1824.8,2144.4,1822.4,2144.4z"/>
		<path class="st5" d="M1947.4,2144.4h-96.2c-2.4,0-4.4-0.7-4.6-1.6l-4.8-35.9c-0.1-0.9,1.7-1.6,4-1.6h94.5c2.4,0,4.4,0.7,4.6,1.6
			l6.5,35.9C1951.6,2143.7,1949.8,2144.4,1947.4,2144.4z"/>
		<path class="st5" d="M2070.3,2144.4h-96.2c-2.4,0-4.5-0.7-4.7-1.6l-6.8-35.9c-0.2-0.9,1.6-1.6,4-1.6h94.5c2.4,0,4.4,0.7,4.6,1.6
			l8.5,35.9C2074.5,2143.7,2072.7,2144.4,2070.3,2144.4z"/>
		<path class="st5" d="M2198.4,2144.4h-96.2c-2.4,0-4.5-0.7-4.7-1.6l-8.9-35.9c-0.2-0.9,1.5-1.6,3.9-1.6h94.5c2.4,0,4.5,0.7,4.7,1.6
			l10.6,35.9C2202.5,2143.7,2200.8,2144.4,2198.4,2144.4z"/>
		<path class="st5" d="M2320.8,2144.4h-96.2c-2.4,0-4.6-0.7-4.8-1.6l-10.9-35.9c-0.3-0.9,1.4-1.6,3.8-1.6h94.5
			c2.4,0,4.5,0.7,4.8,1.6l12.6,35.9C2324.9,2143.7,2323.2,2144.4,2320.8,2144.4z"/>
		<path class="st5" d="M2446.8,2144.4h-96.2c-2.4,0-4.6-0.7-4.9-1.6l-13-35.9c-0.3-0.9,1.3-1.6,3.7-1.6h94.5c2.4,0,4.6,0.7,4.9,1.6
			l14.7,35.9C2450.8,2143.7,2449.2,2144.4,2446.8,2144.4z"/>
		<path class="st5" d="M898.8,2099.2h-94.3c-2.3,0-4-0.7-3.7-1.6l12-34.5c0.3-0.8,2.4-1.5,4.7-1.5h92.6c2.3,0,4,0.7,3.7,1.5
			l-10.3,34.5C903.3,2098.5,901.2,2099.2,898.8,2099.2z"/>
		<path class="st5" d="M1019.7,2099.2h-94.3c-2.3,0-4-0.7-3.8-1.6l10.1-34.5c0.2-0.8,2.3-1.5,4.6-1.5h92.6c2.3,0,4,0.7,3.8,1.5
			l-8.4,34.5C1024.1,2098.5,1022.1,2099.2,1019.7,2099.2z"/>
		<path class="st5" d="M1143.6,2099.2h-94.3c-2.3,0-4.1-0.7-3.9-1.6l8.1-34.5c0.2-0.8,2.2-1.5,4.5-1.5h92.6c2.3,0,4,0.7,3.9,1.5
			l-6.4,34.5C1148,2098.5,1146,2099.2,1143.6,2099.2z"/>
		<path class="st5" d="M1264.5,2099.2h-94.3c-2.3,0-4.1-0.7-4-1.6l6.1-34.5c0.2-0.8,2.1-1.5,4.4-1.5h92.6c2.3,0,4.1,0.7,4,1.5
			l-4.5,34.5C1268.8,2098.5,1266.8,2099.2,1264.5,2099.2z"/>
		<path class="st5" d="M1389.1,2099.2h-94.3c-2.3,0-4.2-0.7-4.1-1.6l4.2-34.5c0.1-0.8,2.1-1.5,4.4-1.5h92.6c2.3,0,4.1,0.7,4.1,1.5
			l-2.5,34.5C1393.4,2098.5,1391.4,2099.2,1389.1,2099.2z"/>
		<path class="st5" d="M1508.8,2099.2h-94.3c-2.3,0-4.2-0.7-4.1-1.6l2.2-34.5c0.1-0.8,2-1.5,4.3-1.5h92.6c2.3,0,4.2,0.7,4.1,1.5
			l-0.6,34.5C1513.1,2098.5,1511.2,2099.2,1508.8,2099.2z"/>
		<path class="st5" d="M1633.3,2099.2H1539c-2.3,0-4.2-0.7-4.2-1.6l0.3-34.5c0-0.8,1.9-1.5,4.2-1.5h92.6c2.3,0,4.2,0.7,4.2,1.5
			l1.4,34.5C1637.5,2098.5,1635.6,2099.2,1633.3,2099.2z"/>
		<path class="st5" d="M1754.2,2099.2h-94.3c-2.3,0-4.3-0.7-4.3-1.6l-1.7-34.5c0-0.8,1.8-1.5,4.1-1.5h92.6c2.3,0,4.2,0.7,4.3,1.5
			l3.3,34.5C1758.3,2098.5,1756.5,2099.2,1754.2,2099.2z"/>
		<path class="st5" d="M1878.3,2099.2h-94.3c-2.3,0-4.3-0.7-4.4-1.6l-3.7-34.5c-0.1-0.8,1.7-1.5,4-1.5h92.6c2.3,0,4.3,0.7,4.4,1.5
			l5.3,34.5C1882.5,2098.5,1880.7,2099.2,1878.3,2099.2z"/>
		<path class="st5" d="M2002.2,2099.2H1908c-2.3,0-4.4-0.7-4.5-1.6l-5.6-34.5c-0.1-0.8,1.6-1.5,3.9-1.5h92.6c2.3,0,4.3,0.7,4.5,1.5
			l7.3,34.5C2006.3,2098.5,2004.6,2099.2,2002.2,2099.2z"/>
		<path class="st5" d="M2124.9,2099.2h-94.3c-2.3,0-4.4-0.7-4.6-1.6l-7.6-34.5c-0.2-0.8,1.5-1.5,3.8-1.5h92.6c2.3,0,4.4,0.7,4.6,1.5
			l9.2,34.5C2129,2098.5,2127.2,2099.2,2124.9,2099.2z"/>
		<path class="st5" d="M2242.8,2099.2h-94.3c-2.3,0-4.4-0.7-4.7-1.6l-9.5-34.5c-0.2-0.8,1.4-1.5,3.8-1.5h92.6c2.3,0,4.4,0.7,4.7,1.5
			l11.1,34.5C2246.8,2098.5,2245.1,2099.2,2242.8,2099.2z"/>
		<path class="st5" d="M2419.5,2099.2h-141c-6.5,0-12.5-2-13.3-4.4l-9.6-29c-0.8-2.4,3.8-4.3,10.2-4.3h138.5
			c6.4,0,12.4,1.9,13.3,4.3l11.8,29C2430.5,2097.2,2426,2099.2,2419.5,2099.2z"/>
		<path class="st5" d="M813.3,2144.4H669.4c-6.7,0-11.2-2-10.2-4.6l12.2-30.2c1-2.4,7.1-4.4,13.6-4.4h141.4c6.5,0,11.2,2,10.4,4.4
			l-9.9,30.2C826,2142.4,819.9,2144.4,813.3,2144.4z"/>
		<rect x="747.2" y="1002.9" class="st10" width="831.1" height="23"/>
		<rect x="1597.2" y="1002.9" class="st10" width="807.5" height="23"/>
		<rect x="743.8" y="1052" class="st11" width="254.4" height="155.7"/>
		<rect x="1026.3" y="1052" class="st10" width="254.4" height="155.7"/>
		<rect x="1308.8" y="1052" class="st12" width="254.4" height="155.7"/>
		<rect x="2150.3" y="1050.3" class="st12" width="254.4" height="155.7"/>
		<rect x="1586.1" y="1052" class="st11" width="254.4" height="155.7"/>
		<rect x="1868.6" y="1052" class="st10" width="254.4" height="155.7"/>
		
			<ellipse transform="matrix(0.3827 -0.9239 0.9239 0.3827 -360.3159 1249.4861)" class="st10" cx="754.8" cy="894.4" rx="28.5" ry="28.5"/>
		
			<ellipse transform="matrix(0.3827 -0.9239 0.9239 0.3827 -312.8504 1320.5232)" class="st11" cx="831.7" cy="894.4" rx="28.5" ry="28.5"/>
		
			<ellipse transform="matrix(0.3827 -0.9239 0.9239 0.3827 -265.3849 1391.5603)" class="st12" cx="908.6" cy="894.4" rx="28.5" ry="28.5"/>
		<rect x="747.2" y="1245.2" class="st11" width="345.4" height="14.3"/>
		<rect x="747.2" y="1279.2" class="st11" width="827.1" height="12.8"/>
		<rect x="747.2" y="1308.4" class="st11" width="827.1" height="12.8"/>
		<rect x="747.2" y="1337.7" class="st11" width="827.1" height="12.8"/>
		<rect x="1628.9" y="1239.4" class="st11" width="292.7" height="14.3"/>
		<rect x="1628.9" y="1279.2" class="st11" width="701" height="12.8"/>
		<rect x="1628.9" y="1308.4" class="st11" width="701" height="12.8"/>
		<rect x="1628.9" y="1357.5" class="st11" width="701" height="12.8"/>
		<rect x="1628.9" y="1407.1" class="st12" width="701" height="12.8"/>
		<rect x="1628.9" y="1441.5" class="st12" width="701" height="12.8"/>
		<rect x="1628.9" y="1475.8" class="st12" width="701" height="12.8"/>
		<rect x="1628.9" y="1510.2" class="st12" width="701" height="12.8"/>
		<rect x="1628.9" y="1544.5" class="st12" width="701" height="12.8"/>
		<rect x="747.2" y="1380.1" class="st10" width="827.1" height="12.8"/>
		<rect x="747.2" y="1407.1" class="st13" width="827.1" height="12.8"/>
		<rect x="749.1" y="1620.2" class="st11" width="827.1" height="12.8"/>
		<rect x="749.2" y="1663.5" class="st11" width="827.1" height="12.8"/>
		<rect x="749.2" y="1706.9" class="st11" width="827.1" height="12.8"/>
		<rect x="749.3" y="1737.4" class="st12" width="1388" height="12.8"/>
		<rect x="749.3" y="1767.1" class="st12" width="1494" height="12.8"/>
		<rect x="749.3" y="1798.6" class="st12" width="1435.2" height="12.8"/>
		<rect x="749.2" y="1441.5" class="st13" width="827.1" height="12.8"/>
		<rect x="751" y="1472.2" class="st13" width="253.5" height="12.8"/>
		<rect x="751" y="1494.8" class="st13" width="253.5" height="12.8"/>
		<rect x="751" y="1531.4" class="st10" width="258.2" height="62.5"/>
		<rect x="1053.6" y="1531.4" class="st10" width="258.2" height="62.5"/>
		<rect x="1628.9" y="1584.2" class="st11" width="258.2" height="99.8"/>
		<rect x="1915.1" y="1584.2" class="st12" width="258.2" height="99.8"/>
		<rect x="2200.8" y="1584.2" class="st10" width="129.1" height="99.8"/>
		<path class="st11" d="M2381.3,922.9H1016.3c-14.2,0-25.7-11.3-25.7-25.2l0,0c0-13.9,11.5-25.2,25.7-25.2h1364.9
			c14.2,0,25.7,11.3,25.7,25.2l0,0C2407,911.6,2395.5,922.9,2381.3,922.9z"/>
	</g>
</g>
</svg>
