<svg id="Layer_1" data-name="Layer 1" xmlns="http://www.w3.org/2000/svg" viewBox="0 0 240.43 67.62"><defs><style>.cls-1{fill:#fff;}.cls-2{fill:#fff200;}</style></defs><title>logo-white</title><path class="cls-1" d="M379.73,331.77h6.8a.75.75,0,0,1,.64.35l2.54,4a.77.77,0,0,1-.64,1.18h-19.4a.77.77,0,0,1-.77-.76v-3.35a.78.78,0,0,1,.19-.5l9.9-11.39a.76.76,0,0,0-.57-1.26h-8.33a.76.76,0,0,1-.76-.77v-4a.76.76,0,0,1,.76-.76h18.35a.77.77,0,0,1,.77.76v3.34a.76.76,0,0,1-.19.5l-9.86,11.4A.76.76,0,0,0,379.73,331.77Z" transform="translate(-368.9 -269.89)"/><path class="cls-1" d="M412.19,327.85H398a.76.76,0,0,0-.71,1.06,5.16,5.16,0,0,0,5,3.16,7.65,7.65,0,0,0,4.92-1.84.76.76,0,0,1,1,0L411,333a.76.76,0,0,1,0,1.08,13.26,13.26,0,0,1-9.39,3.46c-6.62,0-11-3.69-11.91-9.41-1.35-8.85,5.29-15,14.14-13.67,6.17,1,9.28,5.66,9.08,12.68A.78.78,0,0,1,412.19,327.85Zm-7.1-3.93a.77.77,0,0,0,.77-.87,4.16,4.16,0,0,0-4.33-3.73,4.63,4.63,0,0,0-4.49,3.61.76.76,0,0,0,.73,1Z" transform="translate(-368.9 -269.89)"/><path class="cls-1" d="M423.44,317.31a8.53,8.53,0,0,1,5.14-3.07.78.78,0,0,1,.89.76v4.93a.77.77,0,0,1-.78.78c-3.78-.08-6.25,1.85-6.61,4.86V336.5a.76.76,0,0,1-.76.76h-5.78a.76.76,0,0,1-.76-.76V315.27a.76.76,0,0,1,.76-.76h5.78a.76.76,0,0,1,.76.76v1.56A.77.77,0,0,0,423.44,317.31Z" transform="translate(-368.9 -269.89)"/><path class="cls-1" d="M453.65,325.86c0,7-5,11.65-12.41,11.65s-12.45-4.64-12.45-11.65,5-11.6,12.45-11.6S453.65,318.86,453.65,325.86Zm-17.52.09c0,3.54,2.07,5.91,5.11,5.91s5.07-2.37,5.07-5.91-2.07-5.91-5.07-5.91S436.13,322.44,436.13,326Z" transform="translate(-368.9 -269.89)"/><path class="cls-1" d="M488.27,325.85c0,6.92-4.14,11.53-10.51,11.53a8.67,8.67,0,0,1-5.73-2,.75.75,0,0,0-1.24.58v.38a.76.76,0,0,1-.76.76h-5.78a.76.76,0,0,1-.76-.76V306.57a.76.76,0,0,1,.76-.76H470a.76.76,0,0,1,.76.76v8.91a.76.76,0,0,0,1.25.59,8.32,8.32,0,0,1,5.55-1.95C484,314.12,488.27,318.8,488.27,325.85Zm-7.35-.21c0-3.46-2.07-5.91-5.1-5.91s-5,2.45-5,5.91,2.07,5.95,5,5.95S480.92,329.15,480.92,325.64Z" transform="translate(-368.9 -269.89)"/><path class="cls-1" d="M512.9,325.86c0,7-5,11.65-12.41,11.65-7.1,0-12.45-5-12.45-11.65,0-7,5-11.6,12.45-11.6S512.9,318.86,512.9,325.86Zm-17.51.09c0,3.54,2.07,5.91,5.1,5.91s5.07-2.37,5.07-5.91-2.07-5.91-5.07-5.91S495.39,322.44,495.39,326Z" transform="translate(-368.9 -269.89)"/><path class="cls-1" d="M536.7,332.05l-5.78,4.19a.76.76,0,0,1-1.21-.61h0a.77.77,0,0,0-1.33-.52,8.18,8.18,0,0,1-6.06,2.31c-4.94,0-8.14-3.38-8.14-8.7V315.14a.76.76,0,0,1,.76-.77h5.78a.76.76,0,0,1,.76.77v11.52c0,2.7,1.48,4.34,3.8,4.34,2.78,0,4.43-2.32,4.43-5.4V315.14a.76.76,0,0,1,.76-.77h5.78a.76.76,0,0,1,.76.77v16.29A.77.77,0,0,1,536.7,332.05Z" transform="translate(-368.9 -269.89)"/><path class="cls-1" d="M563.8,322.91V336.5a.76.76,0,0,1-.76.76H557.3a.76.76,0,0,1-.76-.76V324.93c0-2.66-1.56-4.3-4-4.3-2.66,0-4.35,1.9-4.64,4.6v10.53a.76.76,0,0,1-1.21.62l-5.78-4.19a.77.77,0,0,1-.31-.62v-16.3a.76.76,0,0,1,.76-.76h5.78a.76.76,0,0,1,.76.76V316a.76.76,0,0,0,1.31.52,8.81,8.81,0,0,1,6.29-2.38C560.51,314.17,563.8,317.59,563.8,322.91Z" transform="translate(-368.9 -269.89)"/><path class="cls-1" d="M586.25,319.77l-4,2.41a.74.74,0,0,1-.95-.12,5.39,5.39,0,0,0-4.23-1.9c-2.82,0-4.77,2.33-4.77,5.74s1.95,5.79,4.77,5.79a5,5,0,0,0,4.29-2,.74.74,0,0,1,1-.19l4,2.36a.75.75,0,0,1,.27,1.06c-2,2.93-5.45,4.61-9.94,4.61-7,0-11.73-4.64-11.73-11.56s4.77-11.69,11.82-11.69c4.2,0,7.63,1.6,9.69,4.44A.75.75,0,0,1,586.25,319.77Z" transform="translate(-368.9 -269.89)"/><path class="cls-1" d="M608.56,327.85H594.38a.76.76,0,0,0-.71,1.06,5.17,5.17,0,0,0,5,3.16,7.65,7.65,0,0,0,4.92-1.84.76.76,0,0,1,1,0L607.4,333a.76.76,0,0,1,0,1.08,13.25,13.25,0,0,1-9.38,3.46c-6.63,0-11-3.69-11.91-9.41-1.36-8.85,5.28-15,14.13-13.67,6.17,1,9.29,5.66,9.08,12.68A.77.77,0,0,1,608.56,327.85Zm-7.09-3.93a.77.77,0,0,0,.76-.87,4.16,4.16,0,0,0-4.33-3.73,4.65,4.65,0,0,0-4.49,3.61.77.77,0,0,0,.73,1Z" transform="translate(-368.9 -269.89)"/><path class="cls-2" d="M386.21,285.44c21-5.35,56.65-9.27,69.77,20.63a.76.76,0,0,0,1.43-.09c1-3.79,5-10.56,19.81-16a.76.76,0,0,1,.64,1.38c-7.05,4-16.8,10.8-20.25,19,0,0-.22,1-.68.08,0,0-16.05-32.47-70.4-23.57A.76.76,0,0,1,386.21,285.44Z" transform="translate(-368.9 -269.89)"/><path class="cls-1" d="M494.23,294.65l-3-14.56a.76.76,0,0,1,1-.86l14.44,6a.77.77,0,0,0,.84-.17l10.93-11.18a.77.77,0,0,1,1.3.38L522,285l-1.29-14.42a.76.76,0,0,0-.91-.68l-30.3,6.18a.76.76,0,0,0-.6.9l4,19.64a.76.76,0,0,0,.9.59l28.47-5.8-27.17,3.85A.77.77,0,0,1,494.23,294.65Zm21.33-20.17-8.4,8.58a.74.74,0,0,1-.82.17l-11.08-4.61a.76.76,0,0,1,.15-1.45l19.45-4A.76.76,0,0,1,515.56,274.48Z" transform="translate(-368.9 -269.89)"/></svg>